<?xml version="1.0" encoding="utf-8" standalone="no"?>
<!DOCTYPE svg PUBLIC "-//W3C//DTD SVG 1.1//EN"
  "http://www.w3.org/Graphics/SVG/1.1/DTD/svg11.dtd">
<svg xmlns:xlink="http://www.w3.org/1999/xlink" width="460.8pt" height="345.6pt" viewBox="0 0 460.8 345.6" xmlns="http://www.w3.org/2000/svg" version="1.1">
 <metadata>
  <rdf:RDF xmlns:dc="http://purl.org/dc/elements/1.1/" xmlns:cc="http://creativecommons.org/ns#" xmlns:rdf="http://www.w3.org/1999/02/22-rdf-syntax-ns#">
   <cc:Work>
    <dc:type rdf:resource="http://purl.org/dc/dcmitype/StillImage"/>
    <dc:date>2024-09-04T23:06:20.423540</dc:date>
    <dc:format>image/svg+xml</dc:format>
    <dc:creator>
     <cc:Agent>
      <dc:title>Matplotlib v3.9.2, https://matplotlib.org/</dc:title>
     </cc:Agent>
    </dc:creator>
   </cc:Work>
  </rdf:RDF>
 </metadata>
 <defs>
  <style type="text/css">*{stroke-linejoin: round; stroke-linecap: butt}</style>
 </defs>
 <g id="figure_1">
  <g id="patch_1">
   <path d="M 0 345.6 
L 460.8 345.6 
L 460.8 0 
L 0 0 
z
" style="fill: #ffffff; stroke: #ffffff; stroke-linejoin: miter"/>
  </g>
  <g id="axes_1">
   <g id="patch_2">
    <path d="M 47.007938 312.471312 
L 349.448 312.471312 
L 349.448 4.608 
L 47.007938 4.608 
z
" style="fill: #ebebeb"/>
   </g>
   <g id="matplotlib.axis_1">
    <g id="xtick_1">
     <g id="line2d_1">
      <path d="M 60.755213 312.471312 
L 60.755213 4.608 
" clip-path="url(#pab8d7cadb3)" style="fill: none; stroke: #ffffff; stroke-linecap: square"/>
     </g>
     <g id="line2d_2">
      <path d="M 60.755213 312.471312 
" style="fill: none; stroke: #333333; stroke-width: 1.5; stroke-linecap: square"/>
      <defs>
       <path id="m1125f46868" d="M 0 0 
L 0 2.75 
" style="stroke: #333333"/>
      </defs>
      <g>
       <use xlink:href="#m1125f46868" x="60.755213" y="312.471312" style="fill: #333333; stroke: #333333"/>
      </g>
     </g>
     <g id="text_1">
      <!-- 1 -->
      <g style="fill: #4d4d4d" transform="translate(57.955713 323.907938) scale(0.088 -0.088)">
       <defs>
        <path id="DejaVuSans-31" d="M 794 531 
L 1825 531 
L 1825 4091 
L 703 3866 
L 703 4441 
L 1819 4666 
L 2450 4666 
L 2450 531 
L 3481 531 
L 3481 0 
L 794 0 
L 794 531 
z
" transform="scale(0.015625)"/>
       </defs>
       <use xlink:href="#DejaVuSans-31"/>
      </g>
     </g>
    </g>
    <g id="xtick_2">
     <g id="line2d_3">
      <path d="M 129.491591 312.471312 
L 129.491591 4.608 
" clip-path="url(#pab8d7cadb3)" style="fill: none; stroke: #ffffff; stroke-linecap: square"/>
     </g>
     <g id="line2d_4">
      <path d="M 129.491591 312.471312 
" style="fill: none; stroke: #333333; stroke-width: 1.5; stroke-linecap: square"/>
      <g>
       <use xlink:href="#m1125f46868" x="129.491591" y="312.471312" style="fill: #333333; stroke: #333333"/>
      </g>
     </g>
     <g id="text_2">
      <!-- 2 -->
      <g style="fill: #4d4d4d" transform="translate(126.692091 323.907938) scale(0.088 -0.088)">
       <defs>
        <path id="DejaVuSans-32" d="M 1228 531 
L 3431 531 
L 3431 0 
L 469 0 
L 469 531 
Q 828 903 1448 1529 
Q 2069 2156 2228 2338 
Q 2531 2678 2651 2914 
Q 2772 3150 2772 3378 
Q 2772 3750 2511 3984 
Q 2250 4219 1831 4219 
Q 1534 4219 1204 4116 
Q 875 4013 500 3803 
L 500 4441 
Q 881 4594 1212 4672 
Q 1544 4750 1819 4750 
Q 2544 4750 2975 4387 
Q 3406 4025 3406 3419 
Q 3406 3131 3298 2873 
Q 3191 2616 2906 2266 
Q 2828 2175 2409 1742 
Q 1991 1309 1228 531 
z
" transform="scale(0.015625)"/>
       </defs>
       <use xlink:href="#DejaVuSans-32"/>
      </g>
     </g>
    </g>
    <g id="xtick_3">
     <g id="line2d_5">
      <path d="M 198.227969 312.471312 
L 198.227969 4.608 
" clip-path="url(#pab8d7cadb3)" style="fill: none; stroke: #ffffff; stroke-linecap: square"/>
     </g>
     <g id="line2d_6">
      <path d="M 198.227969 312.471312 
" style="fill: none; stroke: #333333; stroke-width: 1.5; stroke-linecap: square"/>
      <g>
       <use xlink:href="#m1125f46868" x="198.227969" y="312.471312" style="fill: #333333; stroke: #333333"/>
      </g>
     </g>
     <g id="text_3">
      <!-- 3 -->
      <g style="fill: #4d4d4d" transform="translate(195.428469 323.907938) scale(0.088 -0.088)">
       <defs>
        <path id="DejaVuSans-33" d="M 2597 2516 
Q 3050 2419 3304 2112 
Q 3559 1806 3559 1356 
Q 3559 666 3084 287 
Q 2609 -91 1734 -91 
Q 1441 -91 1130 -33 
Q 819 25 488 141 
L 488 750 
Q 750 597 1062 519 
Q 1375 441 1716 441 
Q 2309 441 2620 675 
Q 2931 909 2931 1356 
Q 2931 1769 2642 2001 
Q 2353 2234 1838 2234 
L 1294 2234 
L 1294 2753 
L 1863 2753 
Q 2328 2753 2575 2939 
Q 2822 3125 2822 3475 
Q 2822 3834 2567 4026 
Q 2313 4219 1838 4219 
Q 1578 4219 1281 4162 
Q 984 4106 628 3988 
L 628 4550 
Q 988 4650 1302 4700 
Q 1616 4750 1894 4750 
Q 2613 4750 3031 4423 
Q 3450 4097 3450 3541 
Q 3450 3153 3228 2886 
Q 3006 2619 2597 2516 
z
" transform="scale(0.015625)"/>
       </defs>
       <use xlink:href="#DejaVuSans-33"/>
      </g>
     </g>
    </g>
    <g id="xtick_4">
     <g id="line2d_7">
      <path d="M 266.964347 312.471312 
L 266.964347 4.608 
" clip-path="url(#pab8d7cadb3)" style="fill: none; stroke: #ffffff; stroke-linecap: square"/>
     </g>
     <g id="line2d_8">
      <path d="M 266.964347 312.471312 
" style="fill: none; stroke: #333333; stroke-width: 1.5; stroke-linecap: square"/>
      <g>
       <use xlink:href="#m1125f46868" x="266.964347" y="312.471312" style="fill: #333333; stroke: #333333"/>
      </g>
     </g>
     <g id="text_4">
      <!-- 4 -->
      <g style="fill: #4d4d4d" transform="translate(264.164847 323.907938) scale(0.088 -0.088)">
       <defs>
        <path id="DejaVuSans-34" d="M 2419 4116 
L 825 1625 
L 2419 1625 
L 2419 4116 
z
M 2253 4666 
L 3047 4666 
L 3047 1625 
L 3713 1625 
L 3713 1100 
L 3047 1100 
L 3047 0 
L 2419 0 
L 2419 1100 
L 313 1100 
L 313 1709 
L 2253 4666 
z
" transform="scale(0.015625)"/>
       </defs>
       <use xlink:href="#DejaVuSans-34"/>
      </g>
     </g>
    </g>
    <g id="xtick_5">
     <g id="line2d_9">
      <path d="M 335.700724 312.471312 
L 335.700724 4.608 
" clip-path="url(#pab8d7cadb3)" style="fill: none; stroke: #ffffff; stroke-linecap: square"/>
     </g>
     <g id="line2d_10">
      <path d="M 335.700724 312.471312 
" style="fill: none; stroke: #333333; stroke-width: 1.5; stroke-linecap: square"/>
      <g>
       <use xlink:href="#m1125f46868" x="335.700724" y="312.471312" style="fill: #333333; stroke: #333333"/>
      </g>
     </g>
     <g id="text_5">
      <!-- 5 -->
      <g style="fill: #4d4d4d" transform="translate(332.901224 323.907938) scale(0.088 -0.088)">
       <defs>
        <path id="DejaVuSans-35" d="M 691 4666 
L 3169 4666 
L 3169 4134 
L 1269 4134 
L 1269 2991 
Q 1406 3038 1543 3061 
Q 1681 3084 1819 3084 
Q 2600 3084 3056 2656 
Q 3513 2228 3513 1497 
Q 3513 744 3044 326 
Q 2575 -91 1722 -91 
Q 1428 -91 1123 -41 
Q 819 9 494 109 
L 494 744 
Q 775 591 1075 516 
Q 1375 441 1709 441 
Q 2250 441 2565 725 
Q 2881 1009 2881 1497 
Q 2881 1984 2565 2268 
Q 2250 2553 1709 2553 
Q 1456 2553 1204 2497 
Q 953 2441 691 2322 
L 691 4666 
z
" transform="scale(0.015625)"/>
       </defs>
       <use xlink:href="#DejaVuSans-35"/>
      </g>
     </g>
    </g>
    <g id="xtick_6">
     <g id="line2d_11">
      <path d="M 95.123402 312.471312 
L 95.123402 4.608 
" clip-path="url(#pab8d7cadb3)" style="fill: none; stroke: #ffffff; stroke-width: 0.5; stroke-linecap: square"/>
     </g>
    </g>
    <g id="xtick_7">
     <g id="line2d_12">
      <path d="M 163.85978 312.471312 
L 163.85978 4.608 
" clip-path="url(#pab8d7cadb3)" style="fill: none; stroke: #ffffff; stroke-width: 0.5; stroke-linecap: square"/>
     </g>
    </g>
    <g id="xtick_8">
     <g id="line2d_13">
      <path d="M 232.596158 312.471312 
L 232.596158 4.608 
" clip-path="url(#pab8d7cadb3)" style="fill: none; stroke: #ffffff; stroke-width: 0.5; stroke-linecap: square"/>
     </g>
    </g>
    <g id="xtick_9">
     <g id="line2d_14">
      <path d="M 301.332536 312.471312 
L 301.332536 4.608 
" clip-path="url(#pab8d7cadb3)" style="fill: none; stroke: #ffffff; stroke-width: 0.5; stroke-linecap: square"/>
     </g>
    </g>
   </g>
   <g id="matplotlib.axis_2">
    <g id="ytick_1">
     <g id="line2d_15">
      <path d="M 47.007938 298.720049 
L 349.448 298.720049 
" clip-path="url(#pab8d7cadb3)" style="fill: none; stroke: #ffffff; stroke-linecap: square"/>
     </g>
     <g id="line2d_16">
      <path d="M 47.007938 298.720049 
" style="fill: none; stroke: #333333; stroke-width: 1.5; stroke-linecap: square"/>
      <defs>
       <path id="m1b01651280" d="M 0 0 
L -2.75 0 
" style="stroke: #333333"/>
      </defs>
      <g>
       <use xlink:href="#m1b01651280" x="47.007938" y="298.720049" style="fill: #333333; stroke: #333333"/>
      </g>
     </g>
     <g id="text_6">
      <!-- 0 -->
      <g style="fill: #4d4d4d" transform="translate(36.658938 302.063361) scale(0.088 -0.088)">
       <defs>
        <path id="DejaVuSans-30" d="M 2034 4250 
Q 1547 4250 1301 3770 
Q 1056 3291 1056 2328 
Q 1056 1369 1301 889 
Q 1547 409 2034 409 
Q 2525 409 2770 889 
Q 3016 1369 3016 2328 
Q 3016 3291 2770 3770 
Q 2525 4250 2034 4250 
z
M 2034 4750 
Q 2819 4750 3233 4129 
Q 3647 3509 3647 2328 
Q 3647 1150 3233 529 
Q 2819 -91 2034 -91 
Q 1250 -91 836 529 
Q 422 1150 422 2328 
Q 422 3509 836 4129 
Q 1250 4750 2034 4750 
z
" transform="scale(0.015625)"/>
       </defs>
       <use xlink:href="#DejaVuSans-30"/>
      </g>
     </g>
    </g>
    <g id="ytick_2">
     <g id="line2d_17">
      <path d="M 47.007938 238.088391 
L 349.448 238.088391 
" clip-path="url(#pab8d7cadb3)" style="fill: none; stroke: #ffffff; stroke-linecap: square"/>
     </g>
     <g id="line2d_18">
      <path d="M 47.007938 238.088391 
" style="fill: none; stroke: #333333; stroke-width: 1.5; stroke-linecap: square"/>
      <g>
       <use xlink:href="#m1b01651280" x="47.007938" y="238.088391" style="fill: #333333; stroke: #333333"/>
      </g>
     </g>
     <g id="text_7">
      <!-- 500 -->
      <g style="fill: #4d4d4d" transform="translate(25.460938 241.431704) scale(0.088 -0.088)">
       <use xlink:href="#DejaVuSans-35"/>
       <use xlink:href="#DejaVuSans-30" x="63.623047"/>
       <use xlink:href="#DejaVuSans-30" x="127.246094"/>
      </g>
     </g>
    </g>
    <g id="ytick_3">
     <g id="line2d_19">
      <path d="M 47.007938 177.456733 
L 349.448 177.456733 
" clip-path="url(#pab8d7cadb3)" style="fill: none; stroke: #ffffff; stroke-linecap: square"/>
     </g>
     <g id="line2d_20">
      <path d="M 47.007938 177.456733 
" style="fill: none; stroke: #333333; stroke-width: 1.5; stroke-linecap: square"/>
      <g>
       <use xlink:href="#m1b01651280" x="47.007938" y="177.456733" style="fill: #333333; stroke: #333333"/>
      </g>
     </g>
     <g id="text_8">
      <!-- 1000 -->
      <g style="fill: #4d4d4d" transform="translate(19.861938 180.800046) scale(0.088 -0.088)">
       <use xlink:href="#DejaVuSans-31"/>
       <use xlink:href="#DejaVuSans-30" x="63.623047"/>
       <use xlink:href="#DejaVuSans-30" x="127.246094"/>
       <use xlink:href="#DejaVuSans-30" x="190.869141"/>
      </g>
     </g>
    </g>
    <g id="ytick_4">
     <g id="line2d_21">
      <path d="M 47.007938 116.825076 
L 349.448 116.825076 
" clip-path="url(#pab8d7cadb3)" style="fill: none; stroke: #ffffff; stroke-linecap: square"/>
     </g>
     <g id="line2d_22">
      <path d="M 47.007938 116.825076 
" style="fill: none; stroke: #333333; stroke-width: 1.5; stroke-linecap: square"/>
      <g>
       <use xlink:href="#m1b01651280" x="47.007938" y="116.825076" style="fill: #333333; stroke: #333333"/>
      </g>
     </g>
     <g id="text_9">
      <!-- 1500 -->
      <g style="fill: #4d4d4d" transform="translate(19.861938 120.168388) scale(0.088 -0.088)">
       <use xlink:href="#DejaVuSans-31"/>
       <use xlink:href="#DejaVuSans-35" x="63.623047"/>
       <use xlink:href="#DejaVuSans-30" x="127.246094"/>
       <use xlink:href="#DejaVuSans-30" x="190.869141"/>
      </g>
     </g>
    </g>
    <g id="ytick_5">
     <g id="line2d_23">
      <path d="M 47.007938 56.193418 
L 349.448 56.193418 
" clip-path="url(#pab8d7cadb3)" style="fill: none; stroke: #ffffff; stroke-linecap: square"/>
     </g>
     <g id="line2d_24">
      <path d="M 47.007938 56.193418 
" style="fill: none; stroke: #333333; stroke-width: 1.5; stroke-linecap: square"/>
      <g>
       <use xlink:href="#m1b01651280" x="47.007938" y="56.193418" style="fill: #333333; stroke: #333333"/>
      </g>
     </g>
     <g id="text_10">
      <!-- 2000 -->
      <g style="fill: #4d4d4d" transform="translate(19.861938 59.536731) scale(0.088 -0.088)">
       <use xlink:href="#DejaVuSans-32"/>
       <use xlink:href="#DejaVuSans-30" x="63.623047"/>
       <use xlink:href="#DejaVuSans-30" x="127.246094"/>
       <use xlink:href="#DejaVuSans-30" x="190.869141"/>
      </g>
     </g>
    </g>
    <g id="ytick_6">
     <g id="line2d_25">
      <path d="M 47.007938 268.40422 
L 349.448 268.40422 
" clip-path="url(#pab8d7cadb3)" style="fill: none; stroke: #ffffff; stroke-width: 0.5; stroke-linecap: square"/>
     </g>
    </g>
    <g id="ytick_7">
     <g id="line2d_26">
      <path d="M 47.007938 207.772562 
L 349.448 207.772562 
" clip-path="url(#pab8d7cadb3)" style="fill: none; stroke: #ffffff; stroke-width: 0.5; stroke-linecap: square"/>
     </g>
    </g>
    <g id="ytick_8">
     <g id="line2d_27">
      <path d="M 47.007938 147.140905 
L 349.448 147.140905 
" clip-path="url(#pab8d7cadb3)" style="fill: none; stroke: #ffffff; stroke-width: 0.5; stroke-linecap: square"/>
     </g>
    </g>
    <g id="ytick_9">
     <g id="line2d_28">
      <path d="M 47.007938 86.509247 
L 349.448 86.509247 
" clip-path="url(#pab8d7cadb3)" style="fill: none; stroke: #ffffff; stroke-width: 0.5; stroke-linecap: square"/>
     </g>
    </g>
    <g id="ytick_10">
     <g id="line2d_29">
      <path d="M 47.007938 25.877589 
L 349.448 25.877589 
" clip-path="url(#pab8d7cadb3)" style="fill: none; stroke: #ffffff; stroke-width: 0.5; stroke-linecap: square"/>
     </g>
    </g>
   </g>
   <g id="PathCollection_1">
    <path d="M 60.755213 300.249976 
C 61.225273 300.249976 61.676144 300.063219 62.008527 299.730836 
C 62.34091 299.398454 62.527667 298.947582 62.527667 298.477522 
C 62.527667 298.007462 62.34091 297.556591 62.008527 297.224208 
C 61.676144 296.891825 61.225273 296.705068 60.755213 296.705068 
C 60.285153 296.705068 59.834282 296.891825 59.501899 297.224208 
C 59.169516 297.556591 58.982759 298.007462 58.982759 298.477522 
C 58.982759 298.947582 59.169516 299.398454 59.501899 299.730836 
C 59.834282 300.063219 60.285153 300.249976 60.755213 300.249976 
z
" clip-path="url(#pab8d7cadb3)" style="fill: #db5f57; stroke: #db5f57; stroke-width: 0.886227"/>
    <path d="M 129.491591 299.764923 
C 129.961651 299.764923 130.412522 299.578166 130.744905 299.245783 
C 131.077288 298.9134 131.264045 298.462529 131.264045 297.992469 
C 131.264045 297.522409 131.077288 297.071538 130.744905 296.739155 
C 130.412522 296.406772 129.961651 296.220015 129.491591 296.220015 
C 129.021531 296.220015 128.57066 296.406772 128.238277 296.739155 
C 127.905894 297.071538 127.719137 297.522409 127.719137 297.992469 
C 127.719137 298.462529 127.905894 298.9134 128.238277 299.245783 
C 128.57066 299.578166 129.021531 299.764923 129.491591 299.764923 
z
" clip-path="url(#pab8d7cadb3)" style="fill: #db5f57; stroke: #db5f57; stroke-width: 0.886227"/>
    <path d="M 198.227969 296.854603 
C 198.698029 296.854603 199.1489 296.667846 199.481283 296.335464 
C 199.813666 296.003081 200.000423 295.55221 200.000423 295.082149 
C 200.000423 294.612089 199.813666 294.161218 199.481283 293.828835 
C 199.1489 293.496452 198.698029 293.309696 198.227969 293.309696 
C 197.757908 293.309696 197.307037 293.496452 196.974655 293.828835 
C 196.642272 294.161218 196.455515 294.612089 196.455515 295.082149 
C 196.455515 295.55221 196.642272 296.003081 196.974655 296.335464 
C 197.307037 296.667846 197.757908 296.854603 198.227969 296.854603 
z
" clip-path="url(#pab8d7cadb3)" style="fill: #db5f57; stroke: #db5f57; stroke-width: 0.886227"/>
    <path d="M 266.964347 275.027206 
C 267.434407 275.027206 267.885278 274.84045 268.217661 274.508067 
C 268.550044 274.175684 268.7368 273.724813 268.7368 273.254753 
C 268.7368 272.784692 268.550044 272.333821 268.217661 272.001438 
C 267.885278 271.669056 267.434407 271.482299 266.964347 271.482299 
C 266.494286 271.482299 266.043415 271.669056 265.711032 272.001438 
C 265.37865 272.333821 265.191893 272.784692 265.191893 273.254753 
C 265.191893 273.724813 265.37865 274.175684 265.711032 274.508067 
C 266.043415 274.84045 266.494286 275.027206 266.964347 275.027206 
z
" clip-path="url(#pab8d7cadb3)" style="fill: #db5f57; stroke: #db5f57; stroke-width: 0.886227"/>
    <path d="M 335.700724 20.374244 
C 336.170785 20.374244 336.621656 20.187487 336.954039 19.855104 
C 337.286421 19.522722 337.473178 19.071851 337.473178 18.60179 
C 337.473178 18.13173 337.286421 17.680859 336.954039 17.348476 
C 336.621656 17.016093 336.170785 16.829336 335.700724 16.829336 
C 335.230664 16.829336 334.779793 17.016093 334.44741 17.348476 
C 334.115028 17.680859 333.928271 18.13173 333.928271 18.60179 
C 333.928271 19.071851 334.115028 19.522722 334.44741 19.855104 
C 334.779793 20.187487 335.230664 20.374244 335.700724 20.374244 
z
" clip-path="url(#pab8d7cadb3)" style="fill: #db5f57; stroke: #db5f57; stroke-width: 0.886227"/>
    <path d="M 60.755213 299.401133 
C 61.225273 299.401133 61.676144 299.214376 62.008527 298.881993 
C 62.34091 298.54961 62.527667 298.098739 62.527667 297.628679 
C 62.527667 297.158619 62.34091 296.707748 62.008527 296.375365 
C 61.676144 296.042982 61.225273 295.856225 60.755213 295.856225 
C 60.285153 295.856225 59.834282 296.042982 59.501899 296.375365 
C 59.169516 296.707748 58.982759 297.158619 58.982759 297.628679 
C 58.982759 298.098739 59.169516 298.54961 59.501899 298.881993 
C 59.834282 299.214376 60.285153 299.401133 60.755213 299.401133 
z
" clip-path="url(#pab8d7cadb3)" style="fill: #57d3db; stroke: #57d3db; stroke-width: 0.886227"/>
    <path d="M 129.491591 297.46092 
C 129.961651 297.46092 130.412522 297.274163 130.744905 296.94178 
C 131.077288 296.609397 131.264045 296.158526 131.264045 295.688466 
C 131.264045 295.218406 131.077288 294.767535 130.744905 294.435152 
C 130.412522 294.102769 129.961651 293.916012 129.491591 293.916012 
C 129.021531 293.916012 128.57066 294.102769 128.238277 294.435152 
C 127.905894 294.767535 127.719137 295.218406 127.719137 295.688466 
C 127.719137 296.158526 127.905894 296.609397 128.238277 296.94178 
C 128.57066 297.274163 129.021531 297.46092 129.491591 297.46092 
z
" clip-path="url(#pab8d7cadb3)" style="fill: #57d3db; stroke: #57d3db; stroke-width: 0.886227"/>
    <path d="M 198.227969 294.5506 
C 198.698029 294.5506 199.1489 294.363843 199.481283 294.031461 
C 199.813666 293.699078 200.000423 293.248207 200.000423 292.778146 
C 200.000423 292.308086 199.813666 291.857215 199.481283 291.524832 
C 199.1489 291.192449 198.698029 291.005693 198.227969 291.005693 
C 197.757908 291.005693 197.307037 291.192449 196.974655 291.524832 
C 196.642272 291.857215 196.455515 292.308086 196.455515 292.778146 
C 196.455515 293.248207 196.642272 293.699078 196.974655 294.031461 
C 197.307037 294.363843 197.757908 294.5506 198.227969 294.5506 
z
" clip-path="url(#pab8d7cadb3)" style="fill: #57d3db; stroke: #57d3db; stroke-width: 0.886227"/>
    <path d="M 266.964347 285.819642 
C 267.434407 285.819642 267.885278 285.632885 268.217661 285.300502 
C 268.550044 284.968119 268.7368 284.517248 268.7368 284.047188 
C 268.7368 283.577127 268.550044 283.126256 268.217661 282.793874 
C 267.885278 282.461491 267.434407 282.274734 266.964347 282.274734 
C 266.494286 282.274734 266.043415 282.461491 265.711032 282.793874 
C 265.37865 283.126256 265.191893 283.577127 265.191893 284.047188 
C 265.191893 284.517248 265.37865 284.968119 265.711032 285.300502 
C 266.043415 285.632885 266.494286 285.819642 266.964347 285.819642 
z
" clip-path="url(#pab8d7cadb3)" style="fill: #57d3db; stroke: #57d3db; stroke-width: 0.886227"/>
    <path d="M 335.700724 279.999002 
C 336.170785 279.999002 336.621656 279.812245 336.954039 279.479863 
C 337.286421 279.14748 337.473178 278.696609 337.473178 278.226549 
C 337.473178 277.756488 337.286421 277.305617 336.954039 276.973234 
C 336.621656 276.640852 336.170785 276.454095 335.700724 276.454095 
C 335.230664 276.454095 334.779793 276.640852 334.44741 276.973234 
C 334.115028 277.305617 333.928271 277.756488 333.928271 278.226549 
C 333.928271 278.696609 334.115028 279.14748 334.44741 279.479863 
C 334.779793 279.812245 335.230664 279.999002 335.700724 279.999002 
z
" clip-path="url(#pab8d7cadb3)" style="fill: #57d3db; stroke: #57d3db; stroke-width: 0.886227"/>
   </g>
   <g id="PolyCollection_1">
    <path d="M 60.755213 298.477519 
L 60.755213 298.477526 
L 129.491591 297.992472 
L 198.227969 295.082153 
L 266.964347 273.254756 
L 335.700724 18.601794 
L 335.700724 18.601787 
L 335.700724 18.601787 
L 266.964347 273.254749 
L 198.227969 295.082146 
L 129.491591 297.992466 
L 60.755213 298.477519 
z
" clip-path="url(#pab8d7cadb3)" style="fill: #999999; fill-opacity: 0.4"/>
   </g>
   <g id="line2d_30">
    <path d="M 60.755213 298.477522 
L 129.491591 297.992469 
L 198.227969 295.082149 
L 266.964347 273.254753 
L 335.700724 18.60179 
" clip-path="url(#pab8d7cadb3)" style="fill: none; stroke: #db5f57; stroke-width: 1.772454; stroke-linejoin: miter"/>
   </g>
   <g id="PolyCollection_2">
    <path d="M 60.755213 297.628676 
L 60.755213 297.628682 
L 129.491591 295.688469 
L 198.227969 292.77815 
L 266.964347 284.047191 
L 335.700724 278.226552 
L 335.700724 278.226545 
L 335.700724 278.226545 
L 266.964347 284.047184 
L 198.227969 292.778143 
L 129.491591 295.688463 
L 60.755213 297.628676 
z
" clip-path="url(#pab8d7cadb3)" style="fill: #999999; fill-opacity: 0.4"/>
   </g>
   <g id="line2d_31">
    <path d="M 60.755213 297.628679 
L 129.491591 295.688466 
L 198.227969 292.778146 
L 266.964347 284.047188 
L 335.700724 278.226549 
" clip-path="url(#pab8d7cadb3)" style="fill: none; stroke: #57d3db; stroke-width: 1.772454; stroke-linejoin: miter"/>
   </g>
  </g>
  <g id="text_11">
   <!-- x -->
   <g transform="translate(194.972656 338.704344) scale(0.11 -0.11)">
    <defs>
     <path id="DejaVuSans-78" d="M 3513 3500 
L 2247 1797 
L 3578 0 
L 2900 0 
L 1881 1375 
L 863 0 
L 184 0 
L 1544 1831 
L 300 3500 
L 978 3500 
L 1906 2253 
L 2834 3500 
L 3513 3500 
z
" transform="scale(0.015625)"/>
    </defs>
    <use xlink:href="#DejaVuSans-78"/>
   </g>
  </g>
  <g id="text_12">
   <!-- y -->
   <g transform="translate(12.966281 161.794969) rotate(-90) scale(0.11 -0.11)">
    <defs>
     <path id="DejaVuSans-79" d="M 2059 -325 
Q 1816 -950 1584 -1140 
Q 1353 -1331 966 -1331 
L 506 -1331 
L 506 -850 
L 844 -850 
Q 1081 -850 1212 -737 
Q 1344 -625 1503 -206 
L 1606 56 
L 191 3500 
L 800 3500 
L 1894 763 
L 2988 3500 
L 3597 3500 
L 2059 -325 
z
" transform="scale(0.015625)"/>
    </defs>
    <use xlink:href="#DejaVuSans-79"/>
   </g>
  </g>
  <g id="patch_3">
   <path d="M 363.272 186.990625 
L 456.192 186.990625 
L 456.192 130.088687 
L 363.272 130.088687 
z
" style="fill: #ffffff"/>
  </g>
  <g id="text_13">
   <!-- Labels -->
   <g transform="translate(364.272 139.446969) scale(0.11 -0.11)">
    <defs>
     <path id="DejaVuSans-4c" d="M 628 4666 
L 1259 4666 
L 1259 531 
L 3531 531 
L 3531 0 
L 628 0 
L 628 4666 
z
" transform="scale(0.015625)"/>
     <path id="DejaVuSans-61" d="M 2194 1759 
Q 1497 1759 1228 1600 
Q 959 1441 959 1056 
Q 959 750 1161 570 
Q 1363 391 1709 391 
Q 2188 391 2477 730 
Q 2766 1069 2766 1631 
L 2766 1759 
L 2194 1759 
z
M 3341 1997 
L 3341 0 
L 2766 0 
L 2766 531 
Q 2569 213 2275 61 
Q 1981 -91 1556 -91 
Q 1019 -91 701 211 
Q 384 513 384 1019 
Q 384 1609 779 1909 
Q 1175 2209 1959 2209 
L 2766 2209 
L 2766 2266 
Q 2766 2663 2505 2880 
Q 2244 3097 1772 3097 
Q 1472 3097 1187 3025 
Q 903 2953 641 2809 
L 641 3341 
Q 956 3463 1253 3523 
Q 1550 3584 1831 3584 
Q 2591 3584 2966 3190 
Q 3341 2797 3341 1997 
z
" transform="scale(0.015625)"/>
     <path id="DejaVuSans-62" d="M 3116 1747 
Q 3116 2381 2855 2742 
Q 2594 3103 2138 3103 
Q 1681 3103 1420 2742 
Q 1159 2381 1159 1747 
Q 1159 1113 1420 752 
Q 1681 391 2138 391 
Q 2594 391 2855 752 
Q 3116 1113 3116 1747 
z
M 1159 2969 
Q 1341 3281 1617 3432 
Q 1894 3584 2278 3584 
Q 2916 3584 3314 3078 
Q 3713 2572 3713 1747 
Q 3713 922 3314 415 
Q 2916 -91 2278 -91 
Q 1894 -91 1617 61 
Q 1341 213 1159 525 
L 1159 0 
L 581 0 
L 581 4863 
L 1159 4863 
L 1159 2969 
z
" transform="scale(0.015625)"/>
     <path id="DejaVuSans-65" d="M 3597 1894 
L 3597 1613 
L 953 1613 
Q 991 1019 1311 708 
Q 1631 397 2203 397 
Q 2534 397 2845 478 
Q 3156 559 3463 722 
L 3463 178 
Q 3153 47 2828 -22 
Q 2503 -91 2169 -91 
Q 1331 -91 842 396 
Q 353 884 353 1716 
Q 353 2575 817 3079 
Q 1281 3584 2069 3584 
Q 2775 3584 3186 3129 
Q 3597 2675 3597 1894 
z
M 3022 2063 
Q 3016 2534 2758 2815 
Q 2500 3097 2075 3097 
Q 1594 3097 1305 2825 
Q 1016 2553 972 2059 
L 3022 2063 
z
" transform="scale(0.015625)"/>
     <path id="DejaVuSans-6c" d="M 603 4863 
L 1178 4863 
L 1178 0 
L 603 0 
L 603 4863 
z
" transform="scale(0.015625)"/>
     <path id="DejaVuSans-73" d="M 2834 3397 
L 2834 2853 
Q 2591 2978 2328 3040 
Q 2066 3103 1784 3103 
Q 1356 3103 1142 2972 
Q 928 2841 928 2578 
Q 928 2378 1081 2264 
Q 1234 2150 1697 2047 
L 1894 2003 
Q 2506 1872 2764 1633 
Q 3022 1394 3022 966 
Q 3022 478 2636 193 
Q 2250 -91 1575 -91 
Q 1294 -91 989 -36 
Q 684 19 347 128 
L 347 722 
Q 666 556 975 473 
Q 1284 391 1588 391 
Q 1994 391 2212 530 
Q 2431 669 2431 922 
Q 2431 1156 2273 1281 
Q 2116 1406 1581 1522 
L 1381 1569 
Q 847 1681 609 1914 
Q 372 2147 372 2553 
Q 372 3047 722 3315 
Q 1072 3584 1716 3584 
Q 2034 3584 2315 3537 
Q 2597 3491 2834 3397 
z
" transform="scale(0.015625)"/>
    </defs>
    <use xlink:href="#DejaVuSans-4c"/>
    <use xlink:href="#DejaVuSans-61" x="55.712891"/>
    <use xlink:href="#DejaVuSans-62" x="116.992188"/>
    <use xlink:href="#DejaVuSans-65" x="180.46875"/>
    <use xlink:href="#DejaVuSans-6c" x="241.992188"/>
    <use xlink:href="#DejaVuSans-73" x="269.775391"/>
   </g>
  </g>
  <g id="patch_4">
   <path d="M 364.272 164.014625 
L 380.112 164.014625 
L 380.112 148.174625 
L 364.272 148.174625 
z
" clip-path="url(#pfbff98efa5)" style="fill: #f2f2f2"/>
  </g>
  <g id="line2d_32">
   <path d="M 372.192 156.094625 
" clip-path="url(#pfbff98efa5)" style="fill: none; stroke: #1f77b4; stroke-width: 1.5; stroke-linecap: square"/>
   <defs>
    <path id="m658708e73d" d="M 0 1.772454 
C 0.47006 1.772454 0.920931 1.585697 1.253314 1.253314 
C 1.585697 0.920931 1.772454 0.47006 1.772454 0 
C 1.772454 -0.47006 1.585697 -0.920931 1.253314 -1.253314 
C 0.920931 -1.585697 0.47006 -1.772454 0 -1.772454 
C -0.47006 -1.772454 -0.920931 -1.585697 -1.253314 -1.253314 
C -1.585697 -0.920931 -1.772454 -0.47006 -1.772454 0 
C -1.772454 0.47006 -1.585697 0.920931 -1.253314 1.253314 
C -0.920931 1.585697 -0.47006 1.772454 0 1.772454 
z
" style="stroke: #db5f57; stroke-width: 0.886227"/>
   </defs>
   <g clip-path="url(#pfbff98efa5)">
    <use xlink:href="#m658708e73d" x="372.192" y="156.094625" style="fill: #db5f57; stroke: #db5f57; stroke-width: 0.886227"/>
   </g>
  </g>
  <g id="patch_5">
   <path d="M 364.272 160.054625 
L 380.112 160.054625 
L 380.112 152.134625 
L 364.272 152.134625 
z
" clip-path="url(#pfbff98efa5)" style="fill: #999999; fill-opacity: 0.4"/>
  </g>
  <g id="line2d_33">
   <path d="M 364.272 156.094625 
L 380.112 156.094625 
" clip-path="url(#pfbff98efa5)" style="fill: none; stroke: #db5f57; stroke-width: 1.772454"/>
  </g>
  <g id="text_14">
   <!-- Peremeter: $\prod_{i=1}^{k} {p_i} $ -->
   <g transform="translate(382.416 159.350625) scale(0.088 -0.088)">
    <defs>
     <path id="DejaVuSans-50" d="M 1259 4147 
L 1259 2394 
L 2053 2394 
Q 2494 2394 2734 2622 
Q 2975 2850 2975 3272 
Q 2975 3691 2734 3919 
Q 2494 4147 2053 4147 
L 1259 4147 
z
M 628 4666 
L 2053 4666 
Q 2838 4666 3239 4311 
Q 3641 3956 3641 3272 
Q 3641 2581 3239 2228 
Q 2838 1875 2053 1875 
L 1259 1875 
L 1259 0 
L 628 0 
L 628 4666 
z
" transform="scale(0.015625)"/>
     <path id="DejaVuSans-72" d="M 2631 2963 
Q 2534 3019 2420 3045 
Q 2306 3072 2169 3072 
Q 1681 3072 1420 2755 
Q 1159 2438 1159 1844 
L 1159 0 
L 581 0 
L 581 3500 
L 1159 3500 
L 1159 2956 
Q 1341 3275 1631 3429 
Q 1922 3584 2338 3584 
Q 2397 3584 2469 3576 
Q 2541 3569 2628 3553 
L 2631 2963 
z
" transform="scale(0.015625)"/>
     <path id="DejaVuSans-6d" d="M 3328 2828 
Q 3544 3216 3844 3400 
Q 4144 3584 4550 3584 
Q 5097 3584 5394 3201 
Q 5691 2819 5691 2113 
L 5691 0 
L 5113 0 
L 5113 2094 
Q 5113 2597 4934 2840 
Q 4756 3084 4391 3084 
Q 3944 3084 3684 2787 
Q 3425 2491 3425 1978 
L 3425 0 
L 2847 0 
L 2847 2094 
Q 2847 2600 2669 2842 
Q 2491 3084 2119 3084 
Q 1678 3084 1418 2786 
Q 1159 2488 1159 1978 
L 1159 0 
L 581 0 
L 581 3500 
L 1159 3500 
L 1159 2956 
Q 1356 3278 1631 3431 
Q 1906 3584 2284 3584 
Q 2666 3584 2933 3390 
Q 3200 3197 3328 2828 
z
" transform="scale(0.015625)"/>
     <path id="DejaVuSans-74" d="M 1172 4494 
L 1172 3500 
L 2356 3500 
L 2356 3053 
L 1172 3053 
L 1172 1153 
Q 1172 725 1289 603 
Q 1406 481 1766 481 
L 2356 481 
L 2356 0 
L 1766 0 
Q 1100 0 847 248 
Q 594 497 594 1153 
L 594 3053 
L 172 3053 
L 172 3500 
L 594 3500 
L 594 4494 
L 1172 4494 
z
" transform="scale(0.015625)"/>
     <path id="DejaVuSans-3a" d="M 750 794 
L 1409 794 
L 1409 0 
L 750 0 
L 750 794 
z
M 750 3309 
L 1409 3309 
L 1409 2516 
L 750 2516 
L 750 3309 
z
" transform="scale(0.015625)"/>
     <path id="DejaVuSans-20" transform="scale(0.015625)"/>
     <path id="DejaVuSans-Oblique-6b" d="M 1172 4863 
L 1747 4863 
L 1197 2028 
L 3169 3500 
L 3916 3500 
L 1716 1825 
L 3322 0 
L 2625 0 
L 1131 1709 
L 800 0 
L 225 0 
L 1172 4863 
z
" transform="scale(0.015625)"/>
     <path id="DejaVuSansDisplay-220f" d="M 691 6509 
L 6156 6509 
L 6156 -1738 
L 5097 -1738 
L 5097 5603 
L 1747 5603 
L 1747 -1738 
L 691 -1738 
L 691 6509 
z
" transform="scale(0.015625)"/>
     <path id="DejaVuSans-Oblique-69" d="M 1172 4863 
L 1747 4863 
L 1606 4134 
L 1031 4134 
L 1172 4863 
z
M 909 3500 
L 1484 3500 
L 800 0 
L 225 0 
L 909 3500 
z
" transform="scale(0.015625)"/>
     <path id="DejaVuSans-3d" d="M 678 2906 
L 4684 2906 
L 4684 2381 
L 678 2381 
L 678 2906 
z
M 678 1631 
L 4684 1631 
L 4684 1100 
L 678 1100 
L 678 1631 
z
" transform="scale(0.015625)"/>
     <path id="DejaVuSans-Oblique-70" d="M 3175 2156 
Q 3175 2616 2975 2859 
Q 2775 3103 2400 3103 
Q 2144 3103 1911 2972 
Q 1678 2841 1497 2591 
Q 1319 2344 1212 1994 
Q 1106 1644 1106 1300 
Q 1106 863 1306 627 
Q 1506 391 1875 391 
Q 2147 391 2380 519 
Q 2613 647 2778 891 
Q 2956 1147 3065 1494 
Q 3175 1841 3175 2156 
z
M 1394 2969 
Q 1625 3272 1939 3428 
Q 2253 3584 2638 3584 
Q 3175 3584 3472 3232 
Q 3769 2881 3769 2247 
Q 3769 1728 3584 1258 
Q 3400 788 3053 416 
Q 2822 169 2531 39 
Q 2241 -91 1919 -91 
Q 1547 -91 1294 64 
Q 1041 219 916 525 
L 556 -1331 
L -19 -1331 
L 922 3500 
L 1497 3500 
L 1394 2969 
z
" transform="scale(0.015625)"/>
    </defs>
    <use xlink:href="#DejaVuSans-50" transform="translate(0 0.357812)"/>
    <use xlink:href="#DejaVuSans-65" transform="translate(60.302734 0.357812)"/>
    <use xlink:href="#DejaVuSans-72" transform="translate(121.826172 0.357812)"/>
    <use xlink:href="#DejaVuSans-65" transform="translate(162.939453 0.357812)"/>
    <use xlink:href="#DejaVuSans-6d" transform="translate(224.462891 0.357812)"/>
    <use xlink:href="#DejaVuSans-65" transform="translate(321.875 0.357812)"/>
    <use xlink:href="#DejaVuSans-74" transform="translate(383.398438 0.357812)"/>
    <use xlink:href="#DejaVuSans-65" transform="translate(422.607422 0.357812)"/>
    <use xlink:href="#DejaVuSans-72" transform="translate(484.130859 0.357812)"/>
    <use xlink:href="#DejaVuSans-3a" transform="translate(525.244141 0.357812)"/>
    <use xlink:href="#DejaVuSans-20" transform="translate(558.935547 0.357812)"/>
    <use xlink:href="#DejaVuSans-Oblique-6b" transform="translate(645.722656 120.810937) scale(0.7)"/>
    <use xlink:href="#DejaVuSansDisplay-220f" transform="translate(622.722656 0.357812)"/>
    <use xlink:href="#DejaVuSans-Oblique-69" transform="translate(590.722656 -98.7375) scale(0.7)"/>
    <use xlink:href="#DejaVuSans-3d" transform="translate(623.808594 -98.7375) scale(0.7)"/>
    <use xlink:href="#DejaVuSans-31" transform="translate(696.098633 -98.7375) scale(0.7)"/>
    <use xlink:href="#DejaVuSans-Oblique-70" transform="translate(740.634766 0.357812)"/>
    <use xlink:href="#DejaVuSans-Oblique-69" transform="translate(804.111328 -16.048438) scale(0.7)"/>
   </g>
  </g>
  <g id="patch_6">
   <path d="M 364.272 185.990625 
L 380.112 185.990625 
L 380.112 170.150625 
L 364.272 170.150625 
z
" clip-path="url(#pec118512c7)" style="fill: #f2f2f2"/>
  </g>
  <g id="line2d_34">
   <path d="M 372.192 178.070625 
" clip-path="url(#pec118512c7)" style="fill: none; stroke: #1f77b4; stroke-width: 1.5; stroke-linecap: square"/>
   <defs>
    <path id="md1108ac8d7" d="M 0 1.772454 
C 0.47006 1.772454 0.920931 1.585697 1.253314 1.253314 
C 1.585697 0.920931 1.772454 0.47006 1.772454 0 
C 1.772454 -0.47006 1.585697 -0.920931 1.253314 -1.253314 
C 0.920931 -1.585697 0.47006 -1.772454 0 -1.772454 
C -0.47006 -1.772454 -0.920931 -1.585697 -1.253314 -1.253314 
C -1.585697 -0.920931 -1.772454 -0.47006 -1.772454 0 
C -1.772454 0.47006 -1.585697 0.920931 -1.253314 1.253314 
C -0.920931 1.585697 -0.47006 1.772454 0 1.772454 
z
" style="stroke: #57d3db; stroke-width: 0.886227"/>
   </defs>
   <g clip-path="url(#pec118512c7)">
    <use xlink:href="#md1108ac8d7" x="372.192" y="178.070625" style="fill: #57d3db; stroke: #57d3db; stroke-width: 0.886227"/>
   </g>
  </g>
  <g id="patch_7">
   <path d="M 364.272 182.030625 
L 380.112 182.030625 
L 380.112 174.110625 
L 364.272 174.110625 
z
" clip-path="url(#pec118512c7)" style="fill: #999999; fill-opacity: 0.4"/>
  </g>
  <g id="line2d_35">
   <path d="M 364.272 178.070625 
L 380.112 178.070625 
" clip-path="url(#pec118512c7)" style="fill: none; stroke: #57d3db; stroke-width: 1.772454"/>
  </g>
  <g id="text_15">
   <!-- Up Bound: $p_{k+1}^2$ -->
   <g transform="translate(382.416 180.842625) scale(0.088 -0.088)">
    <defs>
     <path id="DejaVuSans-55" d="M 556 4666 
L 1191 4666 
L 1191 1831 
Q 1191 1081 1462 751 
Q 1734 422 2344 422 
Q 2950 422 3222 751 
Q 3494 1081 3494 1831 
L 3494 4666 
L 4128 4666 
L 4128 1753 
Q 4128 841 3676 375 
Q 3225 -91 2344 -91 
Q 1459 -91 1007 375 
Q 556 841 556 1753 
L 556 4666 
z
" transform="scale(0.015625)"/>
     <path id="DejaVuSans-70" d="M 1159 525 
L 1159 -1331 
L 581 -1331 
L 581 3500 
L 1159 3500 
L 1159 2969 
Q 1341 3281 1617 3432 
Q 1894 3584 2278 3584 
Q 2916 3584 3314 3078 
Q 3713 2572 3713 1747 
Q 3713 922 3314 415 
Q 2916 -91 2278 -91 
Q 1894 -91 1617 61 
Q 1341 213 1159 525 
z
M 3116 1747 
Q 3116 2381 2855 2742 
Q 2594 3103 2138 3103 
Q 1681 3103 1420 2742 
Q 1159 2381 1159 1747 
Q 1159 1113 1420 752 
Q 1681 391 2138 391 
Q 2594 391 2855 752 
Q 3116 1113 3116 1747 
z
" transform="scale(0.015625)"/>
     <path id="DejaVuSans-42" d="M 1259 2228 
L 1259 519 
L 2272 519 
Q 2781 519 3026 730 
Q 3272 941 3272 1375 
Q 3272 1813 3026 2020 
Q 2781 2228 2272 2228 
L 1259 2228 
z
M 1259 4147 
L 1259 2741 
L 2194 2741 
Q 2656 2741 2882 2914 
Q 3109 3088 3109 3444 
Q 3109 3797 2882 3972 
Q 2656 4147 2194 4147 
L 1259 4147 
z
M 628 4666 
L 2241 4666 
Q 2963 4666 3353 4366 
Q 3744 4066 3744 3513 
Q 3744 3084 3544 2831 
Q 3344 2578 2956 2516 
Q 3422 2416 3680 2098 
Q 3938 1781 3938 1306 
Q 3938 681 3513 340 
Q 3088 0 2303 0 
L 628 0 
L 628 4666 
z
" transform="scale(0.015625)"/>
     <path id="DejaVuSans-6f" d="M 1959 3097 
Q 1497 3097 1228 2736 
Q 959 2375 959 1747 
Q 959 1119 1226 758 
Q 1494 397 1959 397 
Q 2419 397 2687 759 
Q 2956 1122 2956 1747 
Q 2956 2369 2687 2733 
Q 2419 3097 1959 3097 
z
M 1959 3584 
Q 2709 3584 3137 3096 
Q 3566 2609 3566 1747 
Q 3566 888 3137 398 
Q 2709 -91 1959 -91 
Q 1206 -91 779 398 
Q 353 888 353 1747 
Q 353 2609 779 3096 
Q 1206 3584 1959 3584 
z
" transform="scale(0.015625)"/>
     <path id="DejaVuSans-75" d="M 544 1381 
L 544 3500 
L 1119 3500 
L 1119 1403 
Q 1119 906 1312 657 
Q 1506 409 1894 409 
Q 2359 409 2629 706 
Q 2900 1003 2900 1516 
L 2900 3500 
L 3475 3500 
L 3475 0 
L 2900 0 
L 2900 538 
Q 2691 219 2414 64 
Q 2138 -91 1772 -91 
Q 1169 -91 856 284 
Q 544 659 544 1381 
z
M 1991 3584 
L 1991 3584 
z
" transform="scale(0.015625)"/>
     <path id="DejaVuSans-6e" d="M 3513 2113 
L 3513 0 
L 2938 0 
L 2938 2094 
Q 2938 2591 2744 2837 
Q 2550 3084 2163 3084 
Q 1697 3084 1428 2787 
Q 1159 2491 1159 1978 
L 1159 0 
L 581 0 
L 581 3500 
L 1159 3500 
L 1159 2956 
Q 1366 3272 1645 3428 
Q 1925 3584 2291 3584 
Q 2894 3584 3203 3211 
Q 3513 2838 3513 2113 
z
" transform="scale(0.015625)"/>
     <path id="DejaVuSans-64" d="M 2906 2969 
L 2906 4863 
L 3481 4863 
L 3481 0 
L 2906 0 
L 2906 525 
Q 2725 213 2448 61 
Q 2172 -91 1784 -91 
Q 1150 -91 751 415 
Q 353 922 353 1747 
Q 353 2572 751 3078 
Q 1150 3584 1784 3584 
Q 2172 3584 2448 3432 
Q 2725 3281 2906 2969 
z
M 947 1747 
Q 947 1113 1208 752 
Q 1469 391 1925 391 
Q 2381 391 2643 752 
Q 2906 1113 2906 1747 
Q 2906 2381 2643 2742 
Q 2381 3103 1925 3103 
Q 1469 3103 1208 2742 
Q 947 2381 947 1747 
z
" transform="scale(0.015625)"/>
     <path id="DejaVuSans-2b" d="M 2944 4013 
L 2944 2272 
L 4684 2272 
L 4684 1741 
L 2944 1741 
L 2944 0 
L 2419 0 
L 2419 1741 
L 678 1741 
L 678 2272 
L 2419 2272 
L 2419 4013 
L 2944 4013 
z
" transform="scale(0.015625)"/>
    </defs>
    <use xlink:href="#DejaVuSans-55" transform="translate(0 0.701562)"/>
    <use xlink:href="#DejaVuSans-70" transform="translate(73.193359 0.701562)"/>
    <use xlink:href="#DejaVuSans-20" transform="translate(136.669922 0.701562)"/>
    <use xlink:href="#DejaVuSans-42" transform="translate(168.457031 0.701562)"/>
    <use xlink:href="#DejaVuSans-6f" transform="translate(237.060547 0.701562)"/>
    <use xlink:href="#DejaVuSans-75" transform="translate(298.242188 0.701562)"/>
    <use xlink:href="#DejaVuSans-6e" transform="translate(361.621094 0.701562)"/>
    <use xlink:href="#DejaVuSans-64" transform="translate(425 0.701562)"/>
    <use xlink:href="#DejaVuSans-3a" transform="translate(488.476562 0.701562)"/>
    <use xlink:href="#DejaVuSans-20" transform="translate(522.167969 0.701562)"/>
    <use xlink:href="#DejaVuSans-Oblique-70" transform="translate(553.955078 0.701562)"/>
    <use xlink:href="#DejaVuSans-32" transform="translate(622.081536 39.046875) scale(0.7)"/>
    <use xlink:href="#DejaVuSans-Oblique-6b" transform="translate(617.431641 -26.642188) scale(0.7)"/>
    <use xlink:href="#DejaVuSans-2b" transform="translate(671.606445 -26.642188) scale(0.7)"/>
    <use xlink:href="#DejaVuSans-31" transform="translate(743.896484 -26.642188) scale(0.7)"/>
   </g>
  </g>
 </g>
 <defs>
  <clipPath id="pab8d7cadb3">
   <rect x="47.007938" y="4.608" width="302.440062" height="307.863312"/>
  </clipPath>
  <clipPath id="pfbff98efa5">
   <path d="M 364.272 164.014625 
L 364.272 148.174625 
L 380.112 148.174625 
L 380.112 164.014625 
"/>
  </clipPath>
  <clipPath id="pec118512c7">
   <path d="M 364.272 185.990625 
L 364.272 170.150625 
L 380.112 170.150625 
L 380.112 185.990625 
"/>
  </clipPath>
 </defs>
</svg>
