<?xml version="1.0" encoding="utf-8" standalone="no"?>
<!DOCTYPE svg PUBLIC "-//W3C//DTD SVG 1.1//EN"
  "http://www.w3.org/Graphics/SVG/1.1/DTD/svg11.dtd">
<svg xmlns:xlink="http://www.w3.org/1999/xlink" width="460.8pt" height="345.6pt" viewBox="0 0 460.8 345.6" xmlns="http://www.w3.org/2000/svg" version="1.1">
 <metadata>
  <rdf:RDF xmlns:dc="http://purl.org/dc/elements/1.1/" xmlns:cc="http://creativecommons.org/ns#" xmlns:rdf="http://www.w3.org/1999/02/22-rdf-syntax-ns#">
   <cc:Work>
    <dc:type rdf:resource="http://purl.org/dc/dcmitype/StillImage"/>
    <dc:date>2024-09-18T11:27:35.839749</dc:date>
    <dc:format>image/svg+xml</dc:format>
    <dc:creator>
     <cc:Agent>
      <dc:title>Matplotlib v3.9.2, https://matplotlib.org/</dc:title>
     </cc:Agent>
    </dc:creator>
   </cc:Work>
  </rdf:RDF>
 </metadata>
 <defs>
  <style type="text/css">*{stroke-linejoin: round; stroke-linecap: butt}</style>
 </defs>
 <g id="figure_1">
  <g id="patch_1">
   <path d="M 0 345.6 
L 460.8 345.6 
L 460.8 0 
L 0 0 
z
" style="fill: #ffffff; stroke: #ffffff; stroke-linejoin: miter"/>
  </g>
  <g id="axes_1">
   <g id="patch_2">
    <path d="M 38.606688 312.471312 
L 322.485625 312.471312 
L 322.485625 5.116903 
L 38.606688 5.116903 
z
" style="fill: #ebebeb"/>
   </g>
   <g id="matplotlib.axis_1">
    <g id="xtick_1">
     <g id="line2d_1">
      <path d="M 42.611249 312.471312 
L 42.611249 5.116903 
" clip-path="url(#pc3e9255730)" style="fill: none; stroke: #ffffff; stroke-linecap: square"/>
     </g>
     <g id="line2d_2">
      <path d="M 42.611249 312.471312 
" style="fill: none; stroke: #333333; stroke-width: 1.5; stroke-linecap: square"/>
      <defs>
       <path id="m07c311a994" d="M 0 0 
L 0 2.75 
" style="stroke: #333333"/>
      </defs>
      <g>
       <use xlink:href="#m07c311a994" x="42.611249" y="312.471312" style="fill: #333333; stroke: #333333"/>
      </g>
     </g>
     <g id="text_1">
      <!-- 0 -->
      <g style="fill: #4d4d4d" transform="translate(39.811749 323.907938) scale(0.088 -0.088)">
       <defs>
        <path id="DejaVuSans-30" d="M 2034 4250 
Q 1547 4250 1301 3770 
Q 1056 3291 1056 2328 
Q 1056 1369 1301 889 
Q 1547 409 2034 409 
Q 2525 409 2770 889 
Q 3016 1369 3016 2328 
Q 3016 3291 2770 3770 
Q 2525 4250 2034 4250 
z
M 2034 4750 
Q 2819 4750 3233 4129 
Q 3647 3509 3647 2328 
Q 3647 1150 3233 529 
Q 2819 -91 2034 -91 
Q 1250 -91 836 529 
Q 422 1150 422 2328 
Q 422 3509 836 4129 
Q 1250 4750 2034 4750 
z
" transform="scale(0.015625)"/>
       </defs>
       <use xlink:href="#DejaVuSans-30"/>
      </g>
     </g>
    </g>
    <g id="xtick_2">
     <g id="line2d_3">
      <path d="M 131.601512 312.471312 
L 131.601512 5.116903 
" clip-path="url(#pc3e9255730)" style="fill: none; stroke: #ffffff; stroke-linecap: square"/>
     </g>
     <g id="line2d_4">
      <path d="M 131.601512 312.471312 
" style="fill: none; stroke: #333333; stroke-width: 1.5; stroke-linecap: square"/>
      <g>
       <use xlink:href="#m07c311a994" x="131.601512" y="312.471312" style="fill: #333333; stroke: #333333"/>
      </g>
     </g>
     <g id="text_2">
      <!-- 10 -->
      <g style="fill: #4d4d4d" transform="translate(126.002512 323.907938) scale(0.088 -0.088)">
       <defs>
        <path id="DejaVuSans-31" d="M 794 531 
L 1825 531 
L 1825 4091 
L 703 3866 
L 703 4441 
L 1819 4666 
L 2450 4666 
L 2450 531 
L 3481 531 
L 3481 0 
L 794 0 
L 794 531 
z
" transform="scale(0.015625)"/>
       </defs>
       <use xlink:href="#DejaVuSans-31"/>
       <use xlink:href="#DejaVuSans-30" x="63.623047"/>
      </g>
     </g>
    </g>
    <g id="xtick_3">
     <g id="line2d_5">
      <path d="M 220.591774 312.471312 
L 220.591774 5.116903 
" clip-path="url(#pc3e9255730)" style="fill: none; stroke: #ffffff; stroke-linecap: square"/>
     </g>
     <g id="line2d_6">
      <path d="M 220.591774 312.471312 
" style="fill: none; stroke: #333333; stroke-width: 1.5; stroke-linecap: square"/>
      <g>
       <use xlink:href="#m07c311a994" x="220.591774" y="312.471312" style="fill: #333333; stroke: #333333"/>
      </g>
     </g>
     <g id="text_3">
      <!-- 20 -->
      <g style="fill: #4d4d4d" transform="translate(214.992774 323.907938) scale(0.088 -0.088)">
       <defs>
        <path id="DejaVuSans-32" d="M 1228 531 
L 3431 531 
L 3431 0 
L 469 0 
L 469 531 
Q 828 903 1448 1529 
Q 2069 2156 2228 2338 
Q 2531 2678 2651 2914 
Q 2772 3150 2772 3378 
Q 2772 3750 2511 3984 
Q 2250 4219 1831 4219 
Q 1534 4219 1204 4116 
Q 875 4013 500 3803 
L 500 4441 
Q 881 4594 1212 4672 
Q 1544 4750 1819 4750 
Q 2544 4750 2975 4387 
Q 3406 4025 3406 3419 
Q 3406 3131 3298 2873 
Q 3191 2616 2906 2266 
Q 2828 2175 2409 1742 
Q 1991 1309 1228 531 
z
" transform="scale(0.015625)"/>
       </defs>
       <use xlink:href="#DejaVuSans-32"/>
       <use xlink:href="#DejaVuSans-30" x="63.623047"/>
      </g>
     </g>
    </g>
    <g id="xtick_4">
     <g id="line2d_7">
      <path d="M 309.582037 312.471312 
L 309.582037 5.116903 
" clip-path="url(#pc3e9255730)" style="fill: none; stroke: #ffffff; stroke-linecap: square"/>
     </g>
     <g id="line2d_8">
      <path d="M 309.582037 312.471312 
" style="fill: none; stroke: #333333; stroke-width: 1.5; stroke-linecap: square"/>
      <g>
       <use xlink:href="#m07c311a994" x="309.582037" y="312.471312" style="fill: #333333; stroke: #333333"/>
      </g>
     </g>
     <g id="text_4">
      <!-- 30 -->
      <g style="fill: #4d4d4d" transform="translate(303.983037 323.907938) scale(0.088 -0.088)">
       <defs>
        <path id="DejaVuSans-33" d="M 2597 2516 
Q 3050 2419 3304 2112 
Q 3559 1806 3559 1356 
Q 3559 666 3084 287 
Q 2609 -91 1734 -91 
Q 1441 -91 1130 -33 
Q 819 25 488 141 
L 488 750 
Q 750 597 1062 519 
Q 1375 441 1716 441 
Q 2309 441 2620 675 
Q 2931 909 2931 1356 
Q 2931 1769 2642 2001 
Q 2353 2234 1838 2234 
L 1294 2234 
L 1294 2753 
L 1863 2753 
Q 2328 2753 2575 2939 
Q 2822 3125 2822 3475 
Q 2822 3834 2567 4026 
Q 2313 4219 1838 4219 
Q 1578 4219 1281 4162 
Q 984 4106 628 3988 
L 628 4550 
Q 988 4650 1302 4700 
Q 1616 4750 1894 4750 
Q 2613 4750 3031 4423 
Q 3450 4097 3450 3541 
Q 3450 3153 3228 2886 
Q 3006 2619 2597 2516 
z
" transform="scale(0.015625)"/>
       </defs>
       <use xlink:href="#DejaVuSans-33"/>
       <use xlink:href="#DejaVuSans-30" x="63.623047"/>
      </g>
     </g>
    </g>
    <g id="xtick_5">
     <g id="line2d_9">
      <path d="M 87.106381 312.471312 
L 87.106381 5.116903 
" clip-path="url(#pc3e9255730)" style="fill: none; stroke: #ffffff; stroke-width: 0.5; stroke-linecap: square"/>
     </g>
    </g>
    <g id="xtick_6">
     <g id="line2d_10">
      <path d="M 176.096643 312.471312 
L 176.096643 5.116903 
" clip-path="url(#pc3e9255730)" style="fill: none; stroke: #ffffff; stroke-width: 0.5; stroke-linecap: square"/>
     </g>
    </g>
    <g id="xtick_7">
     <g id="line2d_11">
      <path d="M 265.086906 312.471312 
L 265.086906 5.116903 
" clip-path="url(#pc3e9255730)" style="fill: none; stroke: #ffffff; stroke-width: 0.5; stroke-linecap: square"/>
     </g>
    </g>
   </g>
   <g id="matplotlib.axis_2">
    <g id="ytick_1">
     <g id="line2d_12">
      <path d="M 38.606688 298.485825 
L 322.485625 298.485825 
" clip-path="url(#pc3e9255730)" style="fill: none; stroke: #ffffff; stroke-linecap: square"/>
     </g>
     <g id="line2d_13">
      <path d="M 38.606688 298.485825 
" style="fill: none; stroke: #333333; stroke-width: 1.5; stroke-linecap: square"/>
      <defs>
       <path id="m6dd9c558a2" d="M 0 0 
L -2.75 0 
" style="stroke: #333333"/>
      </defs>
      <g>
       <use xlink:href="#m6dd9c558a2" x="38.606688" y="298.485825" style="fill: #333333; stroke: #333333"/>
      </g>
     </g>
     <g id="text_5">
      <!-- 0.5 -->
      <g style="fill: #4d4d4d" transform="translate(19.861938 301.829137) scale(0.088 -0.088)">
       <defs>
        <path id="DejaVuSans-2e" d="M 684 794 
L 1344 794 
L 1344 0 
L 684 0 
L 684 794 
z
" transform="scale(0.015625)"/>
        <path id="DejaVuSans-35" d="M 691 4666 
L 3169 4666 
L 3169 4134 
L 1269 4134 
L 1269 2991 
Q 1406 3038 1543 3061 
Q 1681 3084 1819 3084 
Q 2600 3084 3056 2656 
Q 3513 2228 3513 1497 
Q 3513 744 3044 326 
Q 2575 -91 1722 -91 
Q 1428 -91 1123 -41 
Q 819 9 494 109 
L 494 744 
Q 775 591 1075 516 
Q 1375 441 1709 441 
Q 2250 441 2565 725 
Q 2881 1009 2881 1497 
Q 2881 1984 2565 2268 
Q 2250 2553 1709 2553 
Q 1456 2553 1204 2497 
Q 953 2441 691 2322 
L 691 4666 
z
" transform="scale(0.015625)"/>
       </defs>
       <use xlink:href="#DejaVuSans-30"/>
       <use xlink:href="#DejaVuSans-2e" x="63.623047"/>
       <use xlink:href="#DejaVuSans-35" x="95.410156"/>
      </g>
     </g>
    </g>
    <g id="ytick_2">
     <g id="line2d_14">
      <path d="M 38.606688 225.962017 
L 322.485625 225.962017 
" clip-path="url(#pc3e9255730)" style="fill: none; stroke: #ffffff; stroke-linecap: square"/>
     </g>
     <g id="line2d_15">
      <path d="M 38.606688 225.962017 
" style="fill: none; stroke: #333333; stroke-width: 1.5; stroke-linecap: square"/>
      <g>
       <use xlink:href="#m6dd9c558a2" x="38.606688" y="225.962017" style="fill: #333333; stroke: #333333"/>
      </g>
     </g>
     <g id="text_6">
      <!-- 0.6 -->
      <g style="fill: #4d4d4d" transform="translate(19.861938 229.305329) scale(0.088 -0.088)">
       <defs>
        <path id="DejaVuSans-36" d="M 2113 2584 
Q 1688 2584 1439 2293 
Q 1191 2003 1191 1497 
Q 1191 994 1439 701 
Q 1688 409 2113 409 
Q 2538 409 2786 701 
Q 3034 994 3034 1497 
Q 3034 2003 2786 2293 
Q 2538 2584 2113 2584 
z
M 3366 4563 
L 3366 3988 
Q 3128 4100 2886 4159 
Q 2644 4219 2406 4219 
Q 1781 4219 1451 3797 
Q 1122 3375 1075 2522 
Q 1259 2794 1537 2939 
Q 1816 3084 2150 3084 
Q 2853 3084 3261 2657 
Q 3669 2231 3669 1497 
Q 3669 778 3244 343 
Q 2819 -91 2113 -91 
Q 1303 -91 875 529 
Q 447 1150 447 2328 
Q 447 3434 972 4092 
Q 1497 4750 2381 4750 
Q 2619 4750 2861 4703 
Q 3103 4656 3366 4563 
z
" transform="scale(0.015625)"/>
       </defs>
       <use xlink:href="#DejaVuSans-30"/>
       <use xlink:href="#DejaVuSans-2e" x="63.623047"/>
       <use xlink:href="#DejaVuSans-36" x="95.410156"/>
      </g>
     </g>
    </g>
    <g id="ytick_3">
     <g id="line2d_16">
      <path d="M 38.606688 153.438209 
L 322.485625 153.438209 
" clip-path="url(#pc3e9255730)" style="fill: none; stroke: #ffffff; stroke-linecap: square"/>
     </g>
     <g id="line2d_17">
      <path d="M 38.606688 153.438209 
" style="fill: none; stroke: #333333; stroke-width: 1.5; stroke-linecap: square"/>
      <g>
       <use xlink:href="#m6dd9c558a2" x="38.606688" y="153.438209" style="fill: #333333; stroke: #333333"/>
      </g>
     </g>
     <g id="text_7">
      <!-- 0.7 -->
      <g style="fill: #4d4d4d" transform="translate(19.861938 156.781522) scale(0.088 -0.088)">
       <defs>
        <path id="DejaVuSans-37" d="M 525 4666 
L 3525 4666 
L 3525 4397 
L 1831 0 
L 1172 0 
L 2766 4134 
L 525 4134 
L 525 4666 
z
" transform="scale(0.015625)"/>
       </defs>
       <use xlink:href="#DejaVuSans-30"/>
       <use xlink:href="#DejaVuSans-2e" x="63.623047"/>
       <use xlink:href="#DejaVuSans-37" x="95.410156"/>
      </g>
     </g>
    </g>
    <g id="ytick_4">
     <g id="line2d_18">
      <path d="M 38.606688 80.914401 
L 322.485625 80.914401 
" clip-path="url(#pc3e9255730)" style="fill: none; stroke: #ffffff; stroke-linecap: square"/>
     </g>
     <g id="line2d_19">
      <path d="M 38.606688 80.914401 
" style="fill: none; stroke: #333333; stroke-width: 1.5; stroke-linecap: square"/>
      <g>
       <use xlink:href="#m6dd9c558a2" x="38.606688" y="80.914401" style="fill: #333333; stroke: #333333"/>
      </g>
     </g>
     <g id="text_8">
      <!-- 0.8 -->
      <g style="fill: #4d4d4d" transform="translate(19.861938 84.257714) scale(0.088 -0.088)">
       <defs>
        <path id="DejaVuSans-38" d="M 2034 2216 
Q 1584 2216 1326 1975 
Q 1069 1734 1069 1313 
Q 1069 891 1326 650 
Q 1584 409 2034 409 
Q 2484 409 2743 651 
Q 3003 894 3003 1313 
Q 3003 1734 2745 1975 
Q 2488 2216 2034 2216 
z
M 1403 2484 
Q 997 2584 770 2862 
Q 544 3141 544 3541 
Q 544 4100 942 4425 
Q 1341 4750 2034 4750 
Q 2731 4750 3128 4425 
Q 3525 4100 3525 3541 
Q 3525 3141 3298 2862 
Q 3072 2584 2669 2484 
Q 3125 2378 3379 2068 
Q 3634 1759 3634 1313 
Q 3634 634 3220 271 
Q 2806 -91 2034 -91 
Q 1263 -91 848 271 
Q 434 634 434 1313 
Q 434 1759 690 2068 
Q 947 2378 1403 2484 
z
M 1172 3481 
Q 1172 3119 1398 2916 
Q 1625 2713 2034 2713 
Q 2441 2713 2670 2916 
Q 2900 3119 2900 3481 
Q 2900 3844 2670 4047 
Q 2441 4250 2034 4250 
Q 1625 4250 1398 4047 
Q 1172 3844 1172 3481 
z
" transform="scale(0.015625)"/>
       </defs>
       <use xlink:href="#DejaVuSans-30"/>
       <use xlink:href="#DejaVuSans-2e" x="63.623047"/>
       <use xlink:href="#DejaVuSans-38" x="95.410156"/>
      </g>
     </g>
    </g>
    <g id="ytick_5">
     <g id="line2d_20">
      <path d="M 38.606688 8.390593 
L 322.485625 8.390593 
" clip-path="url(#pc3e9255730)" style="fill: none; stroke: #ffffff; stroke-linecap: square"/>
     </g>
     <g id="line2d_21">
      <path d="M 38.606688 8.390593 
" style="fill: none; stroke: #333333; stroke-width: 1.5; stroke-linecap: square"/>
      <g>
       <use xlink:href="#m6dd9c558a2" x="38.606688" y="8.390593" style="fill: #333333; stroke: #333333"/>
      </g>
     </g>
     <g id="text_9">
      <!-- 0.9 -->
      <g style="fill: #4d4d4d" transform="translate(19.861938 11.733906) scale(0.088 -0.088)">
       <defs>
        <path id="DejaVuSans-39" d="M 703 97 
L 703 672 
Q 941 559 1184 500 
Q 1428 441 1663 441 
Q 2288 441 2617 861 
Q 2947 1281 2994 2138 
Q 2813 1869 2534 1725 
Q 2256 1581 1919 1581 
Q 1219 1581 811 2004 
Q 403 2428 403 3163 
Q 403 3881 828 4315 
Q 1253 4750 1959 4750 
Q 2769 4750 3195 4129 
Q 3622 3509 3622 2328 
Q 3622 1225 3098 567 
Q 2575 -91 1691 -91 
Q 1453 -91 1209 -44 
Q 966 3 703 97 
z
M 1959 2075 
Q 2384 2075 2632 2365 
Q 2881 2656 2881 3163 
Q 2881 3666 2632 3958 
Q 2384 4250 1959 4250 
Q 1534 4250 1286 3958 
Q 1038 3666 1038 3163 
Q 1038 2656 1286 2365 
Q 1534 2075 1959 2075 
z
" transform="scale(0.015625)"/>
       </defs>
       <use xlink:href="#DejaVuSans-30"/>
       <use xlink:href="#DejaVuSans-2e" x="63.623047"/>
       <use xlink:href="#DejaVuSans-39" x="95.410156"/>
      </g>
     </g>
    </g>
    <g id="ytick_6">
     <g id="line2d_22">
      <path d="M 38.606688 262.223921 
L 322.485625 262.223921 
" clip-path="url(#pc3e9255730)" style="fill: none; stroke: #ffffff; stroke-width: 0.5; stroke-linecap: square"/>
     </g>
    </g>
    <g id="ytick_7">
     <g id="line2d_23">
      <path d="M 38.606688 189.700113 
L 322.485625 189.700113 
" clip-path="url(#pc3e9255730)" style="fill: none; stroke: #ffffff; stroke-width: 0.5; stroke-linecap: square"/>
     </g>
    </g>
    <g id="ytick_8">
     <g id="line2d_24">
      <path d="M 38.606688 117.176305 
L 322.485625 117.176305 
" clip-path="url(#pc3e9255730)" style="fill: none; stroke: #ffffff; stroke-width: 0.5; stroke-linecap: square"/>
     </g>
    </g>
    <g id="ytick_9">
     <g id="line2d_25">
      <path d="M 38.606688 44.652497 
L 322.485625 44.652497 
" clip-path="url(#pc3e9255730)" style="fill: none; stroke: #ffffff; stroke-width: 0.5; stroke-linecap: square"/>
     </g>
    </g>
   </g>
   <g id="PathCollection_1">
    <path d="M 51.510276 300.258279 
C 51.980336 300.258279 52.431207 300.071522 52.76359 299.739139 
C 53.095972 299.406756 53.282729 298.955885 53.282729 298.485825 
C 53.282729 298.015764 53.095972 297.564893 52.76359 297.232511 
C 52.431207 296.900128 51.980336 296.713371 51.510276 296.713371 
C 51.040215 296.713371 50.589344 296.900128 50.256961 297.232511 
C 49.924579 297.564893 49.737822 298.015764 49.737822 298.485825 
C 49.737822 298.955885 49.924579 299.406756 50.256961 299.739139 
C 50.589344 300.071522 51.040215 300.258279 51.510276 300.258279 
z
" clip-path="url(#pc3e9255730)" style="fill: #db5f57; stroke: #db5f57; stroke-width: 0.886227"/>
    <path d="M 60.409302 179.385265 
C 60.879362 179.385265 61.330233 179.198509 61.662616 178.866126 
C 61.994999 178.533743 62.181756 178.082872 62.181756 177.612812 
C 62.181756 177.142751 61.994999 176.69188 61.662616 176.359497 
C 61.330233 176.027115 60.879362 175.840358 60.409302 175.840358 
C 59.939242 175.840358 59.48837 176.027115 59.155988 176.359497 
C 58.823605 176.69188 58.636848 177.142751 58.636848 177.612812 
C 58.636848 178.082872 58.823605 178.533743 59.155988 178.866126 
C 59.48837 179.198509 59.939242 179.385265 60.409302 179.385265 
z
" clip-path="url(#pc3e9255730)" style="fill: #db5f57; stroke: #db5f57; stroke-width: 0.886227"/>
    <path d="M 69.308328 131.03606 
C 69.778388 131.03606 70.229259 130.849303 70.561642 130.516921 
C 70.894025 130.184538 71.080782 129.733667 71.080782 129.263606 
C 71.080782 128.793546 70.894025 128.342675 70.561642 128.010292 
C 70.229259 127.677909 69.778388 127.491153 69.308328 127.491153 
C 68.838268 127.491153 68.387397 127.677909 68.055014 128.010292 
C 67.722631 128.342675 67.535874 128.793546 67.535874 129.263606 
C 67.535874 129.733667 67.722631 130.184538 68.055014 130.516921 
C 68.387397 130.849303 68.838268 131.03606 69.308328 131.03606 
z
" clip-path="url(#pc3e9255730)" style="fill: #db5f57; stroke: #db5f57; stroke-width: 0.886227"/>
    <path d="M 78.207354 103.407943 
C 78.677415 103.407943 79.128286 103.221186 79.460668 102.888803 
C 79.793051 102.55642 79.979808 102.105549 79.979808 101.635489 
C 79.979808 101.165429 79.793051 100.714558 79.460668 100.382175 
C 79.128286 100.049792 78.677415 99.863035 78.207354 99.863035 
C 77.737294 99.863035 77.286423 100.049792 76.95404 100.382175 
C 76.621657 100.714558 76.4349 101.165429 76.4349 101.635489 
C 76.4349 102.105549 76.621657 102.55642 76.95404 102.888803 
C 77.286423 103.221186 77.737294 103.407943 78.207354 103.407943 
z
" clip-path="url(#pc3e9255730)" style="fill: #db5f57; stroke: #db5f57; stroke-width: 0.886227"/>
    <path d="M 87.106381 88.338061 
C 87.576441 88.338061 88.027312 88.151304 88.359695 87.818921 
C 88.692078 87.486538 88.878834 87.035667 88.878834 86.565607 
C 88.878834 86.095547 88.692078 85.644676 88.359695 85.312293 
C 88.027312 84.97991 87.576441 84.793153 87.106381 84.793153 
C 86.63632 84.793153 86.185449 84.97991 85.853066 85.312293 
C 85.520684 85.644676 85.333927 86.095547 85.333927 86.565607 
C 85.333927 87.035667 85.520684 87.486538 85.853066 87.818921 
C 86.185449 88.151304 86.63632 88.338061 87.106381 88.338061 
z
" clip-path="url(#pc3e9255730)" style="fill: #db5f57; stroke: #db5f57; stroke-width: 0.886227"/>
    <path d="M 96.005407 76.745844 
C 96.475467 76.745844 96.926338 76.559087 97.258721 76.226704 
C 97.591104 75.894321 97.777861 75.44345 97.777861 74.97339 
C 97.777861 74.50333 97.591104 74.052459 97.258721 73.720076 
C 96.926338 73.387693 96.475467 73.200936 96.005407 73.200936 
C 95.535347 73.200936 95.084475 73.387693 94.752093 73.720076 
C 94.41971 74.052459 94.232953 74.50333 94.232953 74.97339 
C 94.232953 75.44345 94.41971 75.894321 94.752093 76.226704 
C 95.084475 76.559087 95.535347 76.745844 96.005407 76.745844 
z
" clip-path="url(#pc3e9255730)" style="fill: #db5f57; stroke: #db5f57; stroke-width: 0.886227"/>
    <path d="M 104.904433 68.563102 
C 105.374493 68.563102 105.825364 68.376345 106.157747 68.043963 
C 106.49013 67.71158 106.676887 67.260709 106.676887 66.790648 
C 106.676887 66.320588 106.49013 65.869717 106.157747 65.537334 
C 105.825364 65.204952 105.374493 65.018195 104.904433 65.018195 
C 104.434373 65.018195 103.983502 65.204952 103.651119 65.537334 
C 103.318736 65.869717 103.131979 66.320588 103.131979 66.790648 
C 103.131979 67.260709 103.318736 67.71158 103.651119 68.043963 
C 103.983502 68.376345 104.434373 68.563102 104.904433 68.563102 
z
" clip-path="url(#pc3e9255730)" style="fill: #db5f57; stroke: #db5f57; stroke-width: 0.886227"/>
    <path d="M 113.803459 61.672373 
C 114.27352 61.672373 114.724391 61.485616 115.056773 61.153233 
C 115.389156 60.82085 115.575913 60.369979 115.575913 59.899919 
C 115.575913 59.429859 115.389156 58.978988 115.056773 58.646605 
C 114.724391 58.314222 114.27352 58.127465 113.803459 58.127465 
C 113.333399 58.127465 112.882528 58.314222 112.550145 58.646605 
C 112.217762 58.978988 112.031005 59.429859 112.031005 59.899919 
C 112.031005 60.369979 112.217762 60.82085 112.550145 61.153233 
C 112.882528 61.485616 113.333399 61.672373 113.803459 61.672373 
z
" clip-path="url(#pc3e9255730)" style="fill: #db5f57; stroke: #db5f57; stroke-width: 0.886227"/>
    <path d="M 122.702486 56.279628 
C 123.172546 56.279628 123.623417 56.092871 123.9558 55.760488 
C 124.288183 55.428105 124.474939 54.977234 124.474939 54.507174 
C 124.474939 54.037114 124.288183 53.586243 123.9558 53.25386 
C 123.623417 52.921477 123.172546 52.73472 122.702486 52.73472 
C 122.232425 52.73472 121.781554 52.921477 121.449171 53.25386 
C 121.116789 53.586243 120.930032 54.037114 120.930032 54.507174 
C 120.930032 54.977234 121.116789 55.428105 121.449171 55.760488 
C 121.781554 56.092871 122.232425 56.279628 122.702486 56.279628 
z
" clip-path="url(#pc3e9255730)" style="fill: #db5f57; stroke: #db5f57; stroke-width: 0.886227"/>
    <path d="M 131.601512 52.18858 
C 132.071572 52.18858 132.522443 52.001823 132.854826 51.66944 
C 133.187209 51.337057 133.373966 50.886186 133.373966 50.416126 
C 133.373966 49.946066 133.187209 49.495195 132.854826 49.162812 
C 132.522443 48.830429 132.071572 48.643672 131.601512 48.643672 
C 131.131452 48.643672 130.680581 48.830429 130.348198 49.162812 
C 130.015815 49.495195 129.829058 49.946066 129.829058 50.416126 
C 129.829058 50.886186 130.015815 51.337057 130.348198 51.66944 
C 130.680581 52.001823 131.131452 52.18858 131.601512 52.18858 
z
" clip-path="url(#pc3e9255730)" style="fill: #db5f57; stroke: #db5f57; stroke-width: 0.886227"/>
    <path d="M 140.500538 48.49344 
C 140.970598 48.49344 141.421469 48.306683 141.753852 47.9743 
C 142.086235 47.641917 142.272992 47.191046 142.272992 46.720986 
C 142.272992 46.250926 142.086235 45.800055 141.753852 45.467672 
C 141.421469 45.135289 140.970598 44.948532 140.500538 44.948532 
C 140.030478 44.948532 139.579607 45.135289 139.247224 45.467672 
C 138.914841 45.800055 138.728084 46.250926 138.728084 46.720986 
C 138.728084 47.191046 138.914841 47.641917 139.247224 47.9743 
C 139.579607 48.306683 140.030478 48.49344 140.500538 48.49344 
z
" clip-path="url(#pc3e9255730)" style="fill: #db5f57; stroke: #db5f57; stroke-width: 0.886227"/>
    <path d="M 149.399564 45.49738 
C 149.869625 45.49738 150.320496 45.310623 150.652878 44.978241 
C 150.985261 44.645858 151.172018 44.194987 151.172018 43.724927 
C 151.172018 43.254866 150.985261 42.803995 150.652878 42.471612 
C 150.320496 42.13923 149.869625 41.952473 149.399564 41.952473 
C 148.929504 41.952473 148.478633 42.13923 148.14625 42.471612 
C 147.813867 42.803995 147.627111 43.254866 147.627111 43.724927 
C 147.627111 44.194987 147.813867 44.645858 148.14625 44.978241 
C 148.478633 45.310623 148.929504 45.49738 149.399564 45.49738 
z
" clip-path="url(#pc3e9255730)" style="fill: #db5f57; stroke: #db5f57; stroke-width: 0.886227"/>
    <path d="M 158.298591 42.866694 
C 158.768651 42.866694 159.219522 42.679937 159.551905 42.347554 
C 159.884288 42.015172 160.071044 41.5643 160.071044 41.09424 
C 160.071044 40.62418 159.884288 40.173309 159.551905 39.840926 
C 159.219522 39.508543 158.768651 39.321786 158.298591 39.321786 
C 157.82853 39.321786 157.377659 39.508543 157.045276 39.840926 
C 156.712894 40.173309 156.526137 40.62418 156.526137 41.09424 
C 156.526137 41.5643 156.712894 42.015172 157.045276 42.347554 
C 157.377659 42.679937 157.82853 42.866694 158.298591 42.866694 
z
" clip-path="url(#pc3e9255730)" style="fill: #db5f57; stroke: #db5f57; stroke-width: 0.886227"/>
    <path d="M 167.197617 40.419544 
C 167.667677 40.419544 168.118548 40.232787 168.450931 39.900404 
C 168.783314 39.568021 168.970071 39.11715 168.970071 38.64709 
C 168.970071 38.17703 168.783314 37.726159 168.450931 37.393776 
C 168.118548 37.061393 167.667677 36.874636 167.197617 36.874636 
C 166.727557 36.874636 166.276686 37.061393 165.944303 37.393776 
C 165.61192 37.726159 165.425163 38.17703 165.425163 38.64709 
C 165.425163 39.11715 165.61192 39.568021 165.944303 39.900404 
C 166.276686 40.232787 166.727557 40.419544 167.197617 40.419544 
z
" clip-path="url(#pc3e9255730)" style="fill: #db5f57; stroke: #db5f57; stroke-width: 0.886227"/>
    <path d="M 176.096643 38.232729 
C 176.566703 38.232729 177.017574 38.045972 177.349957 37.713589 
C 177.68234 37.381206 177.869097 36.930335 177.869097 36.460275 
C 177.869097 35.990215 177.68234 35.539344 177.349957 35.206961 
C 177.017574 34.874578 176.566703 34.687821 176.096643 34.687821 
C 175.626583 34.687821 175.175712 34.874578 174.843329 35.206961 
C 174.510946 35.539344 174.324189 35.990215 174.324189 36.460275 
C 174.324189 36.930335 174.510946 37.381206 174.843329 37.713589 
C 175.175712 38.045972 175.626583 38.232729 176.096643 38.232729 
z
" clip-path="url(#pc3e9255730)" style="fill: #db5f57; stroke: #db5f57; stroke-width: 0.886227"/>
    <path d="M 184.995669 36.334739 
C 185.46573 36.334739 185.916601 36.147982 186.248984 35.815599 
C 186.581366 35.483216 186.768123 35.032345 186.768123 34.562285 
C 186.768123 34.092224 186.581366 33.641353 186.248984 33.308971 
C 185.916601 32.976588 185.46573 32.789831 184.995669 32.789831 
C 184.525609 32.789831 184.074738 32.976588 183.742355 33.308971 
C 183.409972 33.641353 183.223216 34.092224 183.223216 34.562285 
C 183.223216 35.032345 183.409972 35.483216 183.742355 35.815599 
C 184.074738 36.147982 184.525609 36.334739 184.995669 36.334739 
z
" clip-path="url(#pc3e9255730)" style="fill: #db5f57; stroke: #db5f57; stroke-width: 0.886227"/>
    <path d="M 193.894696 34.661934 
C 194.364756 34.661934 194.815627 34.475177 195.14801 34.142794 
C 195.480393 33.810411 195.667149 33.35954 195.667149 32.88948 
C 195.667149 32.419419 195.480393 31.968548 195.14801 31.636166 
C 194.815627 31.303783 194.364756 31.117026 193.894696 31.117026 
C 193.424635 31.117026 192.973764 31.303783 192.641381 31.636166 
C 192.308999 31.968548 192.122242 32.419419 192.122242 32.88948 
C 192.122242 33.35954 192.308999 33.810411 192.641381 34.142794 
C 192.973764 34.475177 193.424635 34.661934 193.894696 34.661934 
z
" clip-path="url(#pc3e9255730)" style="fill: #db5f57; stroke: #db5f57; stroke-width: 0.886227"/>
    <path d="M 202.793722 33.071398 
C 203.263782 33.071398 203.714653 32.884641 204.047036 32.552258 
C 204.379419 32.219875 204.566176 31.769004 204.566176 31.298944 
C 204.566176 30.828883 204.379419 30.378012 204.047036 30.04563 
C 203.714653 29.713247 203.263782 29.52649 202.793722 29.52649 
C 202.323662 29.52649 201.872791 29.713247 201.540408 30.04563 
C 201.208025 30.378012 201.021268 30.828883 201.021268 31.298944 
C 201.021268 31.769004 201.208025 32.219875 201.540408 32.552258 
C 201.872791 32.884641 202.323662 33.071398 202.793722 33.071398 
z
" clip-path="url(#pc3e9255730)" style="fill: #db5f57; stroke: #db5f57; stroke-width: 0.886227"/>
    <path d="M 211.692748 31.647037 
C 212.162808 31.647037 212.613679 31.46028 212.946062 31.127897 
C 213.278445 30.795514 213.465202 30.344643 213.465202 29.874583 
C 213.465202 29.404523 213.278445 28.953652 212.946062 28.621269 
C 212.613679 28.288886 212.162808 28.102129 211.692748 28.102129 
C 211.222688 28.102129 210.771817 28.288886 210.439434 28.621269 
C 210.107051 28.953652 209.920294 29.404523 209.920294 29.874583 
C 209.920294 30.344643 210.107051 30.795514 210.439434 31.127897 
C 210.771817 31.46028 211.222688 31.647037 211.692748 31.647037 
z
" clip-path="url(#pc3e9255730)" style="fill: #db5f57; stroke: #db5f57; stroke-width: 0.886227"/>
    <path d="M 220.591774 30.322983 
C 221.061835 30.322983 221.512706 30.136227 221.845089 29.803844 
C 222.177471 29.471461 222.364228 29.02059 222.364228 28.55053 
C 222.364228 28.080469 222.177471 27.629598 221.845089 27.297215 
C 221.512706 26.964833 221.061835 26.778076 220.591774 26.778076 
C 220.121714 26.778076 219.670843 26.964833 219.33846 27.297215 
C 219.006077 27.629598 218.819321 28.080469 218.819321 28.55053 
C 218.819321 29.02059 219.006077 29.471461 219.33846 29.803844 
C 219.670843 30.136227 220.121714 30.322983 220.591774 30.322983 
z
" clip-path="url(#pc3e9255730)" style="fill: #db5f57; stroke: #db5f57; stroke-width: 0.886227"/>
    <path d="M 229.490801 29.053343 
C 229.960861 29.053343 230.411732 28.866586 230.744115 28.534203 
C 231.076498 28.201821 231.263254 27.75095 231.263254 27.280889 
C 231.263254 26.810829 231.076498 26.359958 230.744115 26.027575 
C 230.411732 25.695192 229.960861 25.508435 229.490801 25.508435 
C 229.02074 25.508435 228.569869 25.695192 228.237487 26.027575 
C 227.905104 26.359958 227.718347 26.810829 227.718347 27.280889 
C 227.718347 27.75095 227.905104 28.201821 228.237487 28.534203 
C 228.569869 28.866586 229.02074 29.053343 229.490801 29.053343 
z
" clip-path="url(#pc3e9255730)" style="fill: #db5f57; stroke: #db5f57; stroke-width: 0.886227"/>
    <path d="M 238.389827 27.896203 
C 238.859887 27.896203 239.310758 27.709446 239.643141 27.377063 
C 239.975524 27.04468 240.162281 26.593809 240.162281 26.123749 
C 240.162281 25.653688 239.975524 25.202817 239.643141 24.870435 
C 239.310758 24.538052 238.859887 24.351295 238.389827 24.351295 
C 237.919767 24.351295 237.468896 24.538052 237.136513 24.870435 
C 236.80413 25.202817 236.617373 25.653688 236.617373 26.123749 
C 236.617373 26.593809 236.80413 27.04468 237.136513 27.377063 
C 237.468896 27.709446 237.919767 27.896203 238.389827 27.896203 
z
" clip-path="url(#pc3e9255730)" style="fill: #db5f57; stroke: #db5f57; stroke-width: 0.886227"/>
    <path d="M 247.288853 26.808769 
C 247.758913 26.808769 248.209784 26.622012 248.542167 26.28963 
C 248.87455 25.957247 249.061307 25.506376 249.061307 25.036315 
C 249.061307 24.566255 248.87455 24.115384 248.542167 23.783001 
C 248.209784 23.450619 247.758913 23.263862 247.288853 23.263862 
C 246.818793 23.263862 246.367922 23.450619 246.035539 23.783001 
C 245.703156 24.115384 245.516399 24.566255 245.516399 25.036315 
C 245.516399 25.506376 245.703156 25.957247 246.035539 26.28963 
C 246.367922 26.622012 246.818793 26.808769 247.288853 26.808769 
z
" clip-path="url(#pc3e9255730)" style="fill: #db5f57; stroke: #db5f57; stroke-width: 0.886227"/>
    <path d="M 256.187879 25.806864 
C 256.65794 25.806864 257.108811 25.620108 257.441194 25.287725 
C 257.773576 24.955342 257.960333 24.504471 257.960333 24.034411 
C 257.960333 23.56435 257.773576 23.113479 257.441194 22.781096 
C 257.108811 22.448714 256.65794 22.261957 256.187879 22.261957 
C 255.717819 22.261957 255.266948 22.448714 254.934565 22.781096 
C 254.602182 23.113479 254.415426 23.56435 254.415426 24.034411 
C 254.415426 24.504471 254.602182 24.955342 254.934565 25.287725 
C 255.266948 25.620108 255.717819 25.806864 256.187879 25.806864 
z
" clip-path="url(#pc3e9255730)" style="fill: #db5f57; stroke: #db5f57; stroke-width: 0.886227"/>
    <path d="M 265.086906 24.89792 
C 265.556966 24.89792 266.007837 24.711163 266.34022 24.37878 
C 266.672603 24.046397 266.85936 23.595526 266.85936 23.125466 
C 266.85936 22.655406 266.672603 22.204535 266.34022 21.872152 
C 266.007837 21.539769 265.556966 21.353012 265.086906 21.353012 
C 264.616845 21.353012 264.165974 21.539769 263.833592 21.872152 
C 263.501209 22.204535 263.314452 22.655406 263.314452 23.125466 
C 263.314452 23.595526 263.501209 24.046397 263.833592 24.37878 
C 264.165974 24.711163 264.616845 24.89792 265.086906 24.89792 
z
" clip-path="url(#pc3e9255730)" style="fill: #db5f57; stroke: #db5f57; stroke-width: 0.886227"/>
    <path d="M 273.985932 24.033973 
C 274.455992 24.033973 274.906863 23.847216 275.239246 23.514833 
C 275.571629 23.18245 275.758386 22.731579 275.758386 22.261519 
C 275.758386 21.791458 275.571629 21.340587 275.239246 21.008205 
C 274.906863 20.675822 274.455992 20.489065 273.985932 20.489065 
C 273.515872 20.489065 273.065001 20.675822 272.732618 21.008205 
C 272.400235 21.340587 272.213478 21.791458 272.213478 22.261519 
C 272.213478 22.731579 272.400235 23.18245 272.732618 23.514833 
C 273.065001 23.847216 273.515872 24.033973 273.985932 24.033973 
z
" clip-path="url(#pc3e9255730)" style="fill: #db5f57; stroke: #db5f57; stroke-width: 0.886227"/>
    <path d="M 282.884958 23.195189 
C 283.355018 23.195189 283.80589 23.008432 284.138272 22.676049 
C 284.470655 22.343666 284.657412 21.892795 284.657412 21.422735 
C 284.657412 20.952675 284.470655 20.501804 284.138272 20.169421 
C 283.80589 19.837038 283.355018 19.650281 282.884958 19.650281 
C 282.414898 19.650281 281.964027 19.837038 281.631644 20.169421 
C 281.299261 20.501804 281.112504 20.952675 281.112504 21.422735 
C 281.112504 21.892795 281.299261 22.343666 281.631644 22.676049 
C 281.964027 23.008432 282.414898 23.195189 282.884958 23.195189 
z
" clip-path="url(#pc3e9255730)" style="fill: #db5f57; stroke: #db5f57; stroke-width: 0.886227"/>
    <path d="M 291.783984 22.3956 
C 292.254045 22.3956 292.704916 22.208843 293.037299 21.876461 
C 293.369681 21.544078 293.556438 21.093207 293.556438 20.623147 
C 293.556438 20.153086 293.369681 19.702215 293.037299 19.369832 
C 292.704916 19.03745 292.254045 18.850693 291.783984 18.850693 
C 291.313924 18.850693 290.863053 19.03745 290.53067 19.369832 
C 290.198287 19.702215 290.011531 20.153086 290.011531 20.623147 
C 290.011531 21.093207 290.198287 21.544078 290.53067 21.876461 
C 290.863053 22.208843 291.313924 22.3956 291.783984 22.3956 
z
" clip-path="url(#pc3e9255730)" style="fill: #db5f57; stroke: #db5f57; stroke-width: 0.886227"/>
    <path d="M 300.683011 21.618019 
C 301.153071 21.618019 301.603942 21.431262 301.936325 21.098879 
C 302.268708 20.766497 302.455465 20.315626 302.455465 19.845565 
C 302.455465 19.375505 302.268708 18.924634 301.936325 18.592251 
C 301.603942 18.259868 301.153071 18.073111 300.683011 18.073111 
C 300.21295 18.073111 299.762079 18.259868 299.429697 18.592251 
C 299.097314 18.924634 298.910557 19.375505 298.910557 19.845565 
C 298.910557 20.315626 299.097314 20.766497 299.429697 21.098879 
C 299.762079 21.431262 300.21295 21.618019 300.683011 21.618019 
z
" clip-path="url(#pc3e9255730)" style="fill: #db5f57; stroke: #db5f57; stroke-width: 0.886227"/>
    <path d="M 309.582037 20.874844 
C 310.052097 20.874844 310.502968 20.688087 310.835351 20.355704 
C 311.167734 20.023322 311.354491 19.57245 311.354491 19.10239 
C 311.354491 18.63233 311.167734 18.181459 310.835351 17.849076 
C 310.502968 17.516693 310.052097 17.329936 309.582037 17.329936 
C 309.111977 17.329936 308.661106 17.516693 308.328723 17.849076 
C 307.99634 18.181459 307.809583 18.63233 307.809583 19.10239 
C 307.809583 19.57245 307.99634 20.023322 308.328723 20.355704 
C 308.661106 20.688087 309.111977 20.874844 309.582037 20.874844 
z
" clip-path="url(#pc3e9255730)" style="fill: #db5f57; stroke: #db5f57; stroke-width: 0.886227"/>
   </g>
   <g id="PolyCollection_1">
    <path d="M 51.510276 298.470992 
L 51.510276 298.500658 
L 60.409302 177.627644 
L 69.308328 129.278439 
L 78.207354 101.650322 
L 87.106381 86.58044 
L 96.005407 74.988223 
L 104.904433 66.805481 
L 113.803459 59.914752 
L 122.702486 54.522007 
L 131.601512 50.430959 
L 140.500538 46.735819 
L 149.399564 43.739759 
L 158.298591 41.109073 
L 167.197617 38.661923 
L 176.096643 36.475108 
L 184.995669 34.577118 
L 193.894696 32.904312 
L 202.793722 31.313776 
L 211.692748 29.889416 
L 220.591774 28.565362 
L 229.490801 27.295722 
L 238.389827 26.138582 
L 247.288853 25.051148 
L 256.187879 24.049243 
L 265.086906 23.140299 
L 273.985932 22.276352 
L 282.884958 21.437568 
L 291.783984 20.637979 
L 300.683011 19.860398 
L 309.582037 19.117223 
L 309.582037 19.087558 
L 309.582037 19.087558 
L 300.683011 19.830732 
L 291.783984 20.608314 
L 282.884958 21.407902 
L 273.985932 22.246686 
L 265.086906 23.110633 
L 256.187879 24.019578 
L 247.288853 25.021483 
L 238.389827 26.108916 
L 229.490801 27.266057 
L 220.591774 28.535697 
L 211.692748 29.85975 
L 202.793722 31.284111 
L 193.894696 32.874647 
L 184.995669 34.547452 
L 176.096643 36.445442 
L 167.197617 38.632257 
L 158.298591 41.079407 
L 149.399564 43.710094 
L 140.500538 46.706153 
L 131.601512 50.401293 
L 122.702486 54.492341 
L 113.803459 59.885086 
L 104.904433 66.775816 
L 96.005407 74.958557 
L 87.106381 86.550774 
L 78.207354 101.620656 
L 69.308328 129.248774 
L 60.409302 177.597979 
L 51.510276 298.470992 
z
" clip-path="url(#pc3e9255730)" style="fill: #999999; fill-opacity: 0.4"/>
   </g>
   <g id="line2d_26">
    <path d="M 51.510276 298.485825 
L 60.409302 177.612812 
L 69.308328 129.263606 
L 78.207354 101.635489 
L 87.106381 86.565607 
L 96.005407 74.97339 
L 104.904433 66.790649 
L 113.803459 59.899919 
L 122.702486 54.507174 
L 131.601512 50.416126 
L 140.500538 46.720986 
L 149.399564 43.724927 
L 158.298591 41.09424 
L 167.197617 38.64709 
L 176.096643 36.460275 
L 184.995669 34.562285 
L 193.894696 32.88948 
L 202.793722 31.298944 
L 211.692748 29.874583 
L 220.591774 28.55053 
L 229.490801 27.280889 
L 238.389827 26.123749 
L 247.288853 25.036315 
L 256.187879 24.034411 
L 265.086906 23.125466 
L 273.985932 22.261519 
L 282.884958 21.422735 
L 291.783984 20.623147 
L 300.683011 19.845565 
L 309.582037 19.10239 
" clip-path="url(#pc3e9255730)" style="fill: none; stroke: #db5f57; stroke-width: 1.772454; stroke-linejoin: miter"/>
   </g>
  </g>
  <g id="text_10">
   <!-- x -->
   <g transform="translate(177.290844 338.704344) scale(0.11 -0.11)">
    <defs>
     <path id="DejaVuSans-78" d="M 3513 3500 
L 2247 1797 
L 3578 0 
L 2900 0 
L 1881 1375 
L 863 0 
L 184 0 
L 1544 1831 
L 300 3500 
L 978 3500 
L 1906 2253 
L 2834 3500 
L 3513 3500 
z
" transform="scale(0.015625)"/>
    </defs>
    <use xlink:href="#DejaVuSans-78"/>
   </g>
  </g>
  <g id="text_11">
   <!-- y -->
   <g transform="translate(12.966281 162.04942) rotate(-90) scale(0.11 -0.11)">
    <defs>
     <path id="DejaVuSans-79" d="M 2059 -325 
Q 1816 -950 1584 -1140 
Q 1353 -1331 966 -1331 
L 506 -1331 
L 506 -850 
L 844 -850 
Q 1081 -850 1212 -737 
Q 1344 -625 1503 -206 
L 1606 56 
L 191 3500 
L 800 3500 
L 1894 763 
L 2988 3500 
L 3597 3500 
L 2059 -325 
z
" transform="scale(0.015625)"/>
    </defs>
    <use xlink:href="#DejaVuSans-79"/>
   </g>
  </g>
  <g id="patch_3">
   <path d="M 336.309625 174.189076 
L 456.192 174.189076 
L 456.192 143.399139 
L 336.309625 143.399139 
z
" style="fill: #ffffff"/>
  </g>
  <g id="text_12">
   <!-- Labels -->
   <g transform="translate(337.309625 152.75742) scale(0.11 -0.11)">
    <defs>
     <path id="DejaVuSans-4c" d="M 628 4666 
L 1259 4666 
L 1259 531 
L 3531 531 
L 3531 0 
L 628 0 
L 628 4666 
z
" transform="scale(0.015625)"/>
     <path id="DejaVuSans-61" d="M 2194 1759 
Q 1497 1759 1228 1600 
Q 959 1441 959 1056 
Q 959 750 1161 570 
Q 1363 391 1709 391 
Q 2188 391 2477 730 
Q 2766 1069 2766 1631 
L 2766 1759 
L 2194 1759 
z
M 3341 1997 
L 3341 0 
L 2766 0 
L 2766 531 
Q 2569 213 2275 61 
Q 1981 -91 1556 -91 
Q 1019 -91 701 211 
Q 384 513 384 1019 
Q 384 1609 779 1909 
Q 1175 2209 1959 2209 
L 2766 2209 
L 2766 2266 
Q 2766 2663 2505 2880 
Q 2244 3097 1772 3097 
Q 1472 3097 1187 3025 
Q 903 2953 641 2809 
L 641 3341 
Q 956 3463 1253 3523 
Q 1550 3584 1831 3584 
Q 2591 3584 2966 3190 
Q 3341 2797 3341 1997 
z
" transform="scale(0.015625)"/>
     <path id="DejaVuSans-62" d="M 3116 1747 
Q 3116 2381 2855 2742 
Q 2594 3103 2138 3103 
Q 1681 3103 1420 2742 
Q 1159 2381 1159 1747 
Q 1159 1113 1420 752 
Q 1681 391 2138 391 
Q 2594 391 2855 752 
Q 3116 1113 3116 1747 
z
M 1159 2969 
Q 1341 3281 1617 3432 
Q 1894 3584 2278 3584 
Q 2916 3584 3314 3078 
Q 3713 2572 3713 1747 
Q 3713 922 3314 415 
Q 2916 -91 2278 -91 
Q 1894 -91 1617 61 
Q 1341 213 1159 525 
L 1159 0 
L 581 0 
L 581 4863 
L 1159 4863 
L 1159 2969 
z
" transform="scale(0.015625)"/>
     <path id="DejaVuSans-65" d="M 3597 1894 
L 3597 1613 
L 953 1613 
Q 991 1019 1311 708 
Q 1631 397 2203 397 
Q 2534 397 2845 478 
Q 3156 559 3463 722 
L 3463 178 
Q 3153 47 2828 -22 
Q 2503 -91 2169 -91 
Q 1331 -91 842 396 
Q 353 884 353 1716 
Q 353 2575 817 3079 
Q 1281 3584 2069 3584 
Q 2775 3584 3186 3129 
Q 3597 2675 3597 1894 
z
M 3022 2063 
Q 3016 2534 2758 2815 
Q 2500 3097 2075 3097 
Q 1594 3097 1305 2825 
Q 1016 2553 972 2059 
L 3022 2063 
z
" transform="scale(0.015625)"/>
     <path id="DejaVuSans-6c" d="M 603 4863 
L 1178 4863 
L 1178 0 
L 603 0 
L 603 4863 
z
" transform="scale(0.015625)"/>
     <path id="DejaVuSans-73" d="M 2834 3397 
L 2834 2853 
Q 2591 2978 2328 3040 
Q 2066 3103 1784 3103 
Q 1356 3103 1142 2972 
Q 928 2841 928 2578 
Q 928 2378 1081 2264 
Q 1234 2150 1697 2047 
L 1894 2003 
Q 2506 1872 2764 1633 
Q 3022 1394 3022 966 
Q 3022 478 2636 193 
Q 2250 -91 1575 -91 
Q 1294 -91 989 -36 
Q 684 19 347 128 
L 347 722 
Q 666 556 975 473 
Q 1284 391 1588 391 
Q 1994 391 2212 530 
Q 2431 669 2431 922 
Q 2431 1156 2273 1281 
Q 2116 1406 1581 1522 
L 1381 1569 
Q 847 1681 609 1914 
Q 372 2147 372 2553 
Q 372 3047 722 3315 
Q 1072 3584 1716 3584 
Q 2034 3584 2315 3537 
Q 2597 3491 2834 3397 
z
" transform="scale(0.015625)"/>
    </defs>
    <use xlink:href="#DejaVuSans-4c"/>
    <use xlink:href="#DejaVuSans-61" x="55.712891"/>
    <use xlink:href="#DejaVuSans-62" x="116.992188"/>
    <use xlink:href="#DejaVuSans-65" x="180.46875"/>
    <use xlink:href="#DejaVuSans-6c" x="241.992188"/>
    <use xlink:href="#DejaVuSans-73" x="269.775391"/>
   </g>
  </g>
  <g id="patch_4">
   <path d="M 337.309625 173.189076 
L 353.149625 173.189076 
L 353.149625 157.349076 
L 337.309625 157.349076 
z
" clip-path="url(#pc9a3c1d241)" style="fill: #f2f2f2"/>
  </g>
  <g id="line2d_27">
   <path d="M 345.229625 165.269076 
" clip-path="url(#pc9a3c1d241)" style="fill: none; stroke: #1f77b4; stroke-width: 1.5; stroke-linecap: square"/>
   <defs>
    <path id="m1d71691321" d="M 0 1.772454 
C 0.47006 1.772454 0.920931 1.585697 1.253314 1.253314 
C 1.585697 0.920931 1.772454 0.47006 1.772454 0 
C 1.772454 -0.47006 1.585697 -0.920931 1.253314 -1.253314 
C 0.920931 -1.585697 0.47006 -1.772454 0 -1.772454 
C -0.47006 -1.772454 -0.920931 -1.585697 -1.253314 -1.253314 
C -1.585697 -0.920931 -1.772454 -0.47006 -1.772454 0 
C -1.772454 0.47006 -1.585697 0.920931 -1.253314 1.253314 
C -0.920931 1.585697 -0.47006 1.772454 0 1.772454 
z
" style="stroke: #db5f57; stroke-width: 0.886227"/>
   </defs>
   <g clip-path="url(#pc9a3c1d241)">
    <use xlink:href="#m1d71691321" x="345.229625" y="165.269076" style="fill: #db5f57; stroke: #db5f57; stroke-width: 0.886227"/>
   </g>
  </g>
  <g id="patch_5">
   <path d="M 337.309625 169.229076 
L 353.149625 169.229076 
L 353.149625 161.309076 
L 337.309625 161.309076 
z
" clip-path="url(#pc9a3c1d241)" style="fill: #999999; fill-opacity: 0.4"/>
  </g>
  <g id="line2d_28">
   <path d="M 337.309625 165.269076 
L 353.149625 165.269076 
" clip-path="url(#pc9a3c1d241)" style="fill: none; stroke: #db5f57; stroke-width: 1.772454"/>
  </g>
  <g id="text_13">
   <!-- Wheel Sieve Efficiency -->
   <g transform="translate(355.453625 167.697326) scale(0.088 -0.088)">
    <defs>
     <path id="DejaVuSans-57" d="M 213 4666 
L 850 4666 
L 1831 722 
L 2809 4666 
L 3519 4666 
L 4500 722 
L 5478 4666 
L 6119 4666 
L 4947 0 
L 4153 0 
L 3169 4050 
L 2175 0 
L 1381 0 
L 213 4666 
z
" transform="scale(0.015625)"/>
     <path id="DejaVuSans-68" d="M 3513 2113 
L 3513 0 
L 2938 0 
L 2938 2094 
Q 2938 2591 2744 2837 
Q 2550 3084 2163 3084 
Q 1697 3084 1428 2787 
Q 1159 2491 1159 1978 
L 1159 0 
L 581 0 
L 581 4863 
L 1159 4863 
L 1159 2956 
Q 1366 3272 1645 3428 
Q 1925 3584 2291 3584 
Q 2894 3584 3203 3211 
Q 3513 2838 3513 2113 
z
" transform="scale(0.015625)"/>
     <path id="DejaVuSans-20" transform="scale(0.015625)"/>
     <path id="DejaVuSans-53" d="M 3425 4513 
L 3425 3897 
Q 3066 4069 2747 4153 
Q 2428 4238 2131 4238 
Q 1616 4238 1336 4038 
Q 1056 3838 1056 3469 
Q 1056 3159 1242 3001 
Q 1428 2844 1947 2747 
L 2328 2669 
Q 3034 2534 3370 2195 
Q 3706 1856 3706 1288 
Q 3706 609 3251 259 
Q 2797 -91 1919 -91 
Q 1588 -91 1214 -16 
Q 841 59 441 206 
L 441 856 
Q 825 641 1194 531 
Q 1563 422 1919 422 
Q 2459 422 2753 634 
Q 3047 847 3047 1241 
Q 3047 1584 2836 1778 
Q 2625 1972 2144 2069 
L 1759 2144 
Q 1053 2284 737 2584 
Q 422 2884 422 3419 
Q 422 4038 858 4394 
Q 1294 4750 2059 4750 
Q 2388 4750 2728 4690 
Q 3069 4631 3425 4513 
z
" transform="scale(0.015625)"/>
     <path id="DejaVuSans-69" d="M 603 3500 
L 1178 3500 
L 1178 0 
L 603 0 
L 603 3500 
z
M 603 4863 
L 1178 4863 
L 1178 4134 
L 603 4134 
L 603 4863 
z
" transform="scale(0.015625)"/>
     <path id="DejaVuSans-76" d="M 191 3500 
L 800 3500 
L 1894 563 
L 2988 3500 
L 3597 3500 
L 2284 0 
L 1503 0 
L 191 3500 
z
" transform="scale(0.015625)"/>
     <path id="DejaVuSans-45" d="M 628 4666 
L 3578 4666 
L 3578 4134 
L 1259 4134 
L 1259 2753 
L 3481 2753 
L 3481 2222 
L 1259 2222 
L 1259 531 
L 3634 531 
L 3634 0 
L 628 0 
L 628 4666 
z
" transform="scale(0.015625)"/>
     <path id="DejaVuSans-66" d="M 2375 4863 
L 2375 4384 
L 1825 4384 
Q 1516 4384 1395 4259 
Q 1275 4134 1275 3809 
L 1275 3500 
L 2222 3500 
L 2222 3053 
L 1275 3053 
L 1275 0 
L 697 0 
L 697 3053 
L 147 3053 
L 147 3500 
L 697 3500 
L 697 3744 
Q 697 4328 969 4595 
Q 1241 4863 1831 4863 
L 2375 4863 
z
" transform="scale(0.015625)"/>
     <path id="DejaVuSans-63" d="M 3122 3366 
L 3122 2828 
Q 2878 2963 2633 3030 
Q 2388 3097 2138 3097 
Q 1578 3097 1268 2742 
Q 959 2388 959 1747 
Q 959 1106 1268 751 
Q 1578 397 2138 397 
Q 2388 397 2633 464 
Q 2878 531 3122 666 
L 3122 134 
Q 2881 22 2623 -34 
Q 2366 -91 2075 -91 
Q 1284 -91 818 406 
Q 353 903 353 1747 
Q 353 2603 823 3093 
Q 1294 3584 2113 3584 
Q 2378 3584 2631 3529 
Q 2884 3475 3122 3366 
z
" transform="scale(0.015625)"/>
     <path id="DejaVuSans-6e" d="M 3513 2113 
L 3513 0 
L 2938 0 
L 2938 2094 
Q 2938 2591 2744 2837 
Q 2550 3084 2163 3084 
Q 1697 3084 1428 2787 
Q 1159 2491 1159 1978 
L 1159 0 
L 581 0 
L 581 3500 
L 1159 3500 
L 1159 2956 
Q 1366 3272 1645 3428 
Q 1925 3584 2291 3584 
Q 2894 3584 3203 3211 
Q 3513 2838 3513 2113 
z
" transform="scale(0.015625)"/>
    </defs>
    <use xlink:href="#DejaVuSans-57"/>
    <use xlink:href="#DejaVuSans-68" x="98.876953"/>
    <use xlink:href="#DejaVuSans-65" x="162.255859"/>
    <use xlink:href="#DejaVuSans-65" x="223.779297"/>
    <use xlink:href="#DejaVuSans-6c" x="285.302734"/>
    <use xlink:href="#DejaVuSans-20" x="313.085938"/>
    <use xlink:href="#DejaVuSans-53" x="344.873047"/>
    <use xlink:href="#DejaVuSans-69" x="408.349609"/>
    <use xlink:href="#DejaVuSans-65" x="436.132812"/>
    <use xlink:href="#DejaVuSans-76" x="497.65625"/>
    <use xlink:href="#DejaVuSans-65" x="556.835938"/>
    <use xlink:href="#DejaVuSans-20" x="618.359375"/>
    <use xlink:href="#DejaVuSans-45" x="650.146484"/>
    <use xlink:href="#DejaVuSans-66" x="713.330078"/>
    <use xlink:href="#DejaVuSans-66" x="748.535156"/>
    <use xlink:href="#DejaVuSans-69" x="783.740234"/>
    <use xlink:href="#DejaVuSans-63" x="811.523438"/>
    <use xlink:href="#DejaVuSans-69" x="866.503906"/>
    <use xlink:href="#DejaVuSans-65" x="894.287109"/>
    <use xlink:href="#DejaVuSans-6e" x="955.810547"/>
    <use xlink:href="#DejaVuSans-63" x="1019.189453"/>
    <use xlink:href="#DejaVuSans-79" x="1074.169922"/>
   </g>
  </g>
 </g>
 <defs>
  <clipPath id="pc3e9255730">
   <rect x="38.606688" y="5.116903" width="283.878937" height="307.35441"/>
  </clipPath>
  <clipPath id="pc9a3c1d241">
   <path d="M 337.309625 173.189076 
L 337.309625 157.349076 
L 353.149625 157.349076 
L 353.149625 173.189076 
"/>
  </clipPath>
 </defs>
</svg>
