<?xml version="1.0" encoding="utf-8" standalone="no"?>
<!DOCTYPE svg PUBLIC "-//W3C//DTD SVG 1.1//EN"
  "http://www.w3.org/Graphics/SVG/1.1/DTD/svg11.dtd">
<svg xmlns:xlink="http://www.w3.org/1999/xlink" width="475.570812pt" height="309.024687pt" viewBox="0 0 475.570812 309.024687" xmlns="http://www.w3.org/2000/svg" version="1.1">
 <metadata>
  <rdf:RDF xmlns:dc="http://purl.org/dc/elements/1.1/" xmlns:cc="http://creativecommons.org/ns#" xmlns:rdf="http://www.w3.org/1999/02/22-rdf-syntax-ns#">
   <cc:Work>
    <dc:type rdf:resource="http://purl.org/dc/dcmitype/StillImage"/>
    <dc:date>2023-04-20T09:59:56.063067</dc:date>
    <dc:format>image/svg+xml</dc:format>
    <dc:creator>
     <cc:Agent>
      <dc:title>Matplotlib v3.5.1, https://matplotlib.org/</dc:title>
     </cc:Agent>
    </dc:creator>
   </cc:Work>
  </rdf:RDF>
 </metadata>
 <defs>
  <style type="text/css">*{stroke-linejoin: round; stroke-linecap: butt}</style>
 </defs>
 <g id="figure_1">
  <g id="patch_1">
   <path d="M 0 309.024687 
L 475.570812 309.024687 
L 475.570812 0 
L 0 0 
z
" style="fill: #ffffff; stroke: #ffffff; stroke-linejoin: miter"/>
  </g>
  <g id="axes_1">
   <g id="patch_2">
    <path d="M 38.393938 273.312 
L 395.513938 273.312 
L 395.513938 7.2 
L 38.393938 7.2 
z
" style="fill: #ebebeb"/>
   </g>
   <g id="matplotlib.axis_1">
    <g id="xtick_1">
     <g id="line2d_1">
      <path d="M 101.005886 273.312 
L 101.005886 7.2 
" clip-path="url(#pe29afcbc2d)" style="fill: none; stroke: #ffffff"/>
     </g>
     <g id="line2d_2">
      <path d="M 101.005886 273.312 
" style="fill: none; stroke: #000000; stroke-width: 1.5"/>
      <defs>
       <path id="m4f43b862ba" d="M 0 0 
L 0 2.75 
" style="stroke: #333333"/>
      </defs>
      <g>
       <use xlink:href="#m4f43b862ba" x="101.005886" y="273.312" style="stroke: #333333"/>
      </g>
     </g>
     <g id="text_1">
      <!-- 100 -->
      <g style="fill: #4d4d4d" transform="translate(92.607386 284.948625)scale(0.088 -0.088)">
       <defs>
        <path id="DejaVuSans-31" d="M 794 531 
L 1825 531 
L 1825 4091 
L 703 3866 
L 703 4441 
L 1819 4666 
L 2450 4666 
L 2450 531 
L 3481 531 
L 3481 0 
L 794 0 
L 794 531 
z
" transform="scale(0.015625)"/>
        <path id="DejaVuSans-30" d="M 2034 4250 
Q 1547 4250 1301 3770 
Q 1056 3291 1056 2328 
Q 1056 1369 1301 889 
Q 1547 409 2034 409 
Q 2525 409 2770 889 
Q 3016 1369 3016 2328 
Q 3016 3291 2770 3770 
Q 2525 4250 2034 4250 
z
M 2034 4750 
Q 2819 4750 3233 4129 
Q 3647 3509 3647 2328 
Q 3647 1150 3233 529 
Q 2819 -91 2034 -91 
Q 1250 -91 836 529 
Q 422 1150 422 2328 
Q 422 3509 836 4129 
Q 1250 4750 2034 4750 
z
" transform="scale(0.015625)"/>
       </defs>
       <use xlink:href="#DejaVuSans-31"/>
       <use xlink:href="#DejaVuSans-30" x="63.623047"/>
       <use xlink:href="#DejaVuSans-30" x="127.246094"/>
      </g>
     </g>
    </g>
    <g id="xtick_2">
     <g id="line2d_3">
      <path d="M 193.764327 273.312 
L 193.764327 7.2 
" clip-path="url(#pe29afcbc2d)" style="fill: none; stroke: #ffffff"/>
     </g>
     <g id="line2d_4">
      <path d="M 193.764327 273.312 
" style="fill: none; stroke: #000000; stroke-width: 1.5"/>
      <g>
       <use xlink:href="#m4f43b862ba" x="193.764327" y="273.312" style="stroke: #333333"/>
      </g>
     </g>
     <g id="text_2">
      <!-- 200 -->
      <g style="fill: #4d4d4d" transform="translate(185.365827 284.948625)scale(0.088 -0.088)">
       <defs>
        <path id="DejaVuSans-32" d="M 1228 531 
L 3431 531 
L 3431 0 
L 469 0 
L 469 531 
Q 828 903 1448 1529 
Q 2069 2156 2228 2338 
Q 2531 2678 2651 2914 
Q 2772 3150 2772 3378 
Q 2772 3750 2511 3984 
Q 2250 4219 1831 4219 
Q 1534 4219 1204 4116 
Q 875 4013 500 3803 
L 500 4441 
Q 881 4594 1212 4672 
Q 1544 4750 1819 4750 
Q 2544 4750 2975 4387 
Q 3406 4025 3406 3419 
Q 3406 3131 3298 2873 
Q 3191 2616 2906 2266 
Q 2828 2175 2409 1742 
Q 1991 1309 1228 531 
z
" transform="scale(0.015625)"/>
       </defs>
       <use xlink:href="#DejaVuSans-32"/>
       <use xlink:href="#DejaVuSans-30" x="63.623047"/>
       <use xlink:href="#DejaVuSans-30" x="127.246094"/>
      </g>
     </g>
    </g>
    <g id="xtick_3">
     <g id="line2d_5">
      <path d="M 286.522769 273.312 
L 286.522769 7.2 
" clip-path="url(#pe29afcbc2d)" style="fill: none; stroke: #ffffff"/>
     </g>
     <g id="line2d_6">
      <path d="M 286.522769 273.312 
" style="fill: none; stroke: #000000; stroke-width: 1.5"/>
      <g>
       <use xlink:href="#m4f43b862ba" x="286.522769" y="273.312" style="stroke: #333333"/>
      </g>
     </g>
     <g id="text_3">
      <!-- 300 -->
      <g style="fill: #4d4d4d" transform="translate(278.124269 284.948625)scale(0.088 -0.088)">
       <defs>
        <path id="DejaVuSans-33" d="M 2597 2516 
Q 3050 2419 3304 2112 
Q 3559 1806 3559 1356 
Q 3559 666 3084 287 
Q 2609 -91 1734 -91 
Q 1441 -91 1130 -33 
Q 819 25 488 141 
L 488 750 
Q 750 597 1062 519 
Q 1375 441 1716 441 
Q 2309 441 2620 675 
Q 2931 909 2931 1356 
Q 2931 1769 2642 2001 
Q 2353 2234 1838 2234 
L 1294 2234 
L 1294 2753 
L 1863 2753 
Q 2328 2753 2575 2939 
Q 2822 3125 2822 3475 
Q 2822 3834 2567 4026 
Q 2313 4219 1838 4219 
Q 1578 4219 1281 4162 
Q 984 4106 628 3988 
L 628 4550 
Q 988 4650 1302 4700 
Q 1616 4750 1894 4750 
Q 2613 4750 3031 4423 
Q 3450 4097 3450 3541 
Q 3450 3153 3228 2886 
Q 3006 2619 2597 2516 
z
" transform="scale(0.015625)"/>
       </defs>
       <use xlink:href="#DejaVuSans-33"/>
       <use xlink:href="#DejaVuSans-30" x="63.623047"/>
       <use xlink:href="#DejaVuSans-30" x="127.246094"/>
      </g>
     </g>
    </g>
    <g id="xtick_4">
     <g id="line2d_7">
      <path d="M 379.28121 273.312 
L 379.28121 7.2 
" clip-path="url(#pe29afcbc2d)" style="fill: none; stroke: #ffffff"/>
     </g>
     <g id="line2d_8">
      <path d="M 379.28121 273.312 
" style="fill: none; stroke: #000000; stroke-width: 1.5"/>
      <g>
       <use xlink:href="#m4f43b862ba" x="379.28121" y="273.312" style="stroke: #333333"/>
      </g>
     </g>
     <g id="text_4">
      <!-- 400 -->
      <g style="fill: #4d4d4d" transform="translate(370.88271 284.948625)scale(0.088 -0.088)">
       <defs>
        <path id="DejaVuSans-34" d="M 2419 4116 
L 825 1625 
L 2419 1625 
L 2419 4116 
z
M 2253 4666 
L 3047 4666 
L 3047 1625 
L 3713 1625 
L 3713 1100 
L 3047 1100 
L 3047 0 
L 2419 0 
L 2419 1100 
L 313 1100 
L 313 1709 
L 2253 4666 
z
" transform="scale(0.015625)"/>
       </defs>
       <use xlink:href="#DejaVuSans-34"/>
       <use xlink:href="#DejaVuSans-30" x="63.623047"/>
       <use xlink:href="#DejaVuSans-30" x="127.246094"/>
      </g>
     </g>
    </g>
    <g id="xtick_5">
     <g id="line2d_9">
      <path d="M 54.626665 273.312 
L 54.626665 7.2 
" clip-path="url(#pe29afcbc2d)" style="fill: none; stroke: #ffffff; stroke-width: 0.5"/>
     </g>
    </g>
    <g id="xtick_6">
     <g id="line2d_10">
      <path d="M 147.385106 273.312 
L 147.385106 7.2 
" clip-path="url(#pe29afcbc2d)" style="fill: none; stroke: #ffffff; stroke-width: 0.5"/>
     </g>
    </g>
    <g id="xtick_7">
     <g id="line2d_11">
      <path d="M 240.143548 273.312 
L 240.143548 7.2 
" clip-path="url(#pe29afcbc2d)" style="fill: none; stroke: #ffffff; stroke-width: 0.5"/>
     </g>
    </g>
    <g id="xtick_8">
     <g id="line2d_12">
      <path d="M 332.901989 273.312 
L 332.901989 7.2 
" clip-path="url(#pe29afcbc2d)" style="fill: none; stroke: #ffffff; stroke-width: 0.5"/>
     </g>
    </g>
    <g id="text_5">
     <!-- (k,n) -->
     <g transform="translate(198.483781 299.537031)scale(0.11 -0.11)">
      <defs>
       <path id="DejaVuSans-28" d="M 1984 4856 
Q 1566 4138 1362 3434 
Q 1159 2731 1159 2009 
Q 1159 1288 1364 580 
Q 1569 -128 1984 -844 
L 1484 -844 
Q 1016 -109 783 600 
Q 550 1309 550 2009 
Q 550 2706 781 3412 
Q 1013 4119 1484 4856 
L 1984 4856 
z
" transform="scale(0.015625)"/>
       <path id="DejaVuSans-6b" d="M 581 4863 
L 1159 4863 
L 1159 1991 
L 2875 3500 
L 3609 3500 
L 1753 1863 
L 3688 0 
L 2938 0 
L 1159 1709 
L 1159 0 
L 581 0 
L 581 4863 
z
" transform="scale(0.015625)"/>
       <path id="DejaVuSans-2c" d="M 750 794 
L 1409 794 
L 1409 256 
L 897 -744 
L 494 -744 
L 750 256 
L 750 794 
z
" transform="scale(0.015625)"/>
       <path id="DejaVuSans-6e" d="M 3513 2113 
L 3513 0 
L 2938 0 
L 2938 2094 
Q 2938 2591 2744 2837 
Q 2550 3084 2163 3084 
Q 1697 3084 1428 2787 
Q 1159 2491 1159 1978 
L 1159 0 
L 581 0 
L 581 3500 
L 1159 3500 
L 1159 2956 
Q 1366 3272 1645 3428 
Q 1925 3584 2291 3584 
Q 2894 3584 3203 3211 
Q 3513 2838 3513 2113 
z
" transform="scale(0.015625)"/>
       <path id="DejaVuSans-29" d="M 513 4856 
L 1013 4856 
Q 1481 4119 1714 3412 
Q 1947 2706 1947 2009 
Q 1947 1309 1714 600 
Q 1481 -109 1013 -844 
L 513 -844 
Q 928 -128 1133 580 
Q 1338 1288 1338 2009 
Q 1338 2731 1133 3434 
Q 928 4138 513 4856 
z
" transform="scale(0.015625)"/>
      </defs>
      <use xlink:href="#DejaVuSans-28"/>
      <use xlink:href="#DejaVuSans-6b" x="39.013672"/>
      <use xlink:href="#DejaVuSans-2c" x="96.923828"/>
      <use xlink:href="#DejaVuSans-6e" x="128.710938"/>
      <use xlink:href="#DejaVuSans-29" x="192.089844"/>
     </g>
    </g>
   </g>
   <g id="matplotlib.axis_2">
    <g id="ytick_1">
     <g id="line2d_13">
      <path d="M 38.393938 267.064438 
L 395.513938 267.064438 
" clip-path="url(#pe29afcbc2d)" style="fill: none; stroke: #ffffff"/>
     </g>
     <g id="line2d_14">
      <path d="M 38.393938 267.064438 
" style="fill: none; stroke: #000000; stroke-width: 1.5"/>
      <defs>
       <path id="mc90da313e8" d="M 0 0 
L -2.75 0 
" style="stroke: #333333"/>
      </defs>
      <g>
       <use xlink:href="#mc90da313e8" x="38.393938" y="267.064438" style="stroke: #333333"/>
      </g>
     </g>
     <g id="text_6">
      <!-- 0 -->
      <g style="fill: #4d4d4d" transform="translate(27.844938 269.492688)scale(0.088 -0.088)">
       <use xlink:href="#DejaVuSans-30"/>
      </g>
     </g>
    </g>
    <g id="ytick_2">
     <g id="line2d_15">
      <path d="M 38.393938 213.895282 
L 395.513938 213.895282 
" clip-path="url(#pe29afcbc2d)" style="fill: none; stroke: #ffffff"/>
     </g>
     <g id="line2d_16">
      <path d="M 38.393938 213.895282 
" style="fill: none; stroke: #000000; stroke-width: 1.5"/>
      <g>
       <use xlink:href="#mc90da313e8" x="38.393938" y="213.895282" style="stroke: #333333"/>
      </g>
     </g>
     <g id="text_7">
      <!-- 10 -->
      <g style="fill: #4d4d4d" transform="translate(22.245938 216.323532)scale(0.088 -0.088)">
       <use xlink:href="#DejaVuSans-31"/>
       <use xlink:href="#DejaVuSans-30" x="63.623047"/>
      </g>
     </g>
    </g>
    <g id="ytick_3">
     <g id="line2d_17">
      <path d="M 38.393938 160.726125 
L 395.513938 160.726125 
" clip-path="url(#pe29afcbc2d)" style="fill: none; stroke: #ffffff"/>
     </g>
     <g id="line2d_18">
      <path d="M 38.393938 160.726125 
" style="fill: none; stroke: #000000; stroke-width: 1.5"/>
      <g>
       <use xlink:href="#mc90da313e8" x="38.393938" y="160.726125" style="stroke: #333333"/>
      </g>
     </g>
     <g id="text_8">
      <!-- 20 -->
      <g style="fill: #4d4d4d" transform="translate(22.245938 163.154375)scale(0.088 -0.088)">
       <use xlink:href="#DejaVuSans-32"/>
       <use xlink:href="#DejaVuSans-30" x="63.623047"/>
      </g>
     </g>
    </g>
    <g id="ytick_4">
     <g id="line2d_19">
      <path d="M 38.393938 107.556969 
L 395.513938 107.556969 
" clip-path="url(#pe29afcbc2d)" style="fill: none; stroke: #ffffff"/>
     </g>
     <g id="line2d_20">
      <path d="M 38.393938 107.556969 
" style="fill: none; stroke: #000000; stroke-width: 1.5"/>
      <g>
       <use xlink:href="#mc90da313e8" x="38.393938" y="107.556969" style="stroke: #333333"/>
      </g>
     </g>
     <g id="text_9">
      <!-- 30 -->
      <g style="fill: #4d4d4d" transform="translate(22.245938 109.985219)scale(0.088 -0.088)">
       <use xlink:href="#DejaVuSans-33"/>
       <use xlink:href="#DejaVuSans-30" x="63.623047"/>
      </g>
     </g>
    </g>
    <g id="ytick_5">
     <g id="line2d_21">
      <path d="M 38.393938 54.387812 
L 395.513938 54.387812 
" clip-path="url(#pe29afcbc2d)" style="fill: none; stroke: #ffffff"/>
     </g>
     <g id="line2d_22">
      <path d="M 38.393938 54.387812 
" style="fill: none; stroke: #000000; stroke-width: 1.5"/>
      <g>
       <use xlink:href="#mc90da313e8" x="38.393938" y="54.387812" style="stroke: #333333"/>
      </g>
     </g>
     <g id="text_10">
      <!-- 40 -->
      <g style="fill: #4d4d4d" transform="translate(22.245938 56.816062)scale(0.088 -0.088)">
       <use xlink:href="#DejaVuSans-34"/>
       <use xlink:href="#DejaVuSans-30" x="63.623047"/>
      </g>
     </g>
    </g>
    <g id="ytick_6">
     <g id="line2d_23">
      <path d="M 38.393938 240.47986 
L 395.513938 240.47986 
" clip-path="url(#pe29afcbc2d)" style="fill: none; stroke: #ffffff; stroke-width: 0.5"/>
     </g>
    </g>
    <g id="ytick_7">
     <g id="line2d_24">
      <path d="M 38.393938 187.310703 
L 395.513938 187.310703 
" clip-path="url(#pe29afcbc2d)" style="fill: none; stroke: #ffffff; stroke-width: 0.5"/>
     </g>
    </g>
    <g id="ytick_8">
     <g id="line2d_25">
      <path d="M 38.393938 134.141547 
L 395.513938 134.141547 
" clip-path="url(#pe29afcbc2d)" style="fill: none; stroke: #ffffff; stroke-width: 0.5"/>
     </g>
    </g>
    <g id="ytick_9">
     <g id="line2d_26">
      <path d="M 38.393938 80.972391 
L 395.513938 80.972391 
" clip-path="url(#pe29afcbc2d)" style="fill: none; stroke: #ffffff; stroke-width: 0.5"/>
     </g>
    </g>
    <g id="ytick_10">
     <g id="line2d_27">
      <path d="M 38.393938 27.803234 
L 395.513938 27.803234 
" clip-path="url(#pe29afcbc2d)" style="fill: none; stroke: #ffffff; stroke-width: 0.5"/>
     </g>
    </g>
    <g id="text_11">
     <!-- T -->
     <g transform="translate(15.558281 141.887297)rotate(-90)scale(0.11 -0.11)">
      <defs>
       <path id="DejaVuSans-54" d="M -19 4666 
L 3928 4666 
L 3928 4134 
L 2272 4134 
L 2272 0 
L 1638 0 
L 1638 4134 
L -19 4134 
L -19 4666 
z
" transform="scale(0.015625)"/>
      </defs>
      <use xlink:href="#DejaVuSans-54"/>
     </g>
    </g>
   </g>
   <g id="PathCollection_1">
    <path d="M 54.626665 248.100921 
C 55.096725 248.100921 55.547596 247.914164 55.879979 247.581781 
C 56.212362 247.249398 56.399119 246.798527 56.399119 246.328467 
C 56.399119 245.858407 56.212362 245.407536 55.879979 245.075153 
C 55.547596 244.74277 55.096725 244.556013 54.626665 244.556013 
C 54.156605 244.556013 53.705733 244.74277 53.373351 245.075153 
C 53.040968 245.407536 52.854211 245.858407 52.854211 246.328467 
C 52.854211 246.798527 53.040968 247.249398 53.373351 247.581781 
C 53.705733 247.914164 54.156605 248.100921 54.626665 248.100921 
z
" clip-path="url(#pe29afcbc2d)" style="fill: #a157db; stroke: #a157db; stroke-width: 0.886227"/>
    <path d="M 101.005886 223.111417 
C 101.475946 223.111417 101.926817 222.92466 102.2592 222.592278 
C 102.591582 222.259895 102.778339 221.809024 102.778339 221.338963 
C 102.778339 220.868903 102.591582 220.418032 102.2592 220.085649 
C 101.926817 219.753267 101.475946 219.56651 101.005886 219.56651 
C 100.535825 219.56651 100.084954 219.753267 99.752571 220.085649 
C 99.420189 220.418032 99.233432 220.868903 99.233432 221.338963 
C 99.233432 221.809024 99.420189 222.259895 99.752571 222.592278 
C 100.084954 222.92466 100.535825 223.111417 101.005886 223.111417 
z
" clip-path="url(#pe29afcbc2d)" style="fill: #a157db; stroke: #a157db; stroke-width: 0.886227"/>
    <path d="M 193.764327 163.030271 
C 194.234387 163.030271 194.685258 162.843514 195.017641 162.511131 
C 195.350024 162.178748 195.536781 161.727877 195.536781 161.257817 
C 195.536781 160.787757 195.350024 160.336885 195.017641 160.004503 
C 194.685258 159.67212 194.234387 159.485363 193.764327 159.485363 
C 193.294267 159.485363 192.843396 159.67212 192.511013 160.004503 
C 192.17863 160.336885 191.991873 160.787757 191.991873 161.257817 
C 191.991873 161.727877 192.17863 162.178748 192.511013 162.511131 
C 192.843396 162.843514 193.294267 163.030271 193.764327 163.030271 
z
" clip-path="url(#pe29afcbc2d)" style="fill: #a157db; stroke: #a157db; stroke-width: 0.886227"/>
    <path d="M 379.28121 42.336286 
C 379.75127 42.336286 380.202142 42.149529 380.534524 41.817146 
C 380.866907 41.484763 381.053664 41.033892 381.053664 40.563832 
C 381.053664 40.093771 380.866907 39.6429 380.534524 39.310518 
C 380.202142 38.978135 379.75127 38.791378 379.28121 38.791378 
C 378.81115 38.791378 378.360279 38.978135 378.027896 39.310518 
C 377.695513 39.6429 377.508756 40.093771 377.508756 40.563832 
C 377.508756 41.033892 377.695513 41.484763 378.027896 41.817146 
C 378.360279 42.149529 378.81115 42.336286 379.28121 42.336286 
z
" clip-path="url(#pe29afcbc2d)" style="fill: #a157db; stroke: #a157db; stroke-width: 0.886227"/>
    <path d="M 54.626665 262.988285 
C 55.096725 262.988285 55.547596 262.801528 55.879979 262.469145 
C 56.212362 262.136762 56.399119 261.685891 56.399119 261.215831 
C 56.399119 260.745771 56.212362 260.294899 55.879979 259.962517 
C 55.547596 259.630134 55.096725 259.443377 54.626665 259.443377 
C 54.156605 259.443377 53.705733 259.630134 53.373351 259.962517 
C 53.040968 260.294899 52.854211 260.745771 52.854211 261.215831 
C 52.854211 261.685891 53.040968 262.136762 53.373351 262.469145 
C 53.705733 262.801528 54.156605 262.988285 54.626665 262.988285 
z
" clip-path="url(#pe29afcbc2d)" style="fill: #db5f57; stroke: #db5f57; stroke-width: 0.886227"/>
    <path d="M 101.005886 250.227687 
C 101.475946 250.227687 101.926817 250.04093 102.2592 249.708547 
C 102.591582 249.376165 102.778339 248.925294 102.778339 248.455233 
C 102.778339 247.985173 102.591582 247.534302 102.2592 247.201919 
C 101.926817 246.869536 101.475946 246.682779 101.005886 246.682779 
C 100.535825 246.682779 100.084954 246.869536 99.752571 247.201919 
C 99.420189 247.534302 99.233432 247.985173 99.233432 248.455233 
C 99.233432 248.925294 99.420189 249.376165 99.752571 249.708547 
C 100.084954 250.04093 100.535825 250.227687 101.005886 250.227687 
z
" clip-path="url(#pe29afcbc2d)" style="fill: #db5f57; stroke: #db5f57; stroke-width: 0.886227"/>
    <path d="M 193.764327 214.604352 
C 194.234387 214.604352 194.685258 214.417595 195.017641 214.085213 
C 195.350024 213.75283 195.536781 213.301959 195.536781 212.831898 
C 195.536781 212.361838 195.350024 211.910967 195.017641 211.578584 
C 194.685258 211.246202 194.234387 211.059445 193.764327 211.059445 
C 193.294267 211.059445 192.843396 211.246202 192.511013 211.578584 
C 192.17863 211.910967 191.991873 212.361838 191.991873 212.831898 
C 191.991873 213.301959 192.17863 213.75283 192.511013 214.085213 
C 192.843396 214.417595 193.294267 214.604352 193.764327 214.604352 
z
" clip-path="url(#pe29afcbc2d)" style="fill: #db5f57; stroke: #db5f57; stroke-width: 0.886227"/>
    <path d="M 379.28121 108.797731 
C 379.75127 108.797731 380.202142 108.610974 380.534524 108.278591 
C 380.866907 107.946209 381.053664 107.495337 381.053664 107.025277 
C 381.053664 106.555217 380.866907 106.104346 380.534524 105.771963 
C 380.202142 105.43958 379.75127 105.252823 379.28121 105.252823 
C 378.81115 105.252823 378.360279 105.43958 378.027896 105.771963 
C 377.695513 106.104346 377.508756 106.555217 377.508756 107.025277 
C 377.508756 107.495337 377.695513 107.946209 378.027896 108.278591 
C 378.360279 108.610974 378.81115 108.797731 379.28121 108.797731 
z
" clip-path="url(#pe29afcbc2d)" style="fill: #db5f57; stroke: #db5f57; stroke-width: 0.886227"/>
    <path d="M 54.626665 253.417836 
C 55.096725 253.417836 55.547596 253.23108 55.879979 252.898697 
C 56.212362 252.566314 56.399119 252.115443 56.399119 251.645383 
C 56.399119 251.175322 56.212362 250.724451 55.879979 250.392069 
C 55.547596 250.059686 55.096725 249.872929 54.626665 249.872929 
C 54.156605 249.872929 53.705733 250.059686 53.373351 250.392069 
C 53.040968 250.724451 52.854211 251.175322 52.854211 251.645383 
C 52.854211 252.115443 53.040968 252.566314 53.373351 252.898697 
C 53.705733 253.23108 54.156605 253.417836 54.626665 253.417836 
z
" clip-path="url(#pe29afcbc2d)" style="fill: #91db57; stroke: #91db57; stroke-width: 0.886227"/>
    <path d="M 101.005886 230.023408 
C 101.475946 230.023408 101.926817 229.836651 102.2592 229.504268 
C 102.591582 229.171885 102.778339 228.721014 102.778339 228.250954 
C 102.778339 227.780894 102.591582 227.330022 102.2592 226.99764 
C 101.926817 226.665257 101.475946 226.4785 101.005886 226.4785 
C 100.535825 226.4785 100.084954 226.665257 99.752571 226.99764 
C 99.420189 227.330022 99.233432 227.780894 99.233432 228.250954 
C 99.233432 228.721014 99.420189 229.171885 99.752571 229.504268 
C 100.084954 229.836651 100.535825 230.023408 101.005886 230.023408 
z
" clip-path="url(#pe29afcbc2d)" style="fill: #91db57; stroke: #91db57; stroke-width: 0.886227"/>
    <path d="M 193.764327 171.005644 
C 194.234387 171.005644 194.685258 170.818887 195.017641 170.486504 
C 195.350024 170.154122 195.536781 169.70325 195.536781 169.23319 
C 195.536781 168.76313 195.350024 168.312259 195.017641 167.979876 
C 194.685258 167.647493 194.234387 167.460736 193.764327 167.460736 
C 193.294267 167.460736 192.843396 167.647493 192.511013 167.979876 
C 192.17863 168.312259 191.991873 168.76313 191.991873 169.23319 
C 191.991873 169.70325 192.17863 170.154122 192.511013 170.486504 
C 192.843396 170.818887 193.294267 171.005644 193.764327 171.005644 
z
" clip-path="url(#pe29afcbc2d)" style="fill: #91db57; stroke: #91db57; stroke-width: 0.886227"/>
    <path d="M 379.28121 34.892604 
C 379.75127 34.892604 380.202142 34.705847 380.534524 34.373464 
C 380.866907 34.041081 381.053664 33.59021 381.053664 33.12015 
C 381.053664 32.65009 380.866907 32.199219 380.534524 31.866836 
C 380.202142 31.534453 379.75127 31.347696 379.28121 31.347696 
C 378.81115 31.347696 378.360279 31.534453 378.027896 31.866836 
C 377.695513 32.199219 377.508756 32.65009 377.508756 33.12015 
C 377.508756 33.59021 377.695513 34.041081 378.027896 34.373464 
C 378.360279 34.705847 378.81115 34.892604 379.28121 34.892604 
z
" clip-path="url(#pe29afcbc2d)" style="fill: #91db57; stroke: #91db57; stroke-width: 0.886227"/>
    <path d="M 54.626665 250.227687 
C 55.096725 250.227687 55.547596 250.04093 55.879979 249.708547 
C 56.212362 249.376165 56.399119 248.925294 56.399119 248.455233 
C 56.399119 247.985173 56.212362 247.534302 55.879979 247.201919 
C 55.547596 246.869536 55.096725 246.682779 54.626665 246.682779 
C 54.156605 246.682779 53.705733 246.869536 53.373351 247.201919 
C 53.040968 247.534302 52.854211 247.985173 52.854211 248.455233 
C 52.854211 248.925294 53.040968 249.376165 53.373351 249.708547 
C 53.705733 250.04093 54.156605 250.227687 54.626665 250.227687 
z
" clip-path="url(#pe29afcbc2d)" style="fill: #57d3db; stroke: #57d3db; stroke-width: 0.886227"/>
    <path d="M 101.005886 223.643109 
C 101.475946 223.643109 101.926817 223.456352 102.2592 223.123969 
C 102.591582 222.791586 102.778339 222.340715 102.778339 221.870655 
C 102.778339 221.400595 102.591582 220.949724 102.2592 220.617341 
C 101.926817 220.284958 101.475946 220.098201 101.005886 220.098201 
C 100.535825 220.098201 100.084954 220.284958 99.752571 220.617341 
C 99.420189 220.949724 99.233432 221.400595 99.233432 221.870655 
C 99.233432 222.340715 99.420189 222.791586 99.752571 223.123969 
C 100.084954 223.456352 100.535825 223.643109 101.005886 223.643109 
z
" clip-path="url(#pe29afcbc2d)" style="fill: #57d3db; stroke: #57d3db; stroke-width: 0.886227"/>
    <path d="M 193.764327 158.776738 
C 194.234387 158.776738 194.685258 158.589981 195.017641 158.257598 
C 195.350024 157.925216 195.536781 157.474345 195.536781 157.004284 
C 195.536781 156.534224 195.350024 156.083353 195.017641 155.75097 
C 194.685258 155.418587 194.234387 155.23183 193.764327 155.23183 
C 193.294267 155.23183 192.843396 155.418587 192.511013 155.75097 
C 192.17863 156.083353 191.991873 156.534224 191.991873 157.004284 
C 191.991873 157.474345 192.17863 157.925216 192.511013 158.257598 
C 192.843396 158.589981 193.294267 158.776738 193.764327 158.776738 
z
" clip-path="url(#pe29afcbc2d)" style="fill: #57d3db; stroke: #57d3db; stroke-width: 0.886227"/>
    <path d="M 379.28121 21.068623 
C 379.75127 21.068623 380.202142 20.881866 380.534524 20.549483 
C 380.866907 20.217101 381.053664 19.766229 381.053664 19.296169 
C 381.053664 18.826109 380.866907 18.375238 380.534524 18.042855 
C 380.202142 17.710472 379.75127 17.523715 379.28121 17.523715 
C 378.81115 17.523715 378.360279 17.710472 378.027896 18.042855 
C 377.695513 18.375238 377.508756 18.826109 377.508756 19.296169 
C 377.508756 19.766229 377.695513 20.217101 378.027896 20.549483 
C 378.360279 20.881866 378.81115 21.068623 379.28121 21.068623 
z
" clip-path="url(#pe29afcbc2d)" style="fill: #57d3db; stroke: #57d3db; stroke-width: 0.886227"/>
   </g>
   <g id="PolyCollection_1">
    <path d="M 54.626665 261.215662 
L 54.626665 261.216 
L 101.005886 248.455402 
L 193.764327 212.832068 
L 379.28121 107.025446 
L 379.28121 107.025108 
L 379.28121 107.025108 
L 193.764327 212.831729 
L 101.005886 248.455064 
L 54.626665 261.215662 
z
" clip-path="url(#pe29afcbc2d)" style="fill: #999999; fill-opacity: 0.4"/>
   </g>
   <g id="line2d_28">
    <path d="M 54.626665 261.215831 
L 101.005886 248.455233 
L 193.764327 212.831898 
L 379.28121 107.025277 
" clip-path="url(#pe29afcbc2d)" style="fill: none; stroke: #db5f57; stroke-width: 1.772454; stroke-linejoin: miter"/>
   </g>
   <g id="PolyCollection_2">
    <path d="M 54.626665 251.645213 
L 54.626665 251.645552 
L 101.005886 228.251123 
L 193.764327 169.233359 
L 379.28121 33.120319 
L 379.28121 33.119981 
L 379.28121 33.119981 
L 193.764327 169.233021 
L 101.005886 228.250785 
L 54.626665 251.645213 
z
" clip-path="url(#pe29afcbc2d)" style="fill: #999999; fill-opacity: 0.4"/>
   </g>
   <g id="line2d_29">
    <path d="M 54.626665 251.645383 
L 101.005886 228.250954 
L 193.764327 169.23319 
L 379.28121 33.12015 
" clip-path="url(#pe29afcbc2d)" style="fill: none; stroke: #91db57; stroke-width: 1.772454; stroke-linejoin: miter"/>
   </g>
   <g id="PolyCollection_3">
    <path d="M 54.626665 248.455064 
L 54.626665 248.455402 
L 101.005886 221.870824 
L 193.764327 157.004453 
L 379.28121 19.296338 
L 379.28121 19.296 
L 379.28121 19.296 
L 193.764327 157.004115 
L 101.005886 221.870486 
L 54.626665 248.455064 
z
" clip-path="url(#pe29afcbc2d)" style="fill: #999999; fill-opacity: 0.4"/>
   </g>
   <g id="line2d_30">
    <path d="M 54.626665 248.455233 
L 101.005886 221.870655 
L 193.764327 157.004284 
L 379.28121 19.296169 
" clip-path="url(#pe29afcbc2d)" style="fill: none; stroke: #57d3db; stroke-width: 1.772454; stroke-linejoin: miter"/>
   </g>
   <g id="PolyCollection_4">
    <path d="M 54.626665 246.328298 
L 54.626665 246.328636 
L 101.005886 221.339133 
L 193.764327 161.257986 
L 379.28121 40.564001 
L 379.28121 40.563663 
L 379.28121 40.563663 
L 193.764327 161.257648 
L 101.005886 221.338794 
L 54.626665 246.328298 
z
" clip-path="url(#pe29afcbc2d)" style="fill: #999999; fill-opacity: 0.4"/>
   </g>
   <g id="line2d_31">
    <path d="M 54.626665 246.328467 
L 101.005886 221.338963 
L 193.764327 161.257817 
L 379.28121 40.563832 
" clip-path="url(#pe29afcbc2d)" style="fill: none; stroke: #a157db; stroke-width: 1.772454; stroke-linejoin: miter"/>
   </g>
   <g id="patch_3">
    <path d="M 402.713938 192.930969 
L 468.370813 192.930969 
L 468.370813 84.125031 
L 402.713938 84.125031 
z
" style="fill: #ffffff"/>
   </g>
   <g id="text_12">
    <!-- Method -->
    <g transform="translate(414.913938 107.718625)scale(0.11 -0.11)">
     <defs>
      <path id="DejaVuSans-4d" d="M 628 4666 
L 1569 4666 
L 2759 1491 
L 3956 4666 
L 4897 4666 
L 4897 0 
L 4281 0 
L 4281 4097 
L 3078 897 
L 2444 897 
L 1241 4097 
L 1241 0 
L 628 0 
L 628 4666 
z
" transform="scale(0.015625)"/>
      <path id="DejaVuSans-65" d="M 3597 1894 
L 3597 1613 
L 953 1613 
Q 991 1019 1311 708 
Q 1631 397 2203 397 
Q 2534 397 2845 478 
Q 3156 559 3463 722 
L 3463 178 
Q 3153 47 2828 -22 
Q 2503 -91 2169 -91 
Q 1331 -91 842 396 
Q 353 884 353 1716 
Q 353 2575 817 3079 
Q 1281 3584 2069 3584 
Q 2775 3584 3186 3129 
Q 3597 2675 3597 1894 
z
M 3022 2063 
Q 3016 2534 2758 2815 
Q 2500 3097 2075 3097 
Q 1594 3097 1305 2825 
Q 1016 2553 972 2059 
L 3022 2063 
z
" transform="scale(0.015625)"/>
      <path id="DejaVuSans-74" d="M 1172 4494 
L 1172 3500 
L 2356 3500 
L 2356 3053 
L 1172 3053 
L 1172 1153 
Q 1172 725 1289 603 
Q 1406 481 1766 481 
L 2356 481 
L 2356 0 
L 1766 0 
Q 1100 0 847 248 
Q 594 497 594 1153 
L 594 3053 
L 172 3053 
L 172 3500 
L 594 3500 
L 594 4494 
L 1172 4494 
z
" transform="scale(0.015625)"/>
      <path id="DejaVuSans-68" d="M 3513 2113 
L 3513 0 
L 2938 0 
L 2938 2094 
Q 2938 2591 2744 2837 
Q 2550 3084 2163 3084 
Q 1697 3084 1428 2787 
Q 1159 2491 1159 1978 
L 1159 0 
L 581 0 
L 581 4863 
L 1159 4863 
L 1159 2956 
Q 1366 3272 1645 3428 
Q 1925 3584 2291 3584 
Q 2894 3584 3203 3211 
Q 3513 2838 3513 2113 
z
" transform="scale(0.015625)"/>
      <path id="DejaVuSans-6f" d="M 1959 3097 
Q 1497 3097 1228 2736 
Q 959 2375 959 1747 
Q 959 1119 1226 758 
Q 1494 397 1959 397 
Q 2419 397 2687 759 
Q 2956 1122 2956 1747 
Q 2956 2369 2687 2733 
Q 2419 3097 1959 3097 
z
M 1959 3584 
Q 2709 3584 3137 3096 
Q 3566 2609 3566 1747 
Q 3566 888 3137 398 
Q 2709 -91 1959 -91 
Q 1206 -91 779 398 
Q 353 888 353 1747 
Q 353 2609 779 3096 
Q 1206 3584 1959 3584 
z
" transform="scale(0.015625)"/>
      <path id="DejaVuSans-64" d="M 2906 2969 
L 2906 4863 
L 3481 4863 
L 3481 0 
L 2906 0 
L 2906 525 
Q 2725 213 2448 61 
Q 2172 -91 1784 -91 
Q 1150 -91 751 415 
Q 353 922 353 1747 
Q 353 2572 751 3078 
Q 1150 3584 1784 3584 
Q 2172 3584 2448 3432 
Q 2725 3281 2906 2969 
z
M 947 1747 
Q 947 1113 1208 752 
Q 1469 391 1925 391 
Q 2381 391 2643 752 
Q 2906 1113 2906 1747 
Q 2906 2381 2643 2742 
Q 2381 3103 1925 3103 
Q 1469 3103 1208 2742 
Q 947 2381 947 1747 
z
" transform="scale(0.015625)"/>
     </defs>
     <use xlink:href="#DejaVuSans-4d"/>
     <use xlink:href="#DejaVuSans-65" x="86.279297"/>
     <use xlink:href="#DejaVuSans-74" x="147.802734"/>
     <use xlink:href="#DejaVuSans-68" x="187.011719"/>
     <use xlink:href="#DejaVuSans-6f" x="250.390625"/>
     <use xlink:href="#DejaVuSans-64" x="311.572266"/>
    </g>
   </g>
   <g id="patch_4">
    <path d="M 414.913938 127.210969 
L 430.753938 127.210969 
L 430.753938 111.370969 
L 414.913938 111.370969 
z
" clip-path="url(#p827f8c4ae8)" style="fill: #f2f2f2"/>
   </g>
   <g id="line2d_32">
    <path d="M 422.833938 119.290969 
" clip-path="url(#p827f8c4ae8)" style="fill: none; stroke: #1f77b4; stroke-width: 1.5; stroke-linecap: square"/>
    <defs>
     <path id="m54104e7446" d="M 0 1.772454 
C 0.47006 1.772454 0.920931 1.585697 1.253314 1.253314 
C 1.585697 0.920931 1.772454 0.47006 1.772454 0 
C 1.772454 -0.47006 1.585697 -0.920931 1.253314 -1.253314 
C 0.920931 -1.585697 0.47006 -1.772454 0 -1.772454 
C -0.47006 -1.772454 -0.920931 -1.585697 -1.253314 -1.253314 
C -1.585697 -0.920931 -1.772454 -0.47006 -1.772454 0 
C -1.772454 0.47006 -1.585697 0.920931 -1.253314 1.253314 
C -0.920931 1.585697 -0.47006 1.772454 0 1.772454 
z
" style="stroke: #db5f57; stroke-width: 0.886227"/>
    </defs>
    <g clip-path="url(#p827f8c4ae8)">
     <use xlink:href="#m54104e7446" x="422.833938" y="119.290969" style="fill: #db5f57; stroke: #db5f57; stroke-width: 0.886227"/>
    </g>
   </g>
   <g id="patch_5">
    <path d="M 414.913938 123.250969 
L 430.753938 123.250969 
L 430.753938 115.330969 
L 414.913938 115.330969 
z
" clip-path="url(#p827f8c4ae8)" style="fill: #999999; opacity: 0.4"/>
   </g>
   <g id="line2d_33">
    <path d="M 414.913938 119.290969 
L 430.753938 119.290969 
" clip-path="url(#p827f8c4ae8)" style="fill: none; stroke: #db5f57; stroke-width: 1.772454"/>
   </g>
   <g id="text_13">
    <!-- best -->
    <g transform="translate(433.753938 121.719219)scale(0.088 -0.088)">
     <defs>
      <path id="DejaVuSans-62" d="M 3116 1747 
Q 3116 2381 2855 2742 
Q 2594 3103 2138 3103 
Q 1681 3103 1420 2742 
Q 1159 2381 1159 1747 
Q 1159 1113 1420 752 
Q 1681 391 2138 391 
Q 2594 391 2855 752 
Q 3116 1113 3116 1747 
z
M 1159 2969 
Q 1341 3281 1617 3432 
Q 1894 3584 2278 3584 
Q 2916 3584 3314 3078 
Q 3713 2572 3713 1747 
Q 3713 922 3314 415 
Q 2916 -91 2278 -91 
Q 1894 -91 1617 61 
Q 1341 213 1159 525 
L 1159 0 
L 581 0 
L 581 4863 
L 1159 4863 
L 1159 2969 
z
" transform="scale(0.015625)"/>
      <path id="DejaVuSans-73" d="M 2834 3397 
L 2834 2853 
Q 2591 2978 2328 3040 
Q 2066 3103 1784 3103 
Q 1356 3103 1142 2972 
Q 928 2841 928 2578 
Q 928 2378 1081 2264 
Q 1234 2150 1697 2047 
L 1894 2003 
Q 2506 1872 2764 1633 
Q 3022 1394 3022 966 
Q 3022 478 2636 193 
Q 2250 -91 1575 -91 
Q 1294 -91 989 -36 
Q 684 19 347 128 
L 347 722 
Q 666 556 975 473 
Q 1284 391 1588 391 
Q 1994 391 2212 530 
Q 2431 669 2431 922 
Q 2431 1156 2273 1281 
Q 2116 1406 1581 1522 
L 1381 1569 
Q 847 1681 609 1914 
Q 372 2147 372 2553 
Q 372 3047 722 3315 
Q 1072 3584 1716 3584 
Q 2034 3584 2315 3537 
Q 2597 3491 2834 3397 
z
" transform="scale(0.015625)"/>
     </defs>
     <use xlink:href="#DejaVuSans-62"/>
     <use xlink:href="#DejaVuSans-65" x="63.476562"/>
     <use xlink:href="#DejaVuSans-73" x="125"/>
     <use xlink:href="#DejaVuSans-74" x="177.099609"/>
    </g>
   </g>
   <g id="patch_6">
    <path d="M 414.913938 145.050969 
L 430.753938 145.050969 
L 430.753938 129.210969 
L 414.913938 129.210969 
z
" clip-path="url(#pdda11d42e2)" style="fill: #f2f2f2"/>
   </g>
   <g id="line2d_34">
    <path d="M 422.833938 137.130969 
" clip-path="url(#pdda11d42e2)" style="fill: none; stroke: #1f77b4; stroke-width: 1.5; stroke-linecap: square"/>
    <defs>
     <path id="m5d6c29c435" d="M 0 1.772454 
C 0.47006 1.772454 0.920931 1.585697 1.253314 1.253314 
C 1.585697 0.920931 1.772454 0.47006 1.772454 0 
C 1.772454 -0.47006 1.585697 -0.920931 1.253314 -1.253314 
C 0.920931 -1.585697 0.47006 -1.772454 0 -1.772454 
C -0.47006 -1.772454 -0.920931 -1.585697 -1.253314 -1.253314 
C -1.585697 -0.920931 -1.772454 -0.47006 -1.772454 0 
C -1.772454 0.47006 -1.585697 0.920931 -1.253314 1.253314 
C -0.920931 1.585697 -0.47006 1.772454 0 1.772454 
z
" style="stroke: #91db57; stroke-width: 0.886227"/>
    </defs>
    <g clip-path="url(#pdda11d42e2)">
     <use xlink:href="#m5d6c29c435" x="422.833938" y="137.130969" style="fill: #91db57; stroke: #91db57; stroke-width: 0.886227"/>
    </g>
   </g>
   <g id="patch_7">
    <path d="M 414.913938 141.090969 
L 430.753938 141.090969 
L 430.753938 133.170969 
L 414.913938 133.170969 
z
" clip-path="url(#pdda11d42e2)" style="fill: #999999; opacity: 0.4"/>
   </g>
   <g id="line2d_35">
    <path d="M 414.913938 137.130969 
L 430.753938 137.130969 
" clip-path="url(#pdda11d42e2)" style="fill: none; stroke: #91db57; stroke-width: 1.772454"/>
   </g>
   <g id="text_14">
    <!-- fc2 -->
    <g transform="translate(433.753938 139.559219)scale(0.088 -0.088)">
     <defs>
      <path id="DejaVuSans-66" d="M 2375 4863 
L 2375 4384 
L 1825 4384 
Q 1516 4384 1395 4259 
Q 1275 4134 1275 3809 
L 1275 3500 
L 2222 3500 
L 2222 3053 
L 1275 3053 
L 1275 0 
L 697 0 
L 697 3053 
L 147 3053 
L 147 3500 
L 697 3500 
L 697 3744 
Q 697 4328 969 4595 
Q 1241 4863 1831 4863 
L 2375 4863 
z
" transform="scale(0.015625)"/>
      <path id="DejaVuSans-63" d="M 3122 3366 
L 3122 2828 
Q 2878 2963 2633 3030 
Q 2388 3097 2138 3097 
Q 1578 3097 1268 2742 
Q 959 2388 959 1747 
Q 959 1106 1268 751 
Q 1578 397 2138 397 
Q 2388 397 2633 464 
Q 2878 531 3122 666 
L 3122 134 
Q 2881 22 2623 -34 
Q 2366 -91 2075 -91 
Q 1284 -91 818 406 
Q 353 903 353 1747 
Q 353 2603 823 3093 
Q 1294 3584 2113 3584 
Q 2378 3584 2631 3529 
Q 2884 3475 3122 3366 
z
" transform="scale(0.015625)"/>
     </defs>
     <use xlink:href="#DejaVuSans-66"/>
     <use xlink:href="#DejaVuSans-63" x="35.205078"/>
     <use xlink:href="#DejaVuSans-32" x="90.185547"/>
    </g>
   </g>
   <g id="patch_8">
    <path d="M 414.913938 162.890969 
L 430.753938 162.890969 
L 430.753938 147.050969 
L 414.913938 147.050969 
z
" clip-path="url(#pfca3599188)" style="fill: #f2f2f2"/>
   </g>
   <g id="line2d_36">
    <path d="M 422.833938 154.970969 
" clip-path="url(#pfca3599188)" style="fill: none; stroke: #1f77b4; stroke-width: 1.5; stroke-linecap: square"/>
    <defs>
     <path id="mf225435697" d="M 0 1.772454 
C 0.47006 1.772454 0.920931 1.585697 1.253314 1.253314 
C 1.585697 0.920931 1.772454 0.47006 1.772454 0 
C 1.772454 -0.47006 1.585697 -0.920931 1.253314 -1.253314 
C 0.920931 -1.585697 0.47006 -1.772454 0 -1.772454 
C -0.47006 -1.772454 -0.920931 -1.585697 -1.253314 -1.253314 
C -1.585697 -0.920931 -1.772454 -0.47006 -1.772454 0 
C -1.772454 0.47006 -1.585697 0.920931 -1.253314 1.253314 
C -0.920931 1.585697 -0.47006 1.772454 0 1.772454 
z
" style="stroke: #57d3db; stroke-width: 0.886227"/>
    </defs>
    <g clip-path="url(#pfca3599188)">
     <use xlink:href="#mf225435697" x="422.833938" y="154.970969" style="fill: #57d3db; stroke: #57d3db; stroke-width: 0.886227"/>
    </g>
   </g>
   <g id="patch_9">
    <path d="M 414.913938 158.930969 
L 430.753938 158.930969 
L 430.753938 151.010969 
L 414.913938 151.010969 
z
" clip-path="url(#pfca3599188)" style="fill: #999999; opacity: 0.4"/>
   </g>
   <g id="line2d_37">
    <path d="M 414.913938 154.970969 
L 430.753938 154.970969 
" clip-path="url(#pfca3599188)" style="fill: none; stroke: #57d3db; stroke-width: 1.772454"/>
   </g>
   <g id="text_15">
    <!-- fc4 -->
    <g transform="translate(433.753938 157.399219)scale(0.088 -0.088)">
     <use xlink:href="#DejaVuSans-66"/>
     <use xlink:href="#DejaVuSans-63" x="35.205078"/>
     <use xlink:href="#DejaVuSans-34" x="90.185547"/>
    </g>
   </g>
   <g id="patch_10">
    <path d="M 414.913938 180.730969 
L 430.753938 180.730969 
L 430.753938 164.890969 
L 414.913938 164.890969 
z
" clip-path="url(#p2cab0e108d)" style="fill: #f2f2f2"/>
   </g>
   <g id="line2d_38">
    <path d="M 422.833938 172.810969 
" clip-path="url(#p2cab0e108d)" style="fill: none; stroke: #1f77b4; stroke-width: 1.5; stroke-linecap: square"/>
    <defs>
     <path id="m234c8a8de7" d="M 0 1.772454 
C 0.47006 1.772454 0.920931 1.585697 1.253314 1.253314 
C 1.585697 0.920931 1.772454 0.47006 1.772454 0 
C 1.772454 -0.47006 1.585697 -0.920931 1.253314 -1.253314 
C 0.920931 -1.585697 0.47006 -1.772454 0 -1.772454 
C -0.47006 -1.772454 -0.920931 -1.585697 -1.253314 -1.253314 
C -1.585697 -0.920931 -1.772454 -0.47006 -1.772454 0 
C -1.772454 0.47006 -1.585697 0.920931 -1.253314 1.253314 
C -0.920931 1.585697 -0.47006 1.772454 0 1.772454 
z
" style="stroke: #a157db; stroke-width: 0.886227"/>
    </defs>
    <g clip-path="url(#p2cab0e108d)">
     <use xlink:href="#m234c8a8de7" x="422.833938" y="172.810969" style="fill: #a157db; stroke: #a157db; stroke-width: 0.886227"/>
    </g>
   </g>
   <g id="patch_11">
    <path d="M 414.913938 176.770969 
L 430.753938 176.770969 
L 430.753938 168.850969 
L 414.913938 168.850969 
z
" clip-path="url(#p2cab0e108d)" style="fill: #999999; opacity: 0.4"/>
   </g>
   <g id="line2d_39">
    <path d="M 414.913938 172.810969 
L 430.753938 172.810969 
" clip-path="url(#p2cab0e108d)" style="fill: none; stroke: #a157db; stroke-width: 1.772454"/>
   </g>
   <g id="text_16">
    <!-- raw -->
    <g transform="translate(433.753938 175.239219)scale(0.088 -0.088)">
     <defs>
      <path id="DejaVuSans-72" d="M 2631 2963 
Q 2534 3019 2420 3045 
Q 2306 3072 2169 3072 
Q 1681 3072 1420 2755 
Q 1159 2438 1159 1844 
L 1159 0 
L 581 0 
L 581 3500 
L 1159 3500 
L 1159 2956 
Q 1341 3275 1631 3429 
Q 1922 3584 2338 3584 
Q 2397 3584 2469 3576 
Q 2541 3569 2628 3553 
L 2631 2963 
z
" transform="scale(0.015625)"/>
      <path id="DejaVuSans-61" d="M 2194 1759 
Q 1497 1759 1228 1600 
Q 959 1441 959 1056 
Q 959 750 1161 570 
Q 1363 391 1709 391 
Q 2188 391 2477 730 
Q 2766 1069 2766 1631 
L 2766 1759 
L 2194 1759 
z
M 3341 1997 
L 3341 0 
L 2766 0 
L 2766 531 
Q 2569 213 2275 61 
Q 1981 -91 1556 -91 
Q 1019 -91 701 211 
Q 384 513 384 1019 
Q 384 1609 779 1909 
Q 1175 2209 1959 2209 
L 2766 2209 
L 2766 2266 
Q 2766 2663 2505 2880 
Q 2244 3097 1772 3097 
Q 1472 3097 1187 3025 
Q 903 2953 641 2809 
L 641 3341 
Q 956 3463 1253 3523 
Q 1550 3584 1831 3584 
Q 2591 3584 2966 3190 
Q 3341 2797 3341 1997 
z
" transform="scale(0.015625)"/>
      <path id="DejaVuSans-77" d="M 269 3500 
L 844 3500 
L 1563 769 
L 2278 3500 
L 2956 3500 
L 3675 769 
L 4391 3500 
L 4966 3500 
L 4050 0 
L 3372 0 
L 2619 2869 
L 1863 0 
L 1184 0 
L 269 3500 
z
" transform="scale(0.015625)"/>
     </defs>
     <use xlink:href="#DejaVuSans-72"/>
     <use xlink:href="#DejaVuSans-61" x="41.113281"/>
     <use xlink:href="#DejaVuSans-77" x="102.392578"/>
    </g>
   </g>
  </g>
 </g>
 <defs>
  <clipPath id="pe29afcbc2d">
   <rect x="38.393938" y="7.2" width="357.12" height="266.112"/>
  </clipPath>
  <clipPath id="p827f8c4ae8">
   <path d="M 414.913938 127.210969 
L 414.913938 111.370969 
L 430.753938 111.370969 
L 430.753938 127.210969 
"/>
  </clipPath>
  <clipPath id="pdda11d42e2">
   <path d="M 414.913938 145.050969 
L 414.913938 129.210969 
L 430.753938 129.210969 
L 430.753938 145.050969 
"/>
  </clipPath>
  <clipPath id="pfca3599188">
   <path d="M 414.913938 162.890969 
L 414.913938 147.050969 
L 430.753938 147.050969 
L 430.753938 162.890969 
"/>
  </clipPath>
  <clipPath id="p2cab0e108d">
   <path d="M 414.913938 180.730969 
L 414.913938 164.890969 
L 430.753938 164.890969 
L 430.753938 180.730969 
"/>
  </clipPath>
 </defs>
</svg>
