<?xml version="1.0" encoding="utf-8" standalone="no"?>
<!DOCTYPE svg PUBLIC "-//W3C//DTD SVG 1.1//EN"
  "http://www.w3.org/Graphics/SVG/1.1/DTD/svg11.dtd">
<svg xmlns:xlink="http://www.w3.org/1999/xlink" width="475.570812pt" height="327.930058pt" viewBox="0 0 475.570812 327.930058" xmlns="http://www.w3.org/2000/svg" version="1.1">
 <metadata>
  <rdf:RDF xmlns:dc="http://purl.org/dc/elements/1.1/" xmlns:cc="http://creativecommons.org/ns#" xmlns:rdf="http://www.w3.org/1999/02/22-rdf-syntax-ns#">
   <cc:Work>
    <dc:type rdf:resource="http://purl.org/dc/dcmitype/StillImage"/>
    <dc:date>2023-04-20T10:22:34.394754</dc:date>
    <dc:format>image/svg+xml</dc:format>
    <dc:creator>
     <cc:Agent>
      <dc:title>Matplotlib v3.5.1, https://matplotlib.org/</dc:title>
     </cc:Agent>
    </dc:creator>
   </cc:Work>
  </rdf:RDF>
 </metadata>
 <defs>
  <style type="text/css">*{stroke-linejoin: round; stroke-linecap: butt}</style>
 </defs>
 <g id="figure_1">
  <g id="patch_1">
   <path d="M 0 327.930058 
L 475.570812 327.930058 
L 475.570812 0 
L 0 0 
z
" style="fill: #ffffff; stroke: #ffffff; stroke-linejoin: miter"/>
  </g>
  <g id="axes_1">
   <g id="patch_2">
    <path d="M 38.393938 292.217371 
L 395.513938 292.217371 
L 395.513938 26.105371 
L 38.393938 26.105371 
z
" style="fill: #ebebeb"/>
   </g>
   <g id="matplotlib.axis_1">
    <g id="xtick_1">
     <g id="line2d_1">
      <path d="M 54.626665 292.217371 
L 54.626665 26.105371 
" clip-path="url(#p763c8b10d4)" style="fill: none; stroke: #ffffff"/>
     </g>
     <g id="line2d_2">
      <path d="M 54.626665 292.217371 
" style="fill: none; stroke: #000000; stroke-width: 1.5"/>
      <defs>
       <path id="mc93e955ad9" d="M 0 0 
L 0 2.75 
" style="stroke: #333333"/>
      </defs>
      <g>
       <use xlink:href="#mc93e955ad9" x="54.626665" y="292.217371" style="stroke: #333333"/>
      </g>
     </g>
     <g id="text_1">
      <!-- 50 -->
      <g style="fill: #4d4d4d" transform="translate(49.027665 303.853996)scale(0.088 -0.088)">
       <defs>
        <path id="DejaVuSans-35" d="M 691 4666 
L 3169 4666 
L 3169 4134 
L 1269 4134 
L 1269 2991 
Q 1406 3038 1543 3061 
Q 1681 3084 1819 3084 
Q 2600 3084 3056 2656 
Q 3513 2228 3513 1497 
Q 3513 744 3044 326 
Q 2575 -91 1722 -91 
Q 1428 -91 1123 -41 
Q 819 9 494 109 
L 494 744 
Q 775 591 1075 516 
Q 1375 441 1709 441 
Q 2250 441 2565 725 
Q 2881 1009 2881 1497 
Q 2881 1984 2565 2268 
Q 2250 2553 1709 2553 
Q 1456 2553 1204 2497 
Q 953 2441 691 2322 
L 691 4666 
z
" transform="scale(0.015625)"/>
        <path id="DejaVuSans-30" d="M 2034 4250 
Q 1547 4250 1301 3770 
Q 1056 3291 1056 2328 
Q 1056 1369 1301 889 
Q 1547 409 2034 409 
Q 2525 409 2770 889 
Q 3016 1369 3016 2328 
Q 3016 3291 2770 3770 
Q 2525 4250 2034 4250 
z
M 2034 4750 
Q 2819 4750 3233 4129 
Q 3647 3509 3647 2328 
Q 3647 1150 3233 529 
Q 2819 -91 2034 -91 
Q 1250 -91 836 529 
Q 422 1150 422 2328 
Q 422 3509 836 4129 
Q 1250 4750 2034 4750 
z
" transform="scale(0.015625)"/>
       </defs>
       <use xlink:href="#DejaVuSans-35"/>
       <use xlink:href="#DejaVuSans-30" x="63.623047"/>
      </g>
     </g>
    </g>
    <g id="xtick_2">
     <g id="line2d_3">
      <path d="M 162.844847 292.217371 
L 162.844847 26.105371 
" clip-path="url(#p763c8b10d4)" style="fill: none; stroke: #ffffff"/>
     </g>
     <g id="line2d_4">
      <path d="M 162.844847 292.217371 
" style="fill: none; stroke: #000000; stroke-width: 1.5"/>
      <g>
       <use xlink:href="#mc93e955ad9" x="162.844847" y="292.217371" style="stroke: #333333"/>
      </g>
     </g>
     <g id="text_2">
      <!-- 100 -->
      <g style="fill: #4d4d4d" transform="translate(154.446347 303.853996)scale(0.088 -0.088)">
       <defs>
        <path id="DejaVuSans-31" d="M 794 531 
L 1825 531 
L 1825 4091 
L 703 3866 
L 703 4441 
L 1819 4666 
L 2450 4666 
L 2450 531 
L 3481 531 
L 3481 0 
L 794 0 
L 794 531 
z
" transform="scale(0.015625)"/>
       </defs>
       <use xlink:href="#DejaVuSans-31"/>
       <use xlink:href="#DejaVuSans-30" x="63.623047"/>
       <use xlink:href="#DejaVuSans-30" x="127.246094"/>
      </g>
     </g>
    </g>
    <g id="xtick_3">
     <g id="line2d_5">
      <path d="M 271.063028 292.217371 
L 271.063028 26.105371 
" clip-path="url(#p763c8b10d4)" style="fill: none; stroke: #ffffff"/>
     </g>
     <g id="line2d_6">
      <path d="M 271.063028 292.217371 
" style="fill: none; stroke: #000000; stroke-width: 1.5"/>
      <g>
       <use xlink:href="#mc93e955ad9" x="271.063028" y="292.217371" style="stroke: #333333"/>
      </g>
     </g>
     <g id="text_3">
      <!-- 150 -->
      <g style="fill: #4d4d4d" transform="translate(262.664528 303.853996)scale(0.088 -0.088)">
       <use xlink:href="#DejaVuSans-31"/>
       <use xlink:href="#DejaVuSans-35" x="63.623047"/>
       <use xlink:href="#DejaVuSans-30" x="127.246094"/>
      </g>
     </g>
    </g>
    <g id="xtick_4">
     <g id="line2d_7">
      <path d="M 379.28121 292.217371 
L 379.28121 26.105371 
" clip-path="url(#p763c8b10d4)" style="fill: none; stroke: #ffffff"/>
     </g>
     <g id="line2d_8">
      <path d="M 379.28121 292.217371 
" style="fill: none; stroke: #000000; stroke-width: 1.5"/>
      <g>
       <use xlink:href="#mc93e955ad9" x="379.28121" y="292.217371" style="stroke: #333333"/>
      </g>
     </g>
     <g id="text_4">
      <!-- 200 -->
      <g style="fill: #4d4d4d" transform="translate(370.88271 303.853996)scale(0.088 -0.088)">
       <defs>
        <path id="DejaVuSans-32" d="M 1228 531 
L 3431 531 
L 3431 0 
L 469 0 
L 469 531 
Q 828 903 1448 1529 
Q 2069 2156 2228 2338 
Q 2531 2678 2651 2914 
Q 2772 3150 2772 3378 
Q 2772 3750 2511 3984 
Q 2250 4219 1831 4219 
Q 1534 4219 1204 4116 
Q 875 4013 500 3803 
L 500 4441 
Q 881 4594 1212 4672 
Q 1544 4750 1819 4750 
Q 2544 4750 2975 4387 
Q 3406 4025 3406 3419 
Q 3406 3131 3298 2873 
Q 3191 2616 2906 2266 
Q 2828 2175 2409 1742 
Q 1991 1309 1228 531 
z
" transform="scale(0.015625)"/>
       </defs>
       <use xlink:href="#DejaVuSans-32"/>
       <use xlink:href="#DejaVuSans-30" x="63.623047"/>
       <use xlink:href="#DejaVuSans-30" x="127.246094"/>
      </g>
     </g>
    </g>
    <g id="xtick_5">
     <g id="line2d_9">
      <path d="M 108.735756 292.217371 
L 108.735756 26.105371 
" clip-path="url(#p763c8b10d4)" style="fill: none; stroke: #ffffff; stroke-width: 0.5"/>
     </g>
    </g>
    <g id="xtick_6">
     <g id="line2d_10">
      <path d="M 216.953937 292.217371 
L 216.953937 26.105371 
" clip-path="url(#p763c8b10d4)" style="fill: none; stroke: #ffffff; stroke-width: 0.5"/>
     </g>
    </g>
    <g id="xtick_7">
     <g id="line2d_11">
      <path d="M 325.172119 292.217371 
L 325.172119 26.105371 
" clip-path="url(#p763c8b10d4)" style="fill: none; stroke: #ffffff; stroke-width: 0.5"/>
     </g>
    </g>
    <g id="text_5">
     <!-- k -->
     <g transform="translate(208.009094 318.442402)scale(0.11 -0.11)">
      <defs>
       <path id="DejaVuSans-6b" d="M 581 4863 
L 1159 4863 
L 1159 1991 
L 2875 3500 
L 3609 3500 
L 1753 1863 
L 3688 0 
L 2938 0 
L 1159 1709 
L 1159 0 
L 581 0 
L 581 4863 
z
" transform="scale(0.015625)"/>
      </defs>
      <use xlink:href="#DejaVuSans-6b"/>
     </g>
    </g>
   </g>
   <g id="matplotlib.axis_2">
    <g id="ytick_1">
     <g id="line2d_12">
      <path d="M 38.393938 231.983908 
L 395.513938 231.983908 
" clip-path="url(#p763c8b10d4)" style="fill: none; stroke: #ffffff"/>
     </g>
     <g id="line2d_13">
      <path d="M 38.393938 231.983908 
" style="fill: none; stroke: #000000; stroke-width: 1.5"/>
      <defs>
       <path id="m7ff59854aa" d="M 0 0 
L -2.75 0 
" style="stroke: #333333"/>
      </defs>
      <g>
       <use xlink:href="#m7ff59854aa" x="38.393938" y="231.983908" style="stroke: #333333"/>
      </g>
     </g>
     <g id="text_6">
      <!-- 5 -->
      <g style="fill: #4d4d4d" transform="translate(27.844938 234.412158)scale(0.088 -0.088)">
       <use xlink:href="#DejaVuSans-35"/>
      </g>
     </g>
    </g>
    <g id="ytick_2">
     <g id="line2d_14">
      <path d="M 38.393938 170.269893 
L 395.513938 170.269893 
" clip-path="url(#p763c8b10d4)" style="fill: none; stroke: #ffffff"/>
     </g>
     <g id="line2d_15">
      <path d="M 38.393938 170.269893 
" style="fill: none; stroke: #000000; stroke-width: 1.5"/>
      <g>
       <use xlink:href="#m7ff59854aa" x="38.393938" y="170.269893" style="stroke: #333333"/>
      </g>
     </g>
     <g id="text_7">
      <!-- 10 -->
      <g style="fill: #4d4d4d" transform="translate(22.245938 172.698143)scale(0.088 -0.088)">
       <use xlink:href="#DejaVuSans-31"/>
       <use xlink:href="#DejaVuSans-30" x="63.623047"/>
      </g>
     </g>
    </g>
    <g id="ytick_3">
     <g id="line2d_16">
      <path d="M 38.393938 108.555879 
L 395.513938 108.555879 
" clip-path="url(#p763c8b10d4)" style="fill: none; stroke: #ffffff"/>
     </g>
     <g id="line2d_17">
      <path d="M 38.393938 108.555879 
" style="fill: none; stroke: #000000; stroke-width: 1.5"/>
      <g>
       <use xlink:href="#m7ff59854aa" x="38.393938" y="108.555879" style="stroke: #333333"/>
      </g>
     </g>
     <g id="text_8">
      <!-- 15 -->
      <g style="fill: #4d4d4d" transform="translate(22.245938 110.984129)scale(0.088 -0.088)">
       <use xlink:href="#DejaVuSans-31"/>
       <use xlink:href="#DejaVuSans-35" x="63.623047"/>
      </g>
     </g>
    </g>
    <g id="ytick_4">
     <g id="line2d_18">
      <path d="M 38.393938 46.841864 
L 395.513938 46.841864 
" clip-path="url(#p763c8b10d4)" style="fill: none; stroke: #ffffff"/>
     </g>
     <g id="line2d_19">
      <path d="M 38.393938 46.841864 
" style="fill: none; stroke: #000000; stroke-width: 1.5"/>
      <g>
       <use xlink:href="#m7ff59854aa" x="38.393938" y="46.841864" style="stroke: #333333"/>
      </g>
     </g>
     <g id="text_9">
      <!-- 20 -->
      <g style="fill: #4d4d4d" transform="translate(22.245938 49.270114)scale(0.088 -0.088)">
       <use xlink:href="#DejaVuSans-32"/>
       <use xlink:href="#DejaVuSans-30" x="63.623047"/>
      </g>
     </g>
    </g>
    <g id="ytick_5">
     <g id="line2d_20">
      <path d="M 38.393938 262.840916 
L 395.513938 262.840916 
" clip-path="url(#p763c8b10d4)" style="fill: none; stroke: #ffffff; stroke-width: 0.5"/>
     </g>
    </g>
    <g id="ytick_6">
     <g id="line2d_21">
      <path d="M 38.393938 201.126901 
L 395.513938 201.126901 
" clip-path="url(#p763c8b10d4)" style="fill: none; stroke: #ffffff; stroke-width: 0.5"/>
     </g>
    </g>
    <g id="ytick_7">
     <g id="line2d_22">
      <path d="M 38.393938 139.412886 
L 395.513938 139.412886 
" clip-path="url(#p763c8b10d4)" style="fill: none; stroke: #ffffff; stroke-width: 0.5"/>
     </g>
    </g>
    <g id="ytick_8">
     <g id="line2d_23">
      <path d="M 38.393938 77.698871 
L 395.513938 77.698871 
" clip-path="url(#p763c8b10d4)" style="fill: none; stroke: #ffffff; stroke-width: 0.5"/>
     </g>
    </g>
    <g id="text_10">
     <!-- time -->
     <g transform="translate(15.558281 169.859074)rotate(-90)scale(0.11 -0.11)">
      <defs>
       <path id="DejaVuSans-74" d="M 1172 4494 
L 1172 3500 
L 2356 3500 
L 2356 3053 
L 1172 3053 
L 1172 1153 
Q 1172 725 1289 603 
Q 1406 481 1766 481 
L 2356 481 
L 2356 0 
L 1766 0 
Q 1100 0 847 248 
Q 594 497 594 1153 
L 594 3053 
L 172 3053 
L 172 3500 
L 594 3500 
L 594 4494 
L 1172 4494 
z
" transform="scale(0.015625)"/>
       <path id="DejaVuSans-69" d="M 603 3500 
L 1178 3500 
L 1178 0 
L 603 0 
L 603 3500 
z
M 603 4863 
L 1178 4863 
L 1178 4134 
L 603 4134 
L 603 4863 
z
" transform="scale(0.015625)"/>
       <path id="DejaVuSans-6d" d="M 3328 2828 
Q 3544 3216 3844 3400 
Q 4144 3584 4550 3584 
Q 5097 3584 5394 3201 
Q 5691 2819 5691 2113 
L 5691 0 
L 5113 0 
L 5113 2094 
Q 5113 2597 4934 2840 
Q 4756 3084 4391 3084 
Q 3944 3084 3684 2787 
Q 3425 2491 3425 1978 
L 3425 0 
L 2847 0 
L 2847 2094 
Q 2847 2600 2669 2842 
Q 2491 3084 2119 3084 
Q 1678 3084 1418 2786 
Q 1159 2488 1159 1978 
L 1159 0 
L 581 0 
L 581 3500 
L 1159 3500 
L 1159 2956 
Q 1356 3278 1631 3431 
Q 1906 3584 2284 3584 
Q 2666 3584 2933 3390 
Q 3200 3197 3328 2828 
z
" transform="scale(0.015625)"/>
       <path id="DejaVuSans-65" d="M 3597 1894 
L 3597 1613 
L 953 1613 
Q 991 1019 1311 708 
Q 1631 397 2203 397 
Q 2534 397 2845 478 
Q 3156 559 3463 722 
L 3463 178 
Q 3153 47 2828 -22 
Q 2503 -91 2169 -91 
Q 1331 -91 842 396 
Q 353 884 353 1716 
Q 353 2575 817 3079 
Q 1281 3584 2069 3584 
Q 2775 3584 3186 3129 
Q 3597 2675 3597 1894 
z
M 3022 2063 
Q 3016 2534 2758 2815 
Q 2500 3097 2075 3097 
Q 1594 3097 1305 2825 
Q 1016 2553 972 2059 
L 3022 2063 
z
" transform="scale(0.015625)"/>
      </defs>
      <use xlink:href="#DejaVuSans-74"/>
      <use xlink:href="#DejaVuSans-69" x="39.208984"/>
      <use xlink:href="#DejaVuSans-6d" x="66.992188"/>
      <use xlink:href="#DejaVuSans-65" x="164.404297"/>
     </g>
    </g>
   </g>
   <g id="PathCollection_1">
    <path d="M 54.626665 247.333445 
C 55.096725 247.333445 55.547596 247.146688 55.879979 246.814306 
C 56.212362 246.481923 56.399119 246.031052 56.399119 245.560991 
C 56.399119 245.090931 56.212362 244.64006 55.879979 244.307677 
C 55.547596 243.975294 55.096725 243.788538 54.626665 243.788538 
C 54.156605 243.788538 53.705733 243.975294 53.373351 244.307677 
C 53.040968 244.64006 52.854211 245.090931 52.854211 245.560991 
C 52.854211 246.031052 53.040968 246.481923 53.373351 246.814306 
C 53.705733 247.146688 54.156605 247.333445 54.626665 247.333445 
z
" clip-path="url(#p763c8b10d4)" style="fill: #a157db; stroke: #a157db; stroke-width: 0.886227"/>
    <path d="M 162.844847 189.322271 
C 163.314907 189.322271 163.765778 189.135514 164.098161 188.803132 
C 164.430544 188.470749 164.6173 188.019878 164.6173 187.549817 
C 164.6173 187.079757 164.430544 186.628886 164.098161 186.296503 
C 163.765778 185.964121 163.314907 185.777364 162.844847 185.777364 
C 162.374786 185.777364 161.923915 185.964121 161.591532 186.296503 
C 161.25915 186.628886 161.072393 187.079757 161.072393 187.549817 
C 161.072393 188.019878 161.25915 188.470749 161.591532 188.803132 
C 161.923915 189.135514 162.374786 189.322271 162.844847 189.322271 
z
" clip-path="url(#p763c8b10d4)" style="fill: #a157db; stroke: #a157db; stroke-width: 0.886227"/>
    <path d="M 379.28121 49.848598 
C 379.75127 49.848598 380.202142 49.661841 380.534524 49.329458 
C 380.866907 48.997075 381.053664 48.546204 381.053664 48.076144 
C 381.053664 47.606084 380.866907 47.155213 380.534524 46.82283 
C 380.202142 46.490447 379.75127 46.30369 379.28121 46.30369 
C 378.81115 46.30369 378.360279 46.490447 378.027896 46.82283 
C 377.695513 47.155213 377.508756 47.606084 377.508756 48.076144 
C 377.508756 48.546204 377.695513 48.997075 378.027896 49.329458 
C 378.360279 49.661841 378.81115 49.848598 379.28121 49.848598 
z
" clip-path="url(#p763c8b10d4)" style="fill: #a157db; stroke: #a157db; stroke-width: 0.886227"/>
    <path d="M 54.626665 281.893294 
C 55.096725 281.893294 55.547596 281.706537 55.879979 281.374154 
C 56.212362 281.041771 56.399119 280.5909 56.399119 280.12084 
C 56.399119 279.650779 56.212362 279.199908 55.879979 278.867526 
C 55.547596 278.535143 55.096725 278.348386 54.626665 278.348386 
C 54.156605 278.348386 53.705733 278.535143 53.373351 278.867526 
C 53.040968 279.199908 52.854211 279.650779 52.854211 280.12084 
C 52.854211 280.5909 53.040968 281.041771 53.373351 281.374154 
C 53.705733 281.706537 54.156605 281.893294 54.626665 281.893294 
z
" clip-path="url(#p763c8b10d4)" style="fill: #db5f57; stroke: #db5f57; stroke-width: 0.886227"/>
    <path d="M 162.844847 252.270566 
C 163.314907 252.270566 163.765778 252.083809 164.098161 251.751427 
C 164.430544 251.419044 164.6173 250.968173 164.6173 250.498113 
C 164.6173 250.028052 164.430544 249.577181 164.098161 249.244798 
C 163.765778 248.912416 163.314907 248.725659 162.844847 248.725659 
C 162.374786 248.725659 161.923915 248.912416 161.591532 249.244798 
C 161.25915 249.577181 161.072393 250.028052 161.072393 250.498113 
C 161.072393 250.968173 161.25915 251.419044 161.591532 251.751427 
C 161.923915 252.083809 162.374786 252.270566 162.844847 252.270566 
z
" clip-path="url(#p763c8b10d4)" style="fill: #db5f57; stroke: #db5f57; stroke-width: 0.886227"/>
    <path d="M 379.28121 169.573787 
C 379.75127 169.573787 380.202142 169.38703 380.534524 169.054647 
C 380.866907 168.722264 381.053664 168.271393 381.053664 167.801333 
C 381.053664 167.331273 380.866907 166.880401 380.534524 166.548019 
C 380.202142 166.215636 379.75127 166.028879 379.28121 166.028879 
C 378.81115 166.028879 378.360279 166.215636 378.027896 166.548019 
C 377.695513 166.880401 377.508756 167.331273 377.508756 167.801333 
C 377.508756 168.271393 377.695513 168.722264 378.027896 169.054647 
C 378.360279 169.38703 378.81115 169.573787 379.28121 169.573787 
z
" clip-path="url(#p763c8b10d4)" style="fill: #db5f57; stroke: #db5f57; stroke-width: 0.886227"/>
    <path d="M 54.626665 259.676248 
C 55.096725 259.676248 55.547596 259.489491 55.879979 259.157108 
C 56.212362 258.824726 56.399119 258.373855 56.399119 257.903794 
C 56.399119 257.433734 56.212362 256.982863 55.879979 256.65048 
C 55.547596 256.318097 55.096725 256.13134 54.626665 256.13134 
C 54.156605 256.13134 53.705733 256.318097 53.373351 256.65048 
C 53.040968 256.982863 52.854211 257.433734 52.854211 257.903794 
C 52.854211 258.373855 53.040968 258.824726 53.373351 259.157108 
C 53.705733 259.489491 54.156605 259.676248 54.626665 259.676248 
z
" clip-path="url(#p763c8b10d4)" style="fill: #91db57; stroke: #91db57; stroke-width: 0.886227"/>
    <path d="M 162.844847 205.367915 
C 163.314907 205.367915 163.765778 205.181158 164.098161 204.848775 
C 164.430544 204.516393 164.6173 204.065522 164.6173 203.595461 
C 164.6173 203.125401 164.430544 202.67453 164.098161 202.342147 
C 163.765778 202.009764 163.314907 201.823007 162.844847 201.823007 
C 162.374786 201.823007 161.923915 202.009764 161.591532 202.342147 
C 161.25915 202.67453 161.072393 203.125401 161.072393 203.595461 
C 161.072393 204.065522 161.25915 204.516393 161.591532 204.848775 
C 161.923915 205.181158 162.374786 205.367915 162.844847 205.367915 
z
" clip-path="url(#p763c8b10d4)" style="fill: #91db57; stroke: #91db57; stroke-width: 0.886227"/>
    <path d="M 379.28121 68.362802 
C 379.75127 68.362802 380.202142 68.176045 380.534524 67.843663 
C 380.866907 67.51128 381.053664 67.060409 381.053664 66.590349 
C 381.053664 66.120288 380.866907 65.669417 380.534524 65.337034 
C 380.202142 65.004652 379.75127 64.817895 379.28121 64.817895 
C 378.81115 64.817895 378.360279 65.004652 378.027896 65.337034 
C 377.695513 65.669417 377.508756 66.120288 377.508756 66.590349 
C 377.508756 67.060409 377.695513 67.51128 378.027896 67.843663 
C 378.360279 68.176045 378.81115 68.362802 379.28121 68.362802 
z
" clip-path="url(#p763c8b10d4)" style="fill: #91db57; stroke: #91db57; stroke-width: 0.886227"/>
    <path d="M 54.626665 252.270566 
C 55.096725 252.270566 55.547596 252.083809 55.879979 251.751427 
C 56.212362 251.419044 56.399119 250.968173 56.399119 250.498113 
C 56.399119 250.028052 56.212362 249.577181 55.879979 249.244798 
C 55.547596 248.912416 55.096725 248.725659 54.626665 248.725659 
C 54.156605 248.725659 53.705733 248.912416 53.373351 249.244798 
C 53.040968 249.577181 52.854211 250.028052 52.854211 250.498113 
C 52.854211 250.968173 53.040968 251.419044 53.373351 251.751427 
C 53.705733 252.083809 54.156605 252.270566 54.626665 252.270566 
z
" clip-path="url(#p763c8b10d4)" style="fill: #57d3db; stroke: #57d3db; stroke-width: 0.886227"/>
    <path d="M 162.844847 190.556552 
C 163.314907 190.556552 163.765778 190.369795 164.098161 190.037412 
C 164.430544 189.705029 164.6173 189.254158 164.6173 188.784098 
C 164.6173 188.314038 164.430544 187.863166 164.098161 187.530784 
C 163.765778 187.198401 163.314907 187.011644 162.844847 187.011644 
C 162.374786 187.011644 161.923915 187.198401 161.591532 187.530784 
C 161.25915 187.863166 161.072393 188.314038 161.072393 188.784098 
C 161.072393 189.254158 161.25915 189.705029 161.591532 190.037412 
C 161.923915 190.369795 162.374786 190.556552 162.844847 190.556552 
z
" clip-path="url(#p763c8b10d4)" style="fill: #57d3db; stroke: #57d3db; stroke-width: 0.886227"/>
    <path d="M 379.28121 39.974356 
C 379.75127 39.974356 380.202142 39.787599 380.534524 39.455216 
C 380.866907 39.122833 381.053664 38.671962 381.053664 38.201902 
C 381.053664 37.731842 380.866907 37.28097 380.534524 36.948588 
C 380.202142 36.616205 379.75127 36.429448 379.28121 36.429448 
C 378.81115 36.429448 378.360279 36.616205 378.027896 36.948588 
C 377.695513 37.28097 377.508756 37.731842 377.508756 38.201902 
C 377.508756 38.671962 377.695513 39.122833 378.027896 39.455216 
C 378.360279 39.787599 378.81115 39.974356 379.28121 39.974356 
z
" clip-path="url(#p763c8b10d4)" style="fill: #57d3db; stroke: #57d3db; stroke-width: 0.886227"/>
   </g>
   <g id="PolyCollection_1">
    <path d="M 54.626665 280.120309 
L 54.626665 280.121371 
L 162.844847 250.498644 
L 379.28121 167.801864 
L 379.28121 167.800802 
L 379.28121 167.800802 
L 162.844847 250.497581 
L 54.626665 280.120309 
z
" clip-path="url(#p763c8b10d4)" style="fill: #999999; fill-opacity: 0.4"/>
   </g>
   <g id="line2d_24">
    <path d="M 54.626665 280.12084 
L 162.844847 250.498113 
L 379.28121 167.801333 
" clip-path="url(#p763c8b10d4)" style="fill: none; stroke: #db5f57; stroke-width: 1.772454; stroke-linejoin: miter"/>
   </g>
   <g id="PolyCollection_2">
    <path d="M 54.626665 257.903263 
L 54.626665 257.904325 
L 162.844847 203.595992 
L 379.28121 66.59088 
L 379.28121 66.589818 
L 379.28121 66.589818 
L 162.844847 203.59493 
L 54.626665 257.903263 
z
" clip-path="url(#p763c8b10d4)" style="fill: #999999; fill-opacity: 0.4"/>
   </g>
   <g id="line2d_25">
    <path d="M 54.626665 257.903794 
L 162.844847 203.595461 
L 379.28121 66.590349 
" clip-path="url(#p763c8b10d4)" style="fill: none; stroke: #91db57; stroke-width: 1.772454; stroke-linejoin: miter"/>
   </g>
   <g id="PolyCollection_3">
    <path d="M 54.626665 250.497581 
L 54.626665 250.498644 
L 162.844847 188.784629 
L 379.28121 38.202433 
L 379.28121 38.201371 
L 379.28121 38.201371 
L 162.844847 188.783567 
L 54.626665 250.497581 
z
" clip-path="url(#p763c8b10d4)" style="fill: #999999; fill-opacity: 0.4"/>
   </g>
   <g id="line2d_26">
    <path d="M 54.626665 250.498113 
L 162.844847 188.784098 
L 379.28121 38.201902 
" clip-path="url(#p763c8b10d4)" style="fill: none; stroke: #57d3db; stroke-width: 1.772454; stroke-linejoin: miter"/>
   </g>
   <g id="PolyCollection_4">
    <path d="M 54.626665 245.56046 
L 54.626665 245.561522 
L 162.844847 187.550349 
L 379.28121 48.076675 
L 379.28121 48.075613 
L 379.28121 48.075613 
L 162.844847 187.549286 
L 54.626665 245.56046 
z
" clip-path="url(#p763c8b10d4)" style="fill: #999999; fill-opacity: 0.4"/>
   </g>
   <g id="line2d_27">
    <path d="M 54.626665 245.560991 
L 162.844847 187.549818 
L 379.28121 48.076144 
" clip-path="url(#p763c8b10d4)" style="fill: none; stroke: #a157db; stroke-width: 1.772454; stroke-linejoin: miter"/>
   </g>
   <g id="patch_3">
    <path d="M 402.713938 211.836339 
L 468.370813 211.836339 
L 468.370813 103.030402 
L 402.713938 103.030402 
z
" style="fill: #ffffff"/>
   </g>
   <g id="text_11">
    <!-- Method -->
    <g transform="translate(414.913938 126.623996)scale(0.11 -0.11)">
     <defs>
      <path id="DejaVuSans-4d" d="M 628 4666 
L 1569 4666 
L 2759 1491 
L 3956 4666 
L 4897 4666 
L 4897 0 
L 4281 0 
L 4281 4097 
L 3078 897 
L 2444 897 
L 1241 4097 
L 1241 0 
L 628 0 
L 628 4666 
z
" transform="scale(0.015625)"/>
      <path id="DejaVuSans-68" d="M 3513 2113 
L 3513 0 
L 2938 0 
L 2938 2094 
Q 2938 2591 2744 2837 
Q 2550 3084 2163 3084 
Q 1697 3084 1428 2787 
Q 1159 2491 1159 1978 
L 1159 0 
L 581 0 
L 581 4863 
L 1159 4863 
L 1159 2956 
Q 1366 3272 1645 3428 
Q 1925 3584 2291 3584 
Q 2894 3584 3203 3211 
Q 3513 2838 3513 2113 
z
" transform="scale(0.015625)"/>
      <path id="DejaVuSans-6f" d="M 1959 3097 
Q 1497 3097 1228 2736 
Q 959 2375 959 1747 
Q 959 1119 1226 758 
Q 1494 397 1959 397 
Q 2419 397 2687 759 
Q 2956 1122 2956 1747 
Q 2956 2369 2687 2733 
Q 2419 3097 1959 3097 
z
M 1959 3584 
Q 2709 3584 3137 3096 
Q 3566 2609 3566 1747 
Q 3566 888 3137 398 
Q 2709 -91 1959 -91 
Q 1206 -91 779 398 
Q 353 888 353 1747 
Q 353 2609 779 3096 
Q 1206 3584 1959 3584 
z
" transform="scale(0.015625)"/>
      <path id="DejaVuSans-64" d="M 2906 2969 
L 2906 4863 
L 3481 4863 
L 3481 0 
L 2906 0 
L 2906 525 
Q 2725 213 2448 61 
Q 2172 -91 1784 -91 
Q 1150 -91 751 415 
Q 353 922 353 1747 
Q 353 2572 751 3078 
Q 1150 3584 1784 3584 
Q 2172 3584 2448 3432 
Q 2725 3281 2906 2969 
z
M 947 1747 
Q 947 1113 1208 752 
Q 1469 391 1925 391 
Q 2381 391 2643 752 
Q 2906 1113 2906 1747 
Q 2906 2381 2643 2742 
Q 2381 3103 1925 3103 
Q 1469 3103 1208 2742 
Q 947 2381 947 1747 
z
" transform="scale(0.015625)"/>
     </defs>
     <use xlink:href="#DejaVuSans-4d"/>
     <use xlink:href="#DejaVuSans-65" x="86.279297"/>
     <use xlink:href="#DejaVuSans-74" x="147.802734"/>
     <use xlink:href="#DejaVuSans-68" x="187.011719"/>
     <use xlink:href="#DejaVuSans-6f" x="250.390625"/>
     <use xlink:href="#DejaVuSans-64" x="311.572266"/>
    </g>
   </g>
   <g id="patch_4">
    <path d="M 414.913938 146.116339 
L 430.753938 146.116339 
L 430.753938 130.276339 
L 414.913938 130.276339 
z
" clip-path="url(#pa5cd4e9384)" style="fill: #f2f2f2"/>
   </g>
   <g id="line2d_28">
    <path d="M 422.833938 138.196339 
" clip-path="url(#pa5cd4e9384)" style="fill: none; stroke: #1f77b4; stroke-width: 1.5; stroke-linecap: square"/>
    <defs>
     <path id="m970854f8d7" d="M 0 1.772454 
C 0.47006 1.772454 0.920931 1.585697 1.253314 1.253314 
C 1.585697 0.920931 1.772454 0.47006 1.772454 0 
C 1.772454 -0.47006 1.585697 -0.920931 1.253314 -1.253314 
C 0.920931 -1.585697 0.47006 -1.772454 0 -1.772454 
C -0.47006 -1.772454 -0.920931 -1.585697 -1.253314 -1.253314 
C -1.585697 -0.920931 -1.772454 -0.47006 -1.772454 0 
C -1.772454 0.47006 -1.585697 0.920931 -1.253314 1.253314 
C -0.920931 1.585697 -0.47006 1.772454 0 1.772454 
z
" style="stroke: #db5f57; stroke-width: 0.886227"/>
    </defs>
    <g clip-path="url(#pa5cd4e9384)">
     <use xlink:href="#m970854f8d7" x="422.833938" y="138.196339" style="fill: #db5f57; stroke: #db5f57; stroke-width: 0.886227"/>
    </g>
   </g>
   <g id="patch_5">
    <path d="M 414.913938 142.156339 
L 430.753938 142.156339 
L 430.753938 134.236339 
L 414.913938 134.236339 
z
" clip-path="url(#pa5cd4e9384)" style="fill: #999999; opacity: 0.4"/>
   </g>
   <g id="line2d_29">
    <path d="M 414.913938 138.196339 
L 430.753938 138.196339 
" clip-path="url(#pa5cd4e9384)" style="fill: none; stroke: #db5f57; stroke-width: 1.772454"/>
   </g>
   <g id="text_12">
    <!-- best -->
    <g transform="translate(433.753938 140.624589)scale(0.088 -0.088)">
     <defs>
      <path id="DejaVuSans-62" d="M 3116 1747 
Q 3116 2381 2855 2742 
Q 2594 3103 2138 3103 
Q 1681 3103 1420 2742 
Q 1159 2381 1159 1747 
Q 1159 1113 1420 752 
Q 1681 391 2138 391 
Q 2594 391 2855 752 
Q 3116 1113 3116 1747 
z
M 1159 2969 
Q 1341 3281 1617 3432 
Q 1894 3584 2278 3584 
Q 2916 3584 3314 3078 
Q 3713 2572 3713 1747 
Q 3713 922 3314 415 
Q 2916 -91 2278 -91 
Q 1894 -91 1617 61 
Q 1341 213 1159 525 
L 1159 0 
L 581 0 
L 581 4863 
L 1159 4863 
L 1159 2969 
z
" transform="scale(0.015625)"/>
      <path id="DejaVuSans-73" d="M 2834 3397 
L 2834 2853 
Q 2591 2978 2328 3040 
Q 2066 3103 1784 3103 
Q 1356 3103 1142 2972 
Q 928 2841 928 2578 
Q 928 2378 1081 2264 
Q 1234 2150 1697 2047 
L 1894 2003 
Q 2506 1872 2764 1633 
Q 3022 1394 3022 966 
Q 3022 478 2636 193 
Q 2250 -91 1575 -91 
Q 1294 -91 989 -36 
Q 684 19 347 128 
L 347 722 
Q 666 556 975 473 
Q 1284 391 1588 391 
Q 1994 391 2212 530 
Q 2431 669 2431 922 
Q 2431 1156 2273 1281 
Q 2116 1406 1581 1522 
L 1381 1569 
Q 847 1681 609 1914 
Q 372 2147 372 2553 
Q 372 3047 722 3315 
Q 1072 3584 1716 3584 
Q 2034 3584 2315 3537 
Q 2597 3491 2834 3397 
z
" transform="scale(0.015625)"/>
     </defs>
     <use xlink:href="#DejaVuSans-62"/>
     <use xlink:href="#DejaVuSans-65" x="63.476562"/>
     <use xlink:href="#DejaVuSans-73" x="125"/>
     <use xlink:href="#DejaVuSans-74" x="177.099609"/>
    </g>
   </g>
   <g id="patch_6">
    <path d="M 414.913938 163.956339 
L 430.753938 163.956339 
L 430.753938 148.116339 
L 414.913938 148.116339 
z
" clip-path="url(#p182c0c5bf3)" style="fill: #f2f2f2"/>
   </g>
   <g id="line2d_30">
    <path d="M 422.833938 156.036339 
" clip-path="url(#p182c0c5bf3)" style="fill: none; stroke: #1f77b4; stroke-width: 1.5; stroke-linecap: square"/>
    <defs>
     <path id="m5018e325df" d="M 0 1.772454 
C 0.47006 1.772454 0.920931 1.585697 1.253314 1.253314 
C 1.585697 0.920931 1.772454 0.47006 1.772454 0 
C 1.772454 -0.47006 1.585697 -0.920931 1.253314 -1.253314 
C 0.920931 -1.585697 0.47006 -1.772454 0 -1.772454 
C -0.47006 -1.772454 -0.920931 -1.585697 -1.253314 -1.253314 
C -1.585697 -0.920931 -1.772454 -0.47006 -1.772454 0 
C -1.772454 0.47006 -1.585697 0.920931 -1.253314 1.253314 
C -0.920931 1.585697 -0.47006 1.772454 0 1.772454 
z
" style="stroke: #91db57; stroke-width: 0.886227"/>
    </defs>
    <g clip-path="url(#p182c0c5bf3)">
     <use xlink:href="#m5018e325df" x="422.833938" y="156.036339" style="fill: #91db57; stroke: #91db57; stroke-width: 0.886227"/>
    </g>
   </g>
   <g id="patch_7">
    <path d="M 414.913938 159.996339 
L 430.753938 159.996339 
L 430.753938 152.076339 
L 414.913938 152.076339 
z
" clip-path="url(#p182c0c5bf3)" style="fill: #999999; opacity: 0.4"/>
   </g>
   <g id="line2d_31">
    <path d="M 414.913938 156.036339 
L 430.753938 156.036339 
" clip-path="url(#p182c0c5bf3)" style="fill: none; stroke: #91db57; stroke-width: 1.772454"/>
   </g>
   <g id="text_13">
    <!-- fc2 -->
    <g transform="translate(433.753938 158.464589)scale(0.088 -0.088)">
     <defs>
      <path id="DejaVuSans-66" d="M 2375 4863 
L 2375 4384 
L 1825 4384 
Q 1516 4384 1395 4259 
Q 1275 4134 1275 3809 
L 1275 3500 
L 2222 3500 
L 2222 3053 
L 1275 3053 
L 1275 0 
L 697 0 
L 697 3053 
L 147 3053 
L 147 3500 
L 697 3500 
L 697 3744 
Q 697 4328 969 4595 
Q 1241 4863 1831 4863 
L 2375 4863 
z
" transform="scale(0.015625)"/>
      <path id="DejaVuSans-63" d="M 3122 3366 
L 3122 2828 
Q 2878 2963 2633 3030 
Q 2388 3097 2138 3097 
Q 1578 3097 1268 2742 
Q 959 2388 959 1747 
Q 959 1106 1268 751 
Q 1578 397 2138 397 
Q 2388 397 2633 464 
Q 2878 531 3122 666 
L 3122 134 
Q 2881 22 2623 -34 
Q 2366 -91 2075 -91 
Q 1284 -91 818 406 
Q 353 903 353 1747 
Q 353 2603 823 3093 
Q 1294 3584 2113 3584 
Q 2378 3584 2631 3529 
Q 2884 3475 3122 3366 
z
" transform="scale(0.015625)"/>
     </defs>
     <use xlink:href="#DejaVuSans-66"/>
     <use xlink:href="#DejaVuSans-63" x="35.205078"/>
     <use xlink:href="#DejaVuSans-32" x="90.185547"/>
    </g>
   </g>
   <g id="patch_8">
    <path d="M 414.913938 181.796339 
L 430.753938 181.796339 
L 430.753938 165.956339 
L 414.913938 165.956339 
z
" clip-path="url(#p8690455896)" style="fill: #f2f2f2"/>
   </g>
   <g id="line2d_32">
    <path d="M 422.833938 173.876339 
" clip-path="url(#p8690455896)" style="fill: none; stroke: #1f77b4; stroke-width: 1.5; stroke-linecap: square"/>
    <defs>
     <path id="m0299e26803" d="M 0 1.772454 
C 0.47006 1.772454 0.920931 1.585697 1.253314 1.253314 
C 1.585697 0.920931 1.772454 0.47006 1.772454 0 
C 1.772454 -0.47006 1.585697 -0.920931 1.253314 -1.253314 
C 0.920931 -1.585697 0.47006 -1.772454 0 -1.772454 
C -0.47006 -1.772454 -0.920931 -1.585697 -1.253314 -1.253314 
C -1.585697 -0.920931 -1.772454 -0.47006 -1.772454 0 
C -1.772454 0.47006 -1.585697 0.920931 -1.253314 1.253314 
C -0.920931 1.585697 -0.47006 1.772454 0 1.772454 
z
" style="stroke: #57d3db; stroke-width: 0.886227"/>
    </defs>
    <g clip-path="url(#p8690455896)">
     <use xlink:href="#m0299e26803" x="422.833938" y="173.876339" style="fill: #57d3db; stroke: #57d3db; stroke-width: 0.886227"/>
    </g>
   </g>
   <g id="patch_9">
    <path d="M 414.913938 177.836339 
L 430.753938 177.836339 
L 430.753938 169.916339 
L 414.913938 169.916339 
z
" clip-path="url(#p8690455896)" style="fill: #999999; opacity: 0.4"/>
   </g>
   <g id="line2d_33">
    <path d="M 414.913938 173.876339 
L 430.753938 173.876339 
" clip-path="url(#p8690455896)" style="fill: none; stroke: #57d3db; stroke-width: 1.772454"/>
   </g>
   <g id="text_14">
    <!-- fc4 -->
    <g transform="translate(433.753938 176.304589)scale(0.088 -0.088)">
     <defs>
      <path id="DejaVuSans-34" d="M 2419 4116 
L 825 1625 
L 2419 1625 
L 2419 4116 
z
M 2253 4666 
L 3047 4666 
L 3047 1625 
L 3713 1625 
L 3713 1100 
L 3047 1100 
L 3047 0 
L 2419 0 
L 2419 1100 
L 313 1100 
L 313 1709 
L 2253 4666 
z
" transform="scale(0.015625)"/>
     </defs>
     <use xlink:href="#DejaVuSans-66"/>
     <use xlink:href="#DejaVuSans-63" x="35.205078"/>
     <use xlink:href="#DejaVuSans-34" x="90.185547"/>
    </g>
   </g>
   <g id="patch_10">
    <path d="M 414.913938 199.636339 
L 430.753938 199.636339 
L 430.753938 183.796339 
L 414.913938 183.796339 
z
" clip-path="url(#pc959b2069e)" style="fill: #f2f2f2"/>
   </g>
   <g id="line2d_34">
    <path d="M 422.833938 191.716339 
" clip-path="url(#pc959b2069e)" style="fill: none; stroke: #1f77b4; stroke-width: 1.5; stroke-linecap: square"/>
    <defs>
     <path id="m380af43064" d="M 0 1.772454 
C 0.47006 1.772454 0.920931 1.585697 1.253314 1.253314 
C 1.585697 0.920931 1.772454 0.47006 1.772454 0 
C 1.772454 -0.47006 1.585697 -0.920931 1.253314 -1.253314 
C 0.920931 -1.585697 0.47006 -1.772454 0 -1.772454 
C -0.47006 -1.772454 -0.920931 -1.585697 -1.253314 -1.253314 
C -1.585697 -0.920931 -1.772454 -0.47006 -1.772454 0 
C -1.772454 0.47006 -1.585697 0.920931 -1.253314 1.253314 
C -0.920931 1.585697 -0.47006 1.772454 0 1.772454 
z
" style="stroke: #a157db; stroke-width: 0.886227"/>
    </defs>
    <g clip-path="url(#pc959b2069e)">
     <use xlink:href="#m380af43064" x="422.833938" y="191.716339" style="fill: #a157db; stroke: #a157db; stroke-width: 0.886227"/>
    </g>
   </g>
   <g id="patch_11">
    <path d="M 414.913938 195.676339 
L 430.753938 195.676339 
L 430.753938 187.756339 
L 414.913938 187.756339 
z
" clip-path="url(#pc959b2069e)" style="fill: #999999; opacity: 0.4"/>
   </g>
   <g id="line2d_35">
    <path d="M 414.913938 191.716339 
L 430.753938 191.716339 
" clip-path="url(#pc959b2069e)" style="fill: none; stroke: #a157db; stroke-width: 1.772454"/>
   </g>
   <g id="text_15">
    <!-- raw -->
    <g transform="translate(433.753938 194.144589)scale(0.088 -0.088)">
     <defs>
      <path id="DejaVuSans-72" d="M 2631 2963 
Q 2534 3019 2420 3045 
Q 2306 3072 2169 3072 
Q 1681 3072 1420 2755 
Q 1159 2438 1159 1844 
L 1159 0 
L 581 0 
L 581 3500 
L 1159 3500 
L 1159 2956 
Q 1341 3275 1631 3429 
Q 1922 3584 2338 3584 
Q 2397 3584 2469 3576 
Q 2541 3569 2628 3553 
L 2631 2963 
z
" transform="scale(0.015625)"/>
      <path id="DejaVuSans-61" d="M 2194 1759 
Q 1497 1759 1228 1600 
Q 959 1441 959 1056 
Q 959 750 1161 570 
Q 1363 391 1709 391 
Q 2188 391 2477 730 
Q 2766 1069 2766 1631 
L 2766 1759 
L 2194 1759 
z
M 3341 1997 
L 3341 0 
L 2766 0 
L 2766 531 
Q 2569 213 2275 61 
Q 1981 -91 1556 -91 
Q 1019 -91 701 211 
Q 384 513 384 1019 
Q 384 1609 779 1909 
Q 1175 2209 1959 2209 
L 2766 2209 
L 2766 2266 
Q 2766 2663 2505 2880 
Q 2244 3097 1772 3097 
Q 1472 3097 1187 3025 
Q 903 2953 641 2809 
L 641 3341 
Q 956 3463 1253 3523 
Q 1550 3584 1831 3584 
Q 2591 3584 2966 3190 
Q 3341 2797 3341 1997 
z
" transform="scale(0.015625)"/>
      <path id="DejaVuSans-77" d="M 269 3500 
L 844 3500 
L 1563 769 
L 2278 3500 
L 2956 3500 
L 3675 769 
L 4391 3500 
L 4966 3500 
L 4050 0 
L 3372 0 
L 2619 2869 
L 1863 0 
L 1184 0 
L 269 3500 
z
" transform="scale(0.015625)"/>
     </defs>
     <use xlink:href="#DejaVuSans-72"/>
     <use xlink:href="#DejaVuSans-61" x="41.113281"/>
     <use xlink:href="#DejaVuSans-77" x="102.392578"/>
    </g>
   </g>
  </g>
  <g id="text_16">
   <!-- N=kn=$2*10^7$ -->
   <g transform="translate(165.521938 17.229938)scale(0.132 -0.132)">
    <defs>
     <path id="DejaVuSans-4e" d="M 628 4666 
L 1478 4666 
L 3547 763 
L 3547 4666 
L 4159 4666 
L 4159 0 
L 3309 0 
L 1241 3903 
L 1241 0 
L 628 0 
L 628 4666 
z
" transform="scale(0.015625)"/>
     <path id="DejaVuSans-3d" d="M 678 2906 
L 4684 2906 
L 4684 2381 
L 678 2381 
L 678 2906 
z
M 678 1631 
L 4684 1631 
L 4684 1100 
L 678 1100 
L 678 1631 
z
" transform="scale(0.015625)"/>
     <path id="DejaVuSans-6e" d="M 3513 2113 
L 3513 0 
L 2938 0 
L 2938 2094 
Q 2938 2591 2744 2837 
Q 2550 3084 2163 3084 
Q 1697 3084 1428 2787 
Q 1159 2491 1159 1978 
L 1159 0 
L 581 0 
L 581 3500 
L 1159 3500 
L 1159 2956 
Q 1366 3272 1645 3428 
Q 1925 3584 2291 3584 
Q 2894 3584 3203 3211 
Q 3513 2838 3513 2113 
z
" transform="scale(0.015625)"/>
     <path id="DejaVuSans-2a" d="M 3009 3897 
L 1888 3291 
L 3009 2681 
L 2828 2375 
L 1778 3009 
L 1778 1831 
L 1422 1831 
L 1422 3009 
L 372 2375 
L 191 2681 
L 1313 3291 
L 191 3897 
L 372 4206 
L 1422 3572 
L 1422 4750 
L 1778 4750 
L 1778 3572 
L 2828 4206 
L 3009 3897 
z
" transform="scale(0.015625)"/>
     <path id="DejaVuSans-37" d="M 525 4666 
L 3525 4666 
L 3525 4397 
L 1831 0 
L 1172 0 
L 2766 4134 
L 525 4134 
L 525 4666 
z
" transform="scale(0.015625)"/>
    </defs>
    <use xlink:href="#DejaVuSans-4e" transform="translate(0 0.684375)"/>
    <use xlink:href="#DejaVuSans-3d" transform="translate(74.804688 0.684375)"/>
    <use xlink:href="#DejaVuSans-6b" transform="translate(158.59375 0.684375)"/>
    <use xlink:href="#DejaVuSans-6e" transform="translate(216.503906 0.684375)"/>
    <use xlink:href="#DejaVuSans-3d" transform="translate(279.882812 0.684375)"/>
    <use xlink:href="#DejaVuSans-32" transform="translate(363.671875 0.684375)"/>
    <use xlink:href="#DejaVuSans-2a" transform="translate(446.777344 0.684375)"/>
    <use xlink:href="#DejaVuSans-31" transform="translate(516.259766 0.684375)"/>
    <use xlink:href="#DejaVuSans-30" transform="translate(579.882812 0.684375)"/>
    <use xlink:href="#DejaVuSans-37" transform="translate(644.462891 38.965625)scale(0.7)"/>
   </g>
  </g>
 </g>
 <defs>
  <clipPath id="p763c8b10d4">
   <rect x="38.393938" y="26.105371" width="357.12" height="266.112"/>
  </clipPath>
  <clipPath id="pa5cd4e9384">
   <path d="M 414.913938 146.116339 
L 414.913938 130.276339 
L 430.753938 130.276339 
L 430.753938 146.116339 
"/>
  </clipPath>
  <clipPath id="p182c0c5bf3">
   <path d="M 414.913938 163.956339 
L 414.913938 148.116339 
L 430.753938 148.116339 
L 430.753938 163.956339 
"/>
  </clipPath>
  <clipPath id="p8690455896">
   <path d="M 414.913938 181.796339 
L 414.913938 165.956339 
L 430.753938 165.956339 
L 430.753938 181.796339 
"/>
  </clipPath>
  <clipPath id="pc959b2069e">
   <path d="M 414.913938 199.636339 
L 414.913938 183.796339 
L 430.753938 183.796339 
L 430.753938 199.636339 
"/>
  </clipPath>
 </defs>
</svg>
