<?xml version="1.0" encoding="utf-8" standalone="no"?>
<!DOCTYPE svg PUBLIC "-//W3C//DTD SVG 1.1//EN"
  "http://www.w3.org/Graphics/SVG/1.1/DTD/svg11.dtd">
<svg xmlns:xlink="http://www.w3.org/1999/xlink" width="481.169812pt" height="327.930058pt" viewBox="0 0 481.169812 327.930058" xmlns="http://www.w3.org/2000/svg" version="1.1">
 <metadata>
  <rdf:RDF xmlns:dc="http://purl.org/dc/elements/1.1/" xmlns:cc="http://creativecommons.org/ns#" xmlns:rdf="http://www.w3.org/1999/02/22-rdf-syntax-ns#">
   <cc:Work>
    <dc:type rdf:resource="http://purl.org/dc/dcmitype/StillImage"/>
    <dc:date>2023-04-20T10:21:48.698243</dc:date>
    <dc:format>image/svg+xml</dc:format>
    <dc:creator>
     <cc:Agent>
      <dc:title>Matplotlib v3.5.1, https://matplotlib.org/</dc:title>
     </cc:Agent>
    </dc:creator>
   </cc:Work>
  </rdf:RDF>
 </metadata>
 <defs>
  <style type="text/css">*{stroke-linejoin: round; stroke-linecap: butt}</style>
 </defs>
 <g id="figure_1">
  <g id="patch_1">
   <path d="M 0 327.930058 
L 481.169812 327.930058 
L 481.169812 0 
L 0 0 
z
" style="fill: #ffffff; stroke: #ffffff; stroke-linejoin: miter"/>
  </g>
  <g id="axes_1">
   <g id="patch_2">
    <path d="M 43.992938 292.217371 
L 401.112938 292.217371 
L 401.112938 26.105371 
L 43.992938 26.105371 
z
" style="fill: #ebebeb"/>
   </g>
   <g id="matplotlib.axis_1">
    <g id="xtick_1">
     <g id="line2d_1">
      <path d="M 49.752938 292.217371 
L 49.752938 26.105371 
" clip-path="url(#p07ce0f085c)" style="fill: none; stroke: #ffffff"/>
     </g>
     <g id="line2d_2">
      <path d="M 49.752938 292.217371 
" style="fill: none; stroke: #000000; stroke-width: 1.5"/>
      <defs>
       <path id="m8d063a41da" d="M 0 0 
L 0 2.75 
" style="stroke: #333333"/>
      </defs>
      <g>
       <use xlink:href="#m8d063a41da" x="49.752938" y="292.217371" style="stroke: #333333"/>
      </g>
     </g>
     <g id="text_1">
      <!-- 0 -->
      <g style="fill: #4d4d4d" transform="translate(46.953438 303.853996)scale(0.088 -0.088)">
       <defs>
        <path id="DejaVuSans-30" d="M 2034 4250 
Q 1547 4250 1301 3770 
Q 1056 3291 1056 2328 
Q 1056 1369 1301 889 
Q 1547 409 2034 409 
Q 2525 409 2770 889 
Q 3016 1369 3016 2328 
Q 3016 3291 2770 3770 
Q 2525 4250 2034 4250 
z
M 2034 4750 
Q 2819 4750 3233 4129 
Q 3647 3509 3647 2328 
Q 3647 1150 3233 529 
Q 2819 -91 2034 -91 
Q 1250 -91 836 529 
Q 422 1150 422 2328 
Q 422 3509 836 4129 
Q 1250 4750 2034 4750 
z
" transform="scale(0.015625)"/>
       </defs>
       <use xlink:href="#DejaVuSans-30"/>
      </g>
     </g>
    </g>
    <g id="xtick_2">
     <g id="line2d_3">
      <path d="M 154.48021 292.217371 
L 154.48021 26.105371 
" clip-path="url(#p07ce0f085c)" style="fill: none; stroke: #ffffff"/>
     </g>
     <g id="line2d_4">
      <path d="M 154.48021 292.217371 
" style="fill: none; stroke: #000000; stroke-width: 1.5"/>
      <g>
       <use xlink:href="#m8d063a41da" x="154.48021" y="292.217371" style="stroke: #333333"/>
      </g>
     </g>
     <g id="text_2">
      <!-- 500 -->
      <g style="fill: #4d4d4d" transform="translate(146.08171 303.853996)scale(0.088 -0.088)">
       <defs>
        <path id="DejaVuSans-35" d="M 691 4666 
L 3169 4666 
L 3169 4134 
L 1269 4134 
L 1269 2991 
Q 1406 3038 1543 3061 
Q 1681 3084 1819 3084 
Q 2600 3084 3056 2656 
Q 3513 2228 3513 1497 
Q 3513 744 3044 326 
Q 2575 -91 1722 -91 
Q 1428 -91 1123 -41 
Q 819 9 494 109 
L 494 744 
Q 775 591 1075 516 
Q 1375 441 1709 441 
Q 2250 441 2565 725 
Q 2881 1009 2881 1497 
Q 2881 1984 2565 2268 
Q 2250 2553 1709 2553 
Q 1456 2553 1204 2497 
Q 953 2441 691 2322 
L 691 4666 
z
" transform="scale(0.015625)"/>
       </defs>
       <use xlink:href="#DejaVuSans-35"/>
       <use xlink:href="#DejaVuSans-30" x="63.623047"/>
       <use xlink:href="#DejaVuSans-30" x="127.246094"/>
      </g>
     </g>
    </g>
    <g id="xtick_3">
     <g id="line2d_5">
      <path d="M 259.207483 292.217371 
L 259.207483 26.105371 
" clip-path="url(#p07ce0f085c)" style="fill: none; stroke: #ffffff"/>
     </g>
     <g id="line2d_6">
      <path d="M 259.207483 292.217371 
" style="fill: none; stroke: #000000; stroke-width: 1.5"/>
      <g>
       <use xlink:href="#m8d063a41da" x="259.207483" y="292.217371" style="stroke: #333333"/>
      </g>
     </g>
     <g id="text_3">
      <!-- 1000 -->
      <g style="fill: #4d4d4d" transform="translate(248.009483 303.853996)scale(0.088 -0.088)">
       <defs>
        <path id="DejaVuSans-31" d="M 794 531 
L 1825 531 
L 1825 4091 
L 703 3866 
L 703 4441 
L 1819 4666 
L 2450 4666 
L 2450 531 
L 3481 531 
L 3481 0 
L 794 0 
L 794 531 
z
" transform="scale(0.015625)"/>
       </defs>
       <use xlink:href="#DejaVuSans-31"/>
       <use xlink:href="#DejaVuSans-30" x="63.623047"/>
       <use xlink:href="#DejaVuSans-30" x="127.246094"/>
       <use xlink:href="#DejaVuSans-30" x="190.869141"/>
      </g>
     </g>
    </g>
    <g id="xtick_4">
     <g id="line2d_7">
      <path d="M 363.934756 292.217371 
L 363.934756 26.105371 
" clip-path="url(#p07ce0f085c)" style="fill: none; stroke: #ffffff"/>
     </g>
     <g id="line2d_8">
      <path d="M 363.934756 292.217371 
" style="fill: none; stroke: #000000; stroke-width: 1.5"/>
      <g>
       <use xlink:href="#m8d063a41da" x="363.934756" y="292.217371" style="stroke: #333333"/>
      </g>
     </g>
     <g id="text_4">
      <!-- 1500 -->
      <g style="fill: #4d4d4d" transform="translate(352.736756 303.853996)scale(0.088 -0.088)">
       <use xlink:href="#DejaVuSans-31"/>
       <use xlink:href="#DejaVuSans-35" x="63.623047"/>
       <use xlink:href="#DejaVuSans-30" x="127.246094"/>
       <use xlink:href="#DejaVuSans-30" x="190.869141"/>
      </g>
     </g>
    </g>
    <g id="xtick_5">
     <g id="line2d_9">
      <path d="M 102.116574 292.217371 
L 102.116574 26.105371 
" clip-path="url(#p07ce0f085c)" style="fill: none; stroke: #ffffff; stroke-width: 0.5"/>
     </g>
    </g>
    <g id="xtick_6">
     <g id="line2d_10">
      <path d="M 206.843847 292.217371 
L 206.843847 26.105371 
" clip-path="url(#p07ce0f085c)" style="fill: none; stroke: #ffffff; stroke-width: 0.5"/>
     </g>
    </g>
    <g id="xtick_7">
     <g id="line2d_11">
      <path d="M 311.571119 292.217371 
L 311.571119 26.105371 
" clip-path="url(#p07ce0f085c)" style="fill: none; stroke: #ffffff; stroke-width: 0.5"/>
     </g>
    </g>
    <g id="text_5">
     <!-- k -->
     <g transform="translate(213.608094 318.442402)scale(0.11 -0.11)">
      <defs>
       <path id="DejaVuSans-6b" d="M 581 4863 
L 1159 4863 
L 1159 1991 
L 2875 3500 
L 3609 3500 
L 1753 1863 
L 3688 0 
L 2938 0 
L 1159 1709 
L 1159 0 
L 581 0 
L 581 4863 
z
" transform="scale(0.015625)"/>
      </defs>
      <use xlink:href="#DejaVuSans-6b"/>
     </g>
    </g>
   </g>
   <g id="matplotlib.axis_2">
    <g id="ytick_1">
     <g id="line2d_12">
      <path d="M 43.992938 281.397657 
L 401.112938 281.397657 
" clip-path="url(#p07ce0f085c)" style="fill: none; stroke: #ffffff"/>
     </g>
     <g id="line2d_13">
      <path d="M 43.992938 281.397657 
" style="fill: none; stroke: #000000; stroke-width: 1.5"/>
      <defs>
       <path id="md41cf1c482" d="M 0 0 
L -2.75 0 
" style="stroke: #333333"/>
      </defs>
      <g>
       <use xlink:href="#md41cf1c482" x="43.992938" y="281.397657" style="stroke: #333333"/>
      </g>
     </g>
     <g id="text_6">
      <!-- 0 -->
      <g style="fill: #4d4d4d" transform="translate(33.443938 283.825907)scale(0.088 -0.088)">
       <use xlink:href="#DejaVuSans-30"/>
      </g>
     </g>
    </g>
    <g id="ytick_2">
     <g id="line2d_14">
      <path d="M 43.992938 223.383283 
L 401.112938 223.383283 
" clip-path="url(#p07ce0f085c)" style="fill: none; stroke: #ffffff"/>
     </g>
     <g id="line2d_15">
      <path d="M 43.992938 223.383283 
" style="fill: none; stroke: #000000; stroke-width: 1.5"/>
      <g>
       <use xlink:href="#md41cf1c482" x="43.992938" y="223.383283" style="stroke: #333333"/>
      </g>
     </g>
     <g id="text_7">
      <!-- 50 -->
      <g style="fill: #4d4d4d" transform="translate(27.844938 225.811533)scale(0.088 -0.088)">
       <use xlink:href="#DejaVuSans-35"/>
       <use xlink:href="#DejaVuSans-30" x="63.623047"/>
      </g>
     </g>
    </g>
    <g id="ytick_3">
     <g id="line2d_16">
      <path d="M 43.992938 165.368909 
L 401.112938 165.368909 
" clip-path="url(#p07ce0f085c)" style="fill: none; stroke: #ffffff"/>
     </g>
     <g id="line2d_17">
      <path d="M 43.992938 165.368909 
" style="fill: none; stroke: #000000; stroke-width: 1.5"/>
      <g>
       <use xlink:href="#md41cf1c482" x="43.992938" y="165.368909" style="stroke: #333333"/>
      </g>
     </g>
     <g id="text_8">
      <!-- 100 -->
      <g style="fill: #4d4d4d" transform="translate(22.245938 167.797159)scale(0.088 -0.088)">
       <use xlink:href="#DejaVuSans-31"/>
       <use xlink:href="#DejaVuSans-30" x="63.623047"/>
       <use xlink:href="#DejaVuSans-30" x="127.246094"/>
      </g>
     </g>
    </g>
    <g id="ytick_4">
     <g id="line2d_18">
      <path d="M 43.992938 107.354535 
L 401.112938 107.354535 
" clip-path="url(#p07ce0f085c)" style="fill: none; stroke: #ffffff"/>
     </g>
     <g id="line2d_19">
      <path d="M 43.992938 107.354535 
" style="fill: none; stroke: #000000; stroke-width: 1.5"/>
      <g>
       <use xlink:href="#md41cf1c482" x="43.992938" y="107.354535" style="stroke: #333333"/>
      </g>
     </g>
     <g id="text_9">
      <!-- 150 -->
      <g style="fill: #4d4d4d" transform="translate(22.245938 109.782785)scale(0.088 -0.088)">
       <use xlink:href="#DejaVuSans-31"/>
       <use xlink:href="#DejaVuSans-35" x="63.623047"/>
       <use xlink:href="#DejaVuSans-30" x="127.246094"/>
      </g>
     </g>
    </g>
    <g id="ytick_5">
     <g id="line2d_20">
      <path d="M 43.992938 49.34016 
L 401.112938 49.34016 
" clip-path="url(#p07ce0f085c)" style="fill: none; stroke: #ffffff"/>
     </g>
     <g id="line2d_21">
      <path d="M 43.992938 49.34016 
" style="fill: none; stroke: #000000; stroke-width: 1.5"/>
      <g>
       <use xlink:href="#md41cf1c482" x="43.992938" y="49.34016" style="stroke: #333333"/>
      </g>
     </g>
     <g id="text_10">
      <!-- 200 -->
      <g style="fill: #4d4d4d" transform="translate(22.245938 51.76841)scale(0.088 -0.088)">
       <defs>
        <path id="DejaVuSans-32" d="M 1228 531 
L 3431 531 
L 3431 0 
L 469 0 
L 469 531 
Q 828 903 1448 1529 
Q 2069 2156 2228 2338 
Q 2531 2678 2651 2914 
Q 2772 3150 2772 3378 
Q 2772 3750 2511 3984 
Q 2250 4219 1831 4219 
Q 1534 4219 1204 4116 
Q 875 4013 500 3803 
L 500 4441 
Q 881 4594 1212 4672 
Q 1544 4750 1819 4750 
Q 2544 4750 2975 4387 
Q 3406 4025 3406 3419 
Q 3406 3131 3298 2873 
Q 3191 2616 2906 2266 
Q 2828 2175 2409 1742 
Q 1991 1309 1228 531 
z
" transform="scale(0.015625)"/>
       </defs>
       <use xlink:href="#DejaVuSans-32"/>
       <use xlink:href="#DejaVuSans-30" x="63.623047"/>
       <use xlink:href="#DejaVuSans-30" x="127.246094"/>
      </g>
     </g>
    </g>
    <g id="ytick_6">
     <g id="line2d_22">
      <path d="M 43.992938 252.39047 
L 401.112938 252.39047 
" clip-path="url(#p07ce0f085c)" style="fill: none; stroke: #ffffff; stroke-width: 0.5"/>
     </g>
    </g>
    <g id="ytick_7">
     <g id="line2d_23">
      <path d="M 43.992938 194.376096 
L 401.112938 194.376096 
" clip-path="url(#p07ce0f085c)" style="fill: none; stroke: #ffffff; stroke-width: 0.5"/>
     </g>
    </g>
    <g id="ytick_8">
     <g id="line2d_24">
      <path d="M 43.992938 136.361722 
L 401.112938 136.361722 
" clip-path="url(#p07ce0f085c)" style="fill: none; stroke: #ffffff; stroke-width: 0.5"/>
     </g>
    </g>
    <g id="ytick_9">
     <g id="line2d_25">
      <path d="M 43.992938 78.347347 
L 401.112938 78.347347 
" clip-path="url(#p07ce0f085c)" style="fill: none; stroke: #ffffff; stroke-width: 0.5"/>
     </g>
    </g>
    <g id="text_11">
     <!-- time -->
     <g transform="translate(15.558281 169.859074)rotate(-90)scale(0.11 -0.11)">
      <defs>
       <path id="DejaVuSans-74" d="M 1172 4494 
L 1172 3500 
L 2356 3500 
L 2356 3053 
L 1172 3053 
L 1172 1153 
Q 1172 725 1289 603 
Q 1406 481 1766 481 
L 2356 481 
L 2356 0 
L 1766 0 
Q 1100 0 847 248 
Q 594 497 594 1153 
L 594 3053 
L 172 3053 
L 172 3500 
L 594 3500 
L 594 4494 
L 1172 4494 
z
" transform="scale(0.015625)"/>
       <path id="DejaVuSans-69" d="M 603 3500 
L 1178 3500 
L 1178 0 
L 603 0 
L 603 3500 
z
M 603 4863 
L 1178 4863 
L 1178 4134 
L 603 4134 
L 603 4863 
z
" transform="scale(0.015625)"/>
       <path id="DejaVuSans-6d" d="M 3328 2828 
Q 3544 3216 3844 3400 
Q 4144 3584 4550 3584 
Q 5097 3584 5394 3201 
Q 5691 2819 5691 2113 
L 5691 0 
L 5113 0 
L 5113 2094 
Q 5113 2597 4934 2840 
Q 4756 3084 4391 3084 
Q 3944 3084 3684 2787 
Q 3425 2491 3425 1978 
L 3425 0 
L 2847 0 
L 2847 2094 
Q 2847 2600 2669 2842 
Q 2491 3084 2119 3084 
Q 1678 3084 1418 2786 
Q 1159 2488 1159 1978 
L 1159 0 
L 581 0 
L 581 3500 
L 1159 3500 
L 1159 2956 
Q 1356 3278 1631 3431 
Q 1906 3584 2284 3584 
Q 2666 3584 2933 3390 
Q 3200 3197 3328 2828 
z
" transform="scale(0.015625)"/>
       <path id="DejaVuSans-65" d="M 3597 1894 
L 3597 1613 
L 953 1613 
Q 991 1019 1311 708 
Q 1631 397 2203 397 
Q 2534 397 2845 478 
Q 3156 559 3463 722 
L 3463 178 
Q 3153 47 2828 -22 
Q 2503 -91 2169 -91 
Q 1331 -91 842 396 
Q 353 884 353 1716 
Q 353 2575 817 3079 
Q 1281 3584 2069 3584 
Q 2775 3584 3186 3129 
Q 3597 2675 3597 1894 
z
M 3022 2063 
Q 3016 2534 2758 2815 
Q 2500 3097 2075 3097 
Q 1594 3097 1305 2825 
Q 1016 2553 972 2059 
L 3022 2063 
z
" transform="scale(0.015625)"/>
      </defs>
      <use xlink:href="#DejaVuSans-74"/>
      <use xlink:href="#DejaVuSans-69" x="39.208984"/>
      <use xlink:href="#DejaVuSans-6d" x="66.992188"/>
      <use xlink:href="#DejaVuSans-65" x="164.404297"/>
     </g>
    </g>
   </g>
   <g id="PathCollection_1">
    <path d="M 60.225665 278.64499 
C 60.695725 278.64499 61.146596 278.458233 61.478979 278.12585 
C 61.811362 277.793467 61.998119 277.342596 61.998119 276.872536 
C 61.998119 276.402476 61.811362 275.951605 61.478979 275.619222 
C 61.146596 275.286839 60.695725 275.100082 60.225665 275.100082 
C 59.755605 275.100082 59.304733 275.286839 58.972351 275.619222 
C 58.639968 275.951605 58.453211 276.402476 58.453211 276.872536 
C 58.453211 277.342596 58.639968 277.793467 58.972351 278.12585 
C 59.304733 278.458233 59.755605 278.64499 60.225665 278.64499 
z
" clip-path="url(#p07ce0f085c)" style="fill: #a157db; stroke: #a157db; stroke-width: 0.886227"/>
    <path d="M 70.698392 273.191639 
C 71.168452 273.191639 71.619323 273.004882 71.951706 272.672499 
C 72.284089 272.340116 72.470846 271.889245 72.470846 271.419185 
C 72.470846 270.949125 72.284089 270.498253 71.951706 270.165871 
C 71.619323 269.833488 71.168452 269.646731 70.698392 269.646731 
C 70.228332 269.646731 69.777461 269.833488 69.445078 270.165871 
C 69.112695 270.498253 68.925938 270.949125 68.925938 271.419185 
C 68.925938 271.889245 69.112695 272.340116 69.445078 272.672499 
C 69.777461 273.004882 70.228332 273.191639 70.698392 273.191639 
z
" clip-path="url(#p07ce0f085c)" style="fill: #a157db; stroke: #a157db; stroke-width: 0.886227"/>
    <path d="M 91.643847 260.08039 
C 92.113907 260.08039 92.564778 259.893633 92.897161 259.56125 
C 93.229544 259.228868 93.4163 258.777996 93.4163 258.307936 
C 93.4163 257.837876 93.229544 257.387005 92.897161 257.054622 
C 92.564778 256.722239 92.113907 256.535482 91.643847 256.535482 
C 91.173786 256.535482 90.722915 256.722239 90.390532 257.054622 
C 90.05815 257.387005 89.871393 257.837876 89.871393 258.307936 
C 89.871393 258.777996 90.05815 259.228868 90.390532 259.56125 
C 90.722915 259.893633 91.173786 260.08039 91.643847 260.08039 
z
" clip-path="url(#p07ce0f085c)" style="fill: #a157db; stroke: #a157db; stroke-width: 0.886227"/>
    <path d="M 133.534756 233.741864 
C 134.004816 233.741864 134.455687 233.555107 134.78807 233.222724 
C 135.120453 232.890342 135.30721 232.439471 135.30721 231.96941 
C 135.30721 231.49935 135.120453 231.048479 134.78807 230.716096 
C 134.455687 230.383713 134.004816 230.196956 133.534756 230.196956 
C 133.064695 230.196956 132.613824 230.383713 132.281442 230.716096 
C 131.949059 231.048479 131.762302 231.49935 131.762302 231.96941 
C 131.762302 232.439471 131.949059 232.890342 132.281442 233.222724 
C 132.613824 233.555107 133.064695 233.741864 133.534756 233.741864 
z
" clip-path="url(#p07ce0f085c)" style="fill: #a157db; stroke: #a157db; stroke-width: 0.886227"/>
    <path d="M 217.316574 177.351892 
C 217.786634 177.351892 218.237505 177.165136 218.569888 176.832753 
C 218.902271 176.50037 219.089028 176.049499 219.089028 175.579439 
C 219.089028 175.109378 218.902271 174.658507 218.569888 174.326124 
C 218.237505 173.993742 217.786634 173.806985 217.316574 173.806985 
C 216.846514 173.806985 216.395643 173.993742 216.06326 174.326124 
C 215.730877 174.658507 215.54412 175.109378 215.54412 175.579439 
C 215.54412 176.049499 215.730877 176.50037 216.06326 176.832753 
C 216.395643 177.165136 216.846514 177.351892 217.316574 177.351892 
z
" clip-path="url(#p07ce0f085c)" style="fill: #a157db; stroke: #a157db; stroke-width: 0.886227"/>
    <path d="M 384.88021 39.973854 
C 385.35027 39.973854 385.801142 39.787097 386.133524 39.454715 
C 386.465907 39.122332 386.652664 38.671461 386.652664 38.201401 
C 386.652664 37.73134 386.465907 37.280469 386.133524 36.948086 
C 385.801142 36.615704 385.35027 36.428947 384.88021 36.428947 
C 384.41015 36.428947 383.959279 36.615704 383.626896 36.948086 
C 383.294513 37.280469 383.107756 37.73134 383.107756 38.201401 
C 383.107756 38.671461 383.294513 39.122332 383.626896 39.454715 
C 383.959279 39.787097 384.41015 39.973854 384.88021 39.973854 
z
" clip-path="url(#p07ce0f085c)" style="fill: #a157db; stroke: #a157db; stroke-width: 0.886227"/>
    <path d="M 60.225665 281.893795 
C 60.695725 281.893795 61.146596 281.707038 61.478979 281.374655 
C 61.811362 281.042272 61.998119 280.591401 61.998119 280.121341 
C 61.998119 279.651281 61.811362 279.20041 61.478979 278.868027 
C 61.146596 278.535644 60.695725 278.348887 60.225665 278.348887 
C 59.755605 278.348887 59.304733 278.535644 58.972351 278.868027 
C 58.639968 279.20041 58.453211 279.651281 58.453211 280.121341 
C 58.453211 280.591401 58.639968 281.042272 58.972351 281.374655 
C 59.304733 281.707038 59.755605 281.893795 60.225665 281.893795 
z
" clip-path="url(#p07ce0f085c)" style="fill: #db5f57; stroke: #db5f57; stroke-width: 0.886227"/>
    <path d="M 70.698392 279.109105 
C 71.168452 279.109105 71.619323 278.922348 71.951706 278.589965 
C 72.284089 278.257582 72.470846 277.806711 72.470846 277.336651 
C 72.470846 276.866591 72.284089 276.41572 71.951706 276.083337 
C 71.619323 275.750954 71.168452 275.564197 70.698392 275.564197 
C 70.228332 275.564197 69.777461 275.750954 69.445078 276.083337 
C 69.112695 276.41572 68.925938 276.866591 68.925938 277.336651 
C 68.925938 277.806711 69.112695 278.257582 69.445078 278.589965 
C 69.777461 278.922348 70.228332 279.109105 70.698392 279.109105 
z
" clip-path="url(#p07ce0f085c)" style="fill: #db5f57; stroke: #db5f57; stroke-width: 0.886227"/>
    <path d="M 91.643847 271.335179 
C 92.113907 271.335179 92.564778 271.148422 92.897161 270.816039 
C 93.229544 270.483656 93.4163 270.032785 93.4163 269.562725 
C 93.4163 269.092665 93.229544 268.641793 92.897161 268.309411 
C 92.564778 267.977028 92.113907 267.790271 91.643847 267.790271 
C 91.173786 267.790271 90.722915 267.977028 90.390532 268.309411 
C 90.05815 268.641793 89.871393 269.092665 89.871393 269.562725 
C 89.871393 270.032785 90.05815 270.483656 90.390532 270.816039 
C 90.722915 271.148422 91.173786 271.335179 91.643847 271.335179 
z
" clip-path="url(#p07ce0f085c)" style="fill: #db5f57; stroke: #db5f57; stroke-width: 0.886227"/>
    <path d="M 133.534756 248.245458 
C 134.004816 248.245458 134.455687 248.058701 134.78807 247.726318 
C 135.120453 247.393935 135.30721 246.943064 135.30721 246.473004 
C 135.30721 246.002944 135.120453 245.552073 134.78807 245.21969 
C 134.455687 244.887307 134.004816 244.70055 133.534756 244.70055 
C 133.064695 244.70055 132.613824 244.887307 132.281442 245.21969 
C 131.949059 245.552073 131.762302 246.002944 131.762302 246.473004 
C 131.762302 246.943064 131.949059 247.393935 132.281442 247.726318 
C 132.613824 248.058701 133.064695 248.245458 133.534756 248.245458 
z
" clip-path="url(#p07ce0f085c)" style="fill: #db5f57; stroke: #db5f57; stroke-width: 0.886227"/>
    <path d="M 217.316574 191.5074 
C 217.786634 191.5074 218.237505 191.320643 218.569888 190.98826 
C 218.902271 190.655877 219.089028 190.205006 219.089028 189.734946 
C 219.089028 189.264886 218.902271 188.814015 218.569888 188.481632 
C 218.237505 188.149249 217.786634 187.962492 217.316574 187.962492 
C 216.846514 187.962492 216.395643 188.149249 216.06326 188.481632 
C 215.730877 188.814015 215.54412 189.264886 215.54412 189.734946 
C 215.54412 190.205006 215.730877 190.655877 216.06326 190.98826 
C 216.395643 191.320643 216.846514 191.5074 217.316574 191.5074 
z
" clip-path="url(#p07ce0f085c)" style="fill: #db5f57; stroke: #db5f57; stroke-width: 0.886227"/>
    <path d="M 384.88021 79.3076 
C 385.35027 79.3076 385.801142 79.120843 386.133524 78.78846 
C 386.465907 78.456078 386.652664 78.005206 386.652664 77.535146 
C 386.652664 77.065086 386.465907 76.614215 386.133524 76.281832 
C 385.801142 75.949449 385.35027 75.762692 384.88021 75.762692 
C 384.41015 75.762692 383.959279 75.949449 383.626896 76.281832 
C 383.294513 76.614215 383.107756 77.065086 383.107756 77.535146 
C 383.107756 78.005206 383.294513 78.456078 383.626896 78.78846 
C 383.959279 79.120843 384.41015 79.3076 384.88021 79.3076 
z
" clip-path="url(#p07ce0f085c)" style="fill: #db5f57; stroke: #db5f57; stroke-width: 0.886227"/>
    <path d="M 60.225665 279.805277 
C 60.695725 279.805277 61.146596 279.61852 61.478979 279.286138 
C 61.811362 278.953755 61.998119 278.502884 61.998119 278.032823 
C 61.998119 277.562763 61.811362 277.111892 61.478979 276.779509 
C 61.146596 276.447126 60.695725 276.26037 60.225665 276.26037 
C 59.755605 276.26037 59.304733 276.447126 58.972351 276.779509 
C 58.639968 277.111892 58.453211 277.562763 58.453211 278.032823 
C 58.453211 278.502884 58.639968 278.953755 58.972351 279.286138 
C 59.304733 279.61852 59.755605 279.805277 60.225665 279.805277 
z
" clip-path="url(#p07ce0f085c)" style="fill: #91db57; stroke: #91db57; stroke-width: 0.886227"/>
    <path d="M 70.698392 274.700012 
C 71.168452 274.700012 71.619323 274.513255 71.951706 274.180873 
C 72.284089 273.84849 72.470846 273.397619 72.470846 272.927558 
C 72.470846 272.457498 72.284089 272.006627 71.951706 271.674244 
C 71.619323 271.341862 71.168452 271.155105 70.698392 271.155105 
C 70.228332 271.155105 69.777461 271.341862 69.445078 271.674244 
C 69.112695 272.006627 68.925938 272.457498 68.925938 272.927558 
C 68.925938 273.397619 69.112695 273.84849 69.445078 274.180873 
C 69.777461 274.513255 70.228332 274.700012 70.698392 274.700012 
z
" clip-path="url(#p07ce0f085c)" style="fill: #91db57; stroke: #91db57; stroke-width: 0.886227"/>
    <path d="M 91.643847 261.820821 
C 92.113907 261.820821 92.564778 261.634064 92.897161 261.301682 
C 93.229544 260.969299 93.4163 260.518428 93.4163 260.048367 
C 93.4163 259.578307 93.229544 259.127436 92.897161 258.795053 
C 92.564778 258.46267 92.113907 258.275914 91.643847 258.275914 
C 91.173786 258.275914 90.722915 258.46267 90.390532 258.795053 
C 90.05815 259.127436 89.871393 259.578307 89.871393 260.048367 
C 89.871393 260.518428 90.05815 260.969299 90.390532 261.301682 
C 90.722915 261.634064 91.173786 261.820821 91.643847 261.820821 
z
" clip-path="url(#p07ce0f085c)" style="fill: #91db57; stroke: #91db57; stroke-width: 0.886227"/>
    <path d="M 133.534756 232.117462 
C 134.004816 232.117462 134.455687 231.930705 134.78807 231.598322 
C 135.120453 231.265939 135.30721 230.815068 135.30721 230.345008 
C 135.30721 229.874948 135.120453 229.424076 134.78807 229.091694 
C 134.455687 228.759311 134.004816 228.572554 133.534756 228.572554 
C 133.064695 228.572554 132.613824 228.759311 132.281442 229.091694 
C 131.949059 229.424076 131.762302 229.874948 131.762302 230.345008 
C 131.762302 230.815068 131.949059 231.265939 132.281442 231.598322 
C 132.613824 231.930705 133.064695 232.117462 133.534756 232.117462 
z
" clip-path="url(#p07ce0f085c)" style="fill: #91db57; stroke: #91db57; stroke-width: 0.886227"/>
    <path d="M 217.316574 176.423662 
C 217.786634 176.423662 218.237505 176.236906 218.569888 175.904523 
C 218.902271 175.57214 219.089028 175.121269 219.089028 174.651209 
C 219.089028 174.181148 218.902271 173.730277 218.569888 173.397894 
C 218.237505 173.065512 217.786634 172.878755 217.316574 172.878755 
C 216.846514 172.878755 216.395643 173.065512 216.06326 173.397894 
C 215.730877 173.730277 215.54412 174.181148 215.54412 174.651209 
C 215.54412 175.121269 215.730877 175.57214 216.06326 175.904523 
C 216.395643 176.236906 216.846514 176.423662 217.316574 176.423662 
z
" clip-path="url(#p07ce0f085c)" style="fill: #91db57; stroke: #91db57; stroke-width: 0.886227"/>
    <path d="M 384.88021 62.367403 
C 385.35027 62.367403 385.801142 62.180646 386.133524 61.848263 
C 386.465907 61.51588 386.652664 61.065009 386.652664 60.594949 
C 386.652664 60.124889 386.465907 59.674018 386.133524 59.341635 
C 385.801142 59.009252 385.35027 58.822495 384.88021 58.822495 
C 384.41015 58.822495 383.959279 59.009252 383.626896 59.341635 
C 383.294513 59.674018 383.107756 60.124889 383.107756 60.594949 
C 383.107756 61.065009 383.294513 61.51588 383.626896 61.848263 
C 383.959279 62.180646 384.41015 62.367403 384.88021 62.367403 
z
" clip-path="url(#p07ce0f085c)" style="fill: #91db57; stroke: #91db57; stroke-width: 0.886227"/>
    <path d="M 60.225665 279.109105 
C 60.695725 279.109105 61.146596 278.922348 61.478979 278.589965 
C 61.811362 278.257582 61.998119 277.806711 61.998119 277.336651 
C 61.998119 276.866591 61.811362 276.41572 61.478979 276.083337 
C 61.146596 275.750954 60.695725 275.564197 60.225665 275.564197 
C 59.755605 275.564197 59.304733 275.750954 58.972351 276.083337 
C 58.639968 276.41572 58.453211 276.866591 58.453211 277.336651 
C 58.453211 277.806711 58.639968 278.257582 58.972351 278.589965 
C 59.304733 278.922348 59.755605 279.109105 60.225665 279.109105 
z
" clip-path="url(#p07ce0f085c)" style="fill: #57d3db; stroke: #57d3db; stroke-width: 0.886227"/>
    <path d="M 70.698392 273.307667 
C 71.168452 273.307667 71.619323 273.12091 71.951706 272.788528 
C 72.284089 272.456145 72.470846 272.005274 72.470846 271.535214 
C 72.470846 271.065153 72.284089 270.614282 71.951706 270.281899 
C 71.619323 269.949517 71.168452 269.76276 70.698392 269.76276 
C 70.228332 269.76276 69.777461 269.949517 69.445078 270.281899 
C 69.112695 270.614282 68.925938 271.065153 68.925938 271.535214 
C 68.925938 272.005274 69.112695 272.456145 69.445078 272.788528 
C 69.777461 273.12091 70.228332 273.307667 70.698392 273.307667 
z
" clip-path="url(#p07ce0f085c)" style="fill: #57d3db; stroke: #57d3db; stroke-width: 0.886227"/>
    <path d="M 91.643847 259.15216 
C 92.113907 259.15216 92.564778 258.965403 92.897161 258.63302 
C 93.229544 258.300638 93.4163 257.849766 93.4163 257.379706 
C 93.4163 256.909646 93.229544 256.458775 92.897161 256.126392 
C 92.564778 255.794009 92.113907 255.607252 91.643847 255.607252 
C 91.173786 255.607252 90.722915 255.794009 90.390532 256.126392 
C 90.05815 256.458775 89.871393 256.909646 89.871393 257.379706 
C 89.871393 257.849766 90.05815 258.300638 90.390532 258.63302 
C 90.722915 258.965403 91.173786 259.15216 91.643847 259.15216 
z
" clip-path="url(#p07ce0f085c)" style="fill: #57d3db; stroke: #57d3db; stroke-width: 0.886227"/>
    <path d="M 133.534756 229.100714 
C 134.004816 229.100714 134.455687 228.913957 134.78807 228.581575 
C 135.120453 228.249192 135.30721 227.798321 135.30721 227.32826 
C 135.30721 226.8582 135.120453 226.407329 134.78807 226.074946 
C 134.455687 225.742563 134.004816 225.555807 133.534756 225.555807 
C 133.064695 225.555807 132.613824 225.742563 132.281442 226.074946 
C 131.949059 226.407329 131.762302 226.8582 131.762302 227.32826 
C 131.762302 227.798321 131.949059 228.249192 132.281442 228.581575 
C 132.613824 228.913957 133.064695 229.100714 133.534756 229.100714 
z
" clip-path="url(#p07ce0f085c)" style="fill: #57d3db; stroke: #57d3db; stroke-width: 0.886227"/>
    <path d="M 217.316574 172.130599 
C 217.786634 172.130599 218.237505 171.943842 218.569888 171.611459 
C 218.902271 171.279076 219.089028 170.828205 219.089028 170.358145 
C 219.089028 169.888085 218.902271 169.437214 218.569888 169.104831 
C 218.237505 168.772448 217.786634 168.585691 217.316574 168.585691 
C 216.846514 168.585691 216.395643 168.772448 216.06326 169.104831 
C 215.730877 169.437214 215.54412 169.888085 215.54412 170.358145 
C 215.54412 170.828205 215.730877 171.279076 216.06326 171.611459 
C 216.395643 171.943842 216.846514 172.130599 217.316574 172.130599 
z
" clip-path="url(#p07ce0f085c)" style="fill: #57d3db; stroke: #57d3db; stroke-width: 0.886227"/>
    <path d="M 384.88021 58.654483 
C 385.35027 58.654483 385.801142 58.467726 386.133524 58.135343 
C 386.465907 57.80296 386.652664 57.352089 386.652664 56.882029 
C 386.652664 56.411969 386.465907 55.961098 386.133524 55.628715 
C 385.801142 55.296332 385.35027 55.109575 384.88021 55.109575 
C 384.41015 55.109575 383.959279 55.296332 383.626896 55.628715 
C 383.294513 55.961098 383.107756 56.411969 383.107756 56.882029 
C 383.107756 57.352089 383.294513 57.80296 383.626896 58.135343 
C 383.959279 58.467726 384.41015 58.654483 384.88021 58.654483 
z
" clip-path="url(#p07ce0f085c)" style="fill: #57d3db; stroke: #57d3db; stroke-width: 0.886227"/>
   </g>
   <g id="PolyCollection_1">
    <path d="M 60.225665 280.121311 
L 60.225665 280.121371 
L 70.698392 277.336681 
L 91.643847 269.562755 
L 133.534756 246.473034 
L 217.316574 189.734976 
L 384.88021 77.535176 
L 384.88021 77.535116 
L 384.88021 77.535116 
L 217.316574 189.734916 
L 133.534756 246.472974 
L 91.643847 269.562695 
L 70.698392 277.336621 
L 60.225665 280.121311 
z
" clip-path="url(#p07ce0f085c)" style="fill: #999999; fill-opacity: 0.4"/>
   </g>
   <g id="line2d_26">
    <path d="M 60.225665 280.121341 
L 70.698392 277.336651 
L 91.643847 269.562725 
L 133.534756 246.473004 
L 217.316574 189.734946 
L 384.88021 77.535146 
" clip-path="url(#p07ce0f085c)" style="fill: none; stroke: #db5f57; stroke-width: 1.772454; stroke-linejoin: miter"/>
   </g>
   <g id="PolyCollection_2">
    <path d="M 60.225665 278.032794 
L 60.225665 278.032853 
L 70.698392 272.927588 
L 91.643847 260.048397 
L 133.534756 230.345038 
L 217.316574 174.651238 
L 384.88021 60.594979 
L 384.88021 60.594919 
L 384.88021 60.594919 
L 217.316574 174.651179 
L 133.534756 230.344978 
L 91.643847 260.048338 
L 70.698392 272.927529 
L 60.225665 278.032794 
z
" clip-path="url(#p07ce0f085c)" style="fill: #999999; fill-opacity: 0.4"/>
   </g>
   <g id="line2d_27">
    <path d="M 60.225665 278.032823 
L 70.698392 272.927558 
L 91.643847 260.048367 
L 133.534756 230.345008 
L 217.316574 174.651209 
L 384.88021 60.594949 
" clip-path="url(#p07ce0f085c)" style="fill: none; stroke: #91db57; stroke-width: 1.772454; stroke-linejoin: miter"/>
   </g>
   <g id="PolyCollection_3">
    <path d="M 60.225665 277.336621 
L 60.225665 277.336681 
L 70.698392 271.535243 
L 91.643847 257.379736 
L 133.534756 227.32829 
L 217.316574 170.358175 
L 384.88021 56.882059 
L 384.88021 56.881999 
L 384.88021 56.881999 
L 217.316574 170.358115 
L 133.534756 227.328231 
L 91.643847 257.379676 
L 70.698392 271.535184 
L 60.225665 277.336621 
z
" clip-path="url(#p07ce0f085c)" style="fill: #999999; fill-opacity: 0.4"/>
   </g>
   <g id="line2d_28">
    <path d="M 60.225665 277.336651 
L 70.698392 271.535214 
L 91.643847 257.379706 
L 133.534756 227.32826 
L 217.316574 170.358145 
L 384.88021 56.882029 
" clip-path="url(#p07ce0f085c)" style="fill: none; stroke: #57d3db; stroke-width: 1.772454; stroke-linejoin: miter"/>
   </g>
   <g id="PolyCollection_4">
    <path d="M 60.225665 276.872506 
L 60.225665 276.872566 
L 70.698392 271.419215 
L 91.643847 258.307966 
L 133.534756 231.96944 
L 217.316574 175.579468 
L 384.88021 38.20143 
L 384.88021 38.201371 
L 384.88021 38.201371 
L 217.316574 175.579409 
L 133.534756 231.96938 
L 91.643847 258.307906 
L 70.698392 271.419155 
L 60.225665 276.872506 
z
" clip-path="url(#p07ce0f085c)" style="fill: #999999; fill-opacity: 0.4"/>
   </g>
   <g id="line2d_29">
    <path d="M 60.225665 276.872536 
L 70.698392 271.419185 
L 91.643847 258.307936 
L 133.534756 231.96941 
L 217.316574 175.579439 
L 384.88021 38.201401 
" clip-path="url(#p07ce0f085c)" style="fill: none; stroke: #a157db; stroke-width: 1.772454; stroke-linejoin: miter"/>
   </g>
   <g id="patch_3">
    <path d="M 408.312938 211.836339 
L 473.969813 211.836339 
L 473.969813 103.030402 
L 408.312938 103.030402 
z
" style="fill: #ffffff"/>
   </g>
   <g id="text_12">
    <!-- Method -->
    <g transform="translate(420.512938 126.623996)scale(0.11 -0.11)">
     <defs>
      <path id="DejaVuSans-4d" d="M 628 4666 
L 1569 4666 
L 2759 1491 
L 3956 4666 
L 4897 4666 
L 4897 0 
L 4281 0 
L 4281 4097 
L 3078 897 
L 2444 897 
L 1241 4097 
L 1241 0 
L 628 0 
L 628 4666 
z
" transform="scale(0.015625)"/>
      <path id="DejaVuSans-68" d="M 3513 2113 
L 3513 0 
L 2938 0 
L 2938 2094 
Q 2938 2591 2744 2837 
Q 2550 3084 2163 3084 
Q 1697 3084 1428 2787 
Q 1159 2491 1159 1978 
L 1159 0 
L 581 0 
L 581 4863 
L 1159 4863 
L 1159 2956 
Q 1366 3272 1645 3428 
Q 1925 3584 2291 3584 
Q 2894 3584 3203 3211 
Q 3513 2838 3513 2113 
z
" transform="scale(0.015625)"/>
      <path id="DejaVuSans-6f" d="M 1959 3097 
Q 1497 3097 1228 2736 
Q 959 2375 959 1747 
Q 959 1119 1226 758 
Q 1494 397 1959 397 
Q 2419 397 2687 759 
Q 2956 1122 2956 1747 
Q 2956 2369 2687 2733 
Q 2419 3097 1959 3097 
z
M 1959 3584 
Q 2709 3584 3137 3096 
Q 3566 2609 3566 1747 
Q 3566 888 3137 398 
Q 2709 -91 1959 -91 
Q 1206 -91 779 398 
Q 353 888 353 1747 
Q 353 2609 779 3096 
Q 1206 3584 1959 3584 
z
" transform="scale(0.015625)"/>
      <path id="DejaVuSans-64" d="M 2906 2969 
L 2906 4863 
L 3481 4863 
L 3481 0 
L 2906 0 
L 2906 525 
Q 2725 213 2448 61 
Q 2172 -91 1784 -91 
Q 1150 -91 751 415 
Q 353 922 353 1747 
Q 353 2572 751 3078 
Q 1150 3584 1784 3584 
Q 2172 3584 2448 3432 
Q 2725 3281 2906 2969 
z
M 947 1747 
Q 947 1113 1208 752 
Q 1469 391 1925 391 
Q 2381 391 2643 752 
Q 2906 1113 2906 1747 
Q 2906 2381 2643 2742 
Q 2381 3103 1925 3103 
Q 1469 3103 1208 2742 
Q 947 2381 947 1747 
z
" transform="scale(0.015625)"/>
     </defs>
     <use xlink:href="#DejaVuSans-4d"/>
     <use xlink:href="#DejaVuSans-65" x="86.279297"/>
     <use xlink:href="#DejaVuSans-74" x="147.802734"/>
     <use xlink:href="#DejaVuSans-68" x="187.011719"/>
     <use xlink:href="#DejaVuSans-6f" x="250.390625"/>
     <use xlink:href="#DejaVuSans-64" x="311.572266"/>
    </g>
   </g>
   <g id="patch_4">
    <path d="M 420.512938 146.116339 
L 436.352937 146.116339 
L 436.352937 130.276339 
L 420.512938 130.276339 
z
" clip-path="url(#pcd1c1b763e)" style="fill: #f2f2f2"/>
   </g>
   <g id="line2d_30">
    <path d="M 428.432938 138.196339 
" clip-path="url(#pcd1c1b763e)" style="fill: none; stroke: #1f77b4; stroke-width: 1.5; stroke-linecap: square"/>
    <defs>
     <path id="mb1815d4d7a" d="M 0 1.772454 
C 0.47006 1.772454 0.920931 1.585697 1.253314 1.253314 
C 1.585697 0.920931 1.772454 0.47006 1.772454 0 
C 1.772454 -0.47006 1.585697 -0.920931 1.253314 -1.253314 
C 0.920931 -1.585697 0.47006 -1.772454 0 -1.772454 
C -0.47006 -1.772454 -0.920931 -1.585697 -1.253314 -1.253314 
C -1.585697 -0.920931 -1.772454 -0.47006 -1.772454 0 
C -1.772454 0.47006 -1.585697 0.920931 -1.253314 1.253314 
C -0.920931 1.585697 -0.47006 1.772454 0 1.772454 
z
" style="stroke: #db5f57; stroke-width: 0.886227"/>
    </defs>
    <g clip-path="url(#pcd1c1b763e)">
     <use xlink:href="#mb1815d4d7a" x="428.432938" y="138.196339" style="fill: #db5f57; stroke: #db5f57; stroke-width: 0.886227"/>
    </g>
   </g>
   <g id="patch_5">
    <path d="M 420.512938 142.156339 
L 436.352937 142.156339 
L 436.352937 134.236339 
L 420.512938 134.236339 
z
" clip-path="url(#pcd1c1b763e)" style="fill: #999999; opacity: 0.4"/>
   </g>
   <g id="line2d_31">
    <path d="M 420.512938 138.196339 
L 436.352937 138.196339 
" clip-path="url(#pcd1c1b763e)" style="fill: none; stroke: #db5f57; stroke-width: 1.772454"/>
   </g>
   <g id="text_13">
    <!-- best -->
    <g transform="translate(439.352938 140.624589)scale(0.088 -0.088)">
     <defs>
      <path id="DejaVuSans-62" d="M 3116 1747 
Q 3116 2381 2855 2742 
Q 2594 3103 2138 3103 
Q 1681 3103 1420 2742 
Q 1159 2381 1159 1747 
Q 1159 1113 1420 752 
Q 1681 391 2138 391 
Q 2594 391 2855 752 
Q 3116 1113 3116 1747 
z
M 1159 2969 
Q 1341 3281 1617 3432 
Q 1894 3584 2278 3584 
Q 2916 3584 3314 3078 
Q 3713 2572 3713 1747 
Q 3713 922 3314 415 
Q 2916 -91 2278 -91 
Q 1894 -91 1617 61 
Q 1341 213 1159 525 
L 1159 0 
L 581 0 
L 581 4863 
L 1159 4863 
L 1159 2969 
z
" transform="scale(0.015625)"/>
      <path id="DejaVuSans-73" d="M 2834 3397 
L 2834 2853 
Q 2591 2978 2328 3040 
Q 2066 3103 1784 3103 
Q 1356 3103 1142 2972 
Q 928 2841 928 2578 
Q 928 2378 1081 2264 
Q 1234 2150 1697 2047 
L 1894 2003 
Q 2506 1872 2764 1633 
Q 3022 1394 3022 966 
Q 3022 478 2636 193 
Q 2250 -91 1575 -91 
Q 1294 -91 989 -36 
Q 684 19 347 128 
L 347 722 
Q 666 556 975 473 
Q 1284 391 1588 391 
Q 1994 391 2212 530 
Q 2431 669 2431 922 
Q 2431 1156 2273 1281 
Q 2116 1406 1581 1522 
L 1381 1569 
Q 847 1681 609 1914 
Q 372 2147 372 2553 
Q 372 3047 722 3315 
Q 1072 3584 1716 3584 
Q 2034 3584 2315 3537 
Q 2597 3491 2834 3397 
z
" transform="scale(0.015625)"/>
     </defs>
     <use xlink:href="#DejaVuSans-62"/>
     <use xlink:href="#DejaVuSans-65" x="63.476562"/>
     <use xlink:href="#DejaVuSans-73" x="125"/>
     <use xlink:href="#DejaVuSans-74" x="177.099609"/>
    </g>
   </g>
   <g id="patch_6">
    <path d="M 420.512938 163.956339 
L 436.352937 163.956339 
L 436.352937 148.116339 
L 420.512938 148.116339 
z
" clip-path="url(#p45a83cacf8)" style="fill: #f2f2f2"/>
   </g>
   <g id="line2d_32">
    <path d="M 428.432938 156.036339 
" clip-path="url(#p45a83cacf8)" style="fill: none; stroke: #1f77b4; stroke-width: 1.5; stroke-linecap: square"/>
    <defs>
     <path id="mb136653ba6" d="M 0 1.772454 
C 0.47006 1.772454 0.920931 1.585697 1.253314 1.253314 
C 1.585697 0.920931 1.772454 0.47006 1.772454 0 
C 1.772454 -0.47006 1.585697 -0.920931 1.253314 -1.253314 
C 0.920931 -1.585697 0.47006 -1.772454 0 -1.772454 
C -0.47006 -1.772454 -0.920931 -1.585697 -1.253314 -1.253314 
C -1.585697 -0.920931 -1.772454 -0.47006 -1.772454 0 
C -1.772454 0.47006 -1.585697 0.920931 -1.253314 1.253314 
C -0.920931 1.585697 -0.47006 1.772454 0 1.772454 
z
" style="stroke: #91db57; stroke-width: 0.886227"/>
    </defs>
    <g clip-path="url(#p45a83cacf8)">
     <use xlink:href="#mb136653ba6" x="428.432938" y="156.036339" style="fill: #91db57; stroke: #91db57; stroke-width: 0.886227"/>
    </g>
   </g>
   <g id="patch_7">
    <path d="M 420.512938 159.996339 
L 436.352937 159.996339 
L 436.352937 152.076339 
L 420.512938 152.076339 
z
" clip-path="url(#p45a83cacf8)" style="fill: #999999; opacity: 0.4"/>
   </g>
   <g id="line2d_33">
    <path d="M 420.512938 156.036339 
L 436.352937 156.036339 
" clip-path="url(#p45a83cacf8)" style="fill: none; stroke: #91db57; stroke-width: 1.772454"/>
   </g>
   <g id="text_14">
    <!-- fc2 -->
    <g transform="translate(439.352938 158.464589)scale(0.088 -0.088)">
     <defs>
      <path id="DejaVuSans-66" d="M 2375 4863 
L 2375 4384 
L 1825 4384 
Q 1516 4384 1395 4259 
Q 1275 4134 1275 3809 
L 1275 3500 
L 2222 3500 
L 2222 3053 
L 1275 3053 
L 1275 0 
L 697 0 
L 697 3053 
L 147 3053 
L 147 3500 
L 697 3500 
L 697 3744 
Q 697 4328 969 4595 
Q 1241 4863 1831 4863 
L 2375 4863 
z
" transform="scale(0.015625)"/>
      <path id="DejaVuSans-63" d="M 3122 3366 
L 3122 2828 
Q 2878 2963 2633 3030 
Q 2388 3097 2138 3097 
Q 1578 3097 1268 2742 
Q 959 2388 959 1747 
Q 959 1106 1268 751 
Q 1578 397 2138 397 
Q 2388 397 2633 464 
Q 2878 531 3122 666 
L 3122 134 
Q 2881 22 2623 -34 
Q 2366 -91 2075 -91 
Q 1284 -91 818 406 
Q 353 903 353 1747 
Q 353 2603 823 3093 
Q 1294 3584 2113 3584 
Q 2378 3584 2631 3529 
Q 2884 3475 3122 3366 
z
" transform="scale(0.015625)"/>
     </defs>
     <use xlink:href="#DejaVuSans-66"/>
     <use xlink:href="#DejaVuSans-63" x="35.205078"/>
     <use xlink:href="#DejaVuSans-32" x="90.185547"/>
    </g>
   </g>
   <g id="patch_8">
    <path d="M 420.512938 181.796339 
L 436.352937 181.796339 
L 436.352937 165.956339 
L 420.512938 165.956339 
z
" clip-path="url(#p7bc7ca8993)" style="fill: #f2f2f2"/>
   </g>
   <g id="line2d_34">
    <path d="M 428.432938 173.876339 
" clip-path="url(#p7bc7ca8993)" style="fill: none; stroke: #1f77b4; stroke-width: 1.5; stroke-linecap: square"/>
    <defs>
     <path id="mbe39fbcfac" d="M 0 1.772454 
C 0.47006 1.772454 0.920931 1.585697 1.253314 1.253314 
C 1.585697 0.920931 1.772454 0.47006 1.772454 0 
C 1.772454 -0.47006 1.585697 -0.920931 1.253314 -1.253314 
C 0.920931 -1.585697 0.47006 -1.772454 0 -1.772454 
C -0.47006 -1.772454 -0.920931 -1.585697 -1.253314 -1.253314 
C -1.585697 -0.920931 -1.772454 -0.47006 -1.772454 0 
C -1.772454 0.47006 -1.585697 0.920931 -1.253314 1.253314 
C -0.920931 1.585697 -0.47006 1.772454 0 1.772454 
z
" style="stroke: #57d3db; stroke-width: 0.886227"/>
    </defs>
    <g clip-path="url(#p7bc7ca8993)">
     <use xlink:href="#mbe39fbcfac" x="428.432938" y="173.876339" style="fill: #57d3db; stroke: #57d3db; stroke-width: 0.886227"/>
    </g>
   </g>
   <g id="patch_9">
    <path d="M 420.512938 177.836339 
L 436.352937 177.836339 
L 436.352937 169.916339 
L 420.512938 169.916339 
z
" clip-path="url(#p7bc7ca8993)" style="fill: #999999; opacity: 0.4"/>
   </g>
   <g id="line2d_35">
    <path d="M 420.512938 173.876339 
L 436.352937 173.876339 
" clip-path="url(#p7bc7ca8993)" style="fill: none; stroke: #57d3db; stroke-width: 1.772454"/>
   </g>
   <g id="text_15">
    <!-- fc4 -->
    <g transform="translate(439.352938 176.304589)scale(0.088 -0.088)">
     <defs>
      <path id="DejaVuSans-34" d="M 2419 4116 
L 825 1625 
L 2419 1625 
L 2419 4116 
z
M 2253 4666 
L 3047 4666 
L 3047 1625 
L 3713 1625 
L 3713 1100 
L 3047 1100 
L 3047 0 
L 2419 0 
L 2419 1100 
L 313 1100 
L 313 1709 
L 2253 4666 
z
" transform="scale(0.015625)"/>
     </defs>
     <use xlink:href="#DejaVuSans-66"/>
     <use xlink:href="#DejaVuSans-63" x="35.205078"/>
     <use xlink:href="#DejaVuSans-34" x="90.185547"/>
    </g>
   </g>
   <g id="patch_10">
    <path d="M 420.512938 199.636339 
L 436.352937 199.636339 
L 436.352937 183.796339 
L 420.512938 183.796339 
z
" clip-path="url(#p9905ea19e9)" style="fill: #f2f2f2"/>
   </g>
   <g id="line2d_36">
    <path d="M 428.432938 191.716339 
" clip-path="url(#p9905ea19e9)" style="fill: none; stroke: #1f77b4; stroke-width: 1.5; stroke-linecap: square"/>
    <defs>
     <path id="mcdff1712ad" d="M 0 1.772454 
C 0.47006 1.772454 0.920931 1.585697 1.253314 1.253314 
C 1.585697 0.920931 1.772454 0.47006 1.772454 0 
C 1.772454 -0.47006 1.585697 -0.920931 1.253314 -1.253314 
C 0.920931 -1.585697 0.47006 -1.772454 0 -1.772454 
C -0.47006 -1.772454 -0.920931 -1.585697 -1.253314 -1.253314 
C -1.585697 -0.920931 -1.772454 -0.47006 -1.772454 0 
C -1.772454 0.47006 -1.585697 0.920931 -1.253314 1.253314 
C -0.920931 1.585697 -0.47006 1.772454 0 1.772454 
z
" style="stroke: #a157db; stroke-width: 0.886227"/>
    </defs>
    <g clip-path="url(#p9905ea19e9)">
     <use xlink:href="#mcdff1712ad" x="428.432938" y="191.716339" style="fill: #a157db; stroke: #a157db; stroke-width: 0.886227"/>
    </g>
   </g>
   <g id="patch_11">
    <path d="M 420.512938 195.676339 
L 436.352937 195.676339 
L 436.352937 187.756339 
L 420.512938 187.756339 
z
" clip-path="url(#p9905ea19e9)" style="fill: #999999; opacity: 0.4"/>
   </g>
   <g id="line2d_37">
    <path d="M 420.512938 191.716339 
L 436.352937 191.716339 
" clip-path="url(#p9905ea19e9)" style="fill: none; stroke: #a157db; stroke-width: 1.772454"/>
   </g>
   <g id="text_16">
    <!-- raw -->
    <g transform="translate(439.352938 194.144589)scale(0.088 -0.088)">
     <defs>
      <path id="DejaVuSans-72" d="M 2631 2963 
Q 2534 3019 2420 3045 
Q 2306 3072 2169 3072 
Q 1681 3072 1420 2755 
Q 1159 2438 1159 1844 
L 1159 0 
L 581 0 
L 581 3500 
L 1159 3500 
L 1159 2956 
Q 1341 3275 1631 3429 
Q 1922 3584 2338 3584 
Q 2397 3584 2469 3576 
Q 2541 3569 2628 3553 
L 2631 2963 
z
" transform="scale(0.015625)"/>
      <path id="DejaVuSans-61" d="M 2194 1759 
Q 1497 1759 1228 1600 
Q 959 1441 959 1056 
Q 959 750 1161 570 
Q 1363 391 1709 391 
Q 2188 391 2477 730 
Q 2766 1069 2766 1631 
L 2766 1759 
L 2194 1759 
z
M 3341 1997 
L 3341 0 
L 2766 0 
L 2766 531 
Q 2569 213 2275 61 
Q 1981 -91 1556 -91 
Q 1019 -91 701 211 
Q 384 513 384 1019 
Q 384 1609 779 1909 
Q 1175 2209 1959 2209 
L 2766 2209 
L 2766 2266 
Q 2766 2663 2505 2880 
Q 2244 3097 1772 3097 
Q 1472 3097 1187 3025 
Q 903 2953 641 2809 
L 641 3341 
Q 956 3463 1253 3523 
Q 1550 3584 1831 3584 
Q 2591 3584 2966 3190 
Q 3341 2797 3341 1997 
z
" transform="scale(0.015625)"/>
      <path id="DejaVuSans-77" d="M 269 3500 
L 844 3500 
L 1563 769 
L 2278 3500 
L 2956 3500 
L 3675 769 
L 4391 3500 
L 4966 3500 
L 4050 0 
L 3372 0 
L 2619 2869 
L 1863 0 
L 1184 0 
L 269 3500 
z
" transform="scale(0.015625)"/>
     </defs>
     <use xlink:href="#DejaVuSans-72"/>
     <use xlink:href="#DejaVuSans-61" x="41.113281"/>
     <use xlink:href="#DejaVuSans-77" x="102.392578"/>
    </g>
   </g>
  </g>
  <g id="text_17">
   <!-- N=kn=$2*10^7$ -->
   <g transform="translate(171.120938 17.229938)scale(0.132 -0.132)">
    <defs>
     <path id="DejaVuSans-4e" d="M 628 4666 
L 1478 4666 
L 3547 763 
L 3547 4666 
L 4159 4666 
L 4159 0 
L 3309 0 
L 1241 3903 
L 1241 0 
L 628 0 
L 628 4666 
z
" transform="scale(0.015625)"/>
     <path id="DejaVuSans-3d" d="M 678 2906 
L 4684 2906 
L 4684 2381 
L 678 2381 
L 678 2906 
z
M 678 1631 
L 4684 1631 
L 4684 1100 
L 678 1100 
L 678 1631 
z
" transform="scale(0.015625)"/>
     <path id="DejaVuSans-6e" d="M 3513 2113 
L 3513 0 
L 2938 0 
L 2938 2094 
Q 2938 2591 2744 2837 
Q 2550 3084 2163 3084 
Q 1697 3084 1428 2787 
Q 1159 2491 1159 1978 
L 1159 0 
L 581 0 
L 581 3500 
L 1159 3500 
L 1159 2956 
Q 1366 3272 1645 3428 
Q 1925 3584 2291 3584 
Q 2894 3584 3203 3211 
Q 3513 2838 3513 2113 
z
" transform="scale(0.015625)"/>
     <path id="DejaVuSans-2a" d="M 3009 3897 
L 1888 3291 
L 3009 2681 
L 2828 2375 
L 1778 3009 
L 1778 1831 
L 1422 1831 
L 1422 3009 
L 372 2375 
L 191 2681 
L 1313 3291 
L 191 3897 
L 372 4206 
L 1422 3572 
L 1422 4750 
L 1778 4750 
L 1778 3572 
L 2828 4206 
L 3009 3897 
z
" transform="scale(0.015625)"/>
     <path id="DejaVuSans-37" d="M 525 4666 
L 3525 4666 
L 3525 4397 
L 1831 0 
L 1172 0 
L 2766 4134 
L 525 4134 
L 525 4666 
z
" transform="scale(0.015625)"/>
    </defs>
    <use xlink:href="#DejaVuSans-4e" transform="translate(0 0.684375)"/>
    <use xlink:href="#DejaVuSans-3d" transform="translate(74.804688 0.684375)"/>
    <use xlink:href="#DejaVuSans-6b" transform="translate(158.59375 0.684375)"/>
    <use xlink:href="#DejaVuSans-6e" transform="translate(216.503906 0.684375)"/>
    <use xlink:href="#DejaVuSans-3d" transform="translate(279.882812 0.684375)"/>
    <use xlink:href="#DejaVuSans-32" transform="translate(363.671875 0.684375)"/>
    <use xlink:href="#DejaVuSans-2a" transform="translate(446.777344 0.684375)"/>
    <use xlink:href="#DejaVuSans-31" transform="translate(516.259766 0.684375)"/>
    <use xlink:href="#DejaVuSans-30" transform="translate(579.882812 0.684375)"/>
    <use xlink:href="#DejaVuSans-37" transform="translate(644.462891 38.965625)scale(0.7)"/>
   </g>
  </g>
 </g>
 <defs>
  <clipPath id="p07ce0f085c">
   <rect x="43.992938" y="26.105371" width="357.12" height="266.112"/>
  </clipPath>
  <clipPath id="pcd1c1b763e">
   <path d="M 420.512938 146.116339 
L 420.512938 130.276339 
L 436.352937 130.276339 
L 436.352937 146.116339 
"/>
  </clipPath>
  <clipPath id="p45a83cacf8">
   <path d="M 420.512938 163.956339 
L 420.512938 148.116339 
L 436.352937 148.116339 
L 436.352937 163.956339 
"/>
  </clipPath>
  <clipPath id="p7bc7ca8993">
   <path d="M 420.512938 181.796339 
L 420.512938 165.956339 
L 436.352937 165.956339 
L 436.352937 181.796339 
"/>
  </clipPath>
  <clipPath id="p9905ea19e9">
   <path d="M 420.512938 199.636339 
L 420.512938 183.796339 
L 436.352937 183.796339 
L 436.352937 199.636339 
"/>
  </clipPath>
 </defs>
</svg>
